<?xml version="1.0" encoding="utf-8"?>
<!-- Generator: Adobe Illustrator 18.0.0, SVG Export Plug-In . SVG Version: 6.00 Build 0)  -->
<!DOCTYPE svg PUBLIC "-//W3C//DTD SVG 1.1//EN" "http://www.w3.org/Graphics/SVG/1.1/DTD/svg11.dtd">
<svg version="1.1" id="Layer_1" xmlns="http://www.w3.org/2000/svg" xmlns:xlink="http://www.w3.org/1999/xlink" x="0px" y="0px"
	 width="356.7px" height="245.8px" viewBox="0 0 356.7 245.8" enable-background="new 0 0 356.7 245.8" xml:space="preserve">
<g>
	<rect fill="#F6F8FC" width="356.7" height="245.8"/>
	<g>
		<path fill="#2C3240" d="M180.4,79.1c-2.3,9.6-4.6,19.1-6.9,28.7c-1,4.3-2.1,8.6-3.1,13c-0.5,2.3-1.8,3.2-4.1,3.4
			c-8.5,0.5-8.5,0.5-11-7.7c-4.8-15.9-9.6-31.8-14.4-47.7c-1.2-4.1-1-4.5,3.4-4.4c7.3,0.1,7.1-1.4,9.2,7.2c2.9,11.8,6,23.6,9,35.3
			c0.3,1.2,0.6,2.4,1.7,3.6c1.4-5.8,2.8-11.7,4.2-17.5c2-8.2,4-16.5,5.8-24.7c0.6-2.9,2-4,4.9-3.9c8.6,0.2,7.7-1.1,9.7,7.7
			c2.9,12.5,5.9,24.9,8.8,37.4c0.1,0.6,0.4,1.1,1.2,1.7c1.6-6.2,3.2-12.4,4.9-18.7c2.1-8,4.2-15.9,6.2-24c0.7-3.1,2.2-4.3,5.4-4.2
			c7.5,0.2,7.5,0,5.2,7.3c-5,16.1-10.1,32.1-15,48.2c-1,3.4-2.8,4.9-6.3,4.5c-0.7-0.1-1.5,0-2.3,0c-4.5,0-4.8-0.2-5.9-4.7
			c-3-12.3-6-24.7-9-37c-0.3-1.1-0.6-2.2-1-3.4C180.9,79,180.6,79,180.4,79.1z"/>
		<path fill="#E79824" d="M181.1,183.5c-40.6-0.7-73.5-12.5-101.7-36.9c-0.1-0.1-0.2-0.1-0.2-0.2c-0.5-1-1-2.1-1.5-3.2
			c1.1,0.2,2.3,0,3.3,0.5c3.8,1.8,7.5,3.9,11.3,5.8c19.4,9.4,39.8,15.8,61.2,18.1c11.6,1.2,23.4,2.2,35,1.8
			c22.8-0.8,44.9-5.8,66.1-14.4c2.1-0.8,4.7-2.9,6.2,0.2c1.3,2.6-1.8,3.6-3.4,4.7c-17.1,11.7-36.2,18.3-56.5,21.5
			C193.3,182.6,185.5,183,181.1,183.5z"/>
		<path fill="#2C3240" d="M122.6,90.5c0-3,0.3-5.6-0.1-8.1c-1-8-4.9-11-15-10.5c-4.9,0.3-9.7,2.1-14.5,3.5c-3.4,1-3.6,0.8-3.9-2.6
			c-0.4-3.8,1.2-5.8,4.7-7c7.5-2.7,15.1-4,23-2.8c10.6,1.7,16.4,7.9,16.8,18.7c0.3,7.9-0.1,15.9,0.2,23.8c0.2,3.7,1,7.6,2.5,10.9
			c1.8,4.1-1,4.9-3.2,6.5c-2.3,1.7-4.5,2.2-6.4-0.6c-1.1-1.7-2.2-3.4-3.5-5.5c-4.3,4.5-9.3,7.6-15.4,8.7c-10.8,1.9-20-3.1-22.2-12.2
			c-2.9-11.9,4-22.5,16.2-23.8c5.9-0.6,12.1,0.5,18.1,0.8C120.8,90.1,121.5,90.3,122.6,90.5z M122.6,98.2c-2.1-0.4-4.1-1.1-6.1-1.1
			c-4.5,0-9.2-0.2-13.5,0.9c-5,1.2-7,6.1-5.9,11.8c0.9,4.6,3.9,6.9,9.2,6.9C117.3,116.8,123.4,110.1,122.6,98.2z"/>
		<path fill="#2C3240" d="M245.8,126.4c-4.7-1.2-10.3-2.4-15.7-4.1c-3.1-1-4.7-5.6-3.1-8.4c0.4-0.7,2.5-0.9,3.5-0.5
			c5.8,2.4,11.8,3.8,18.1,3.2c2.5-0.2,5.2-0.8,7.4-1.9c5.5-2.9,5.5-10,0-12.7c-4.6-2.2-9.5-3.5-14.4-5.1c-5.1-1.7-9.6-4.1-12.2-9
			c-4.2-7.9-1.6-17.4,6.5-21.9c9.6-5.3,19.5-4.2,29.2-0.2c2.5,1,3.9,6.2,2.3,8.2c-0.5,0.6-2.6,0.5-3.7,0.1
			c-5.8-2.2-11.7-3.3-17.9-2.1c-4.6,0.9-6.9,3-7.3,6.7c-0.4,3.4,1.4,6.1,5.6,7.8c4.5,1.8,9.2,3.2,13.8,4.7c8.8,3,13,8,13,15.8
			c0,8.1-4.8,14.6-13.3,17.2C254.2,125.3,250.5,125.5,245.8,126.4z"/>
		<path fill="#E79824" d="M242,145.6c1.5-1,2.8-2.2,4.4-2.9c9.2-4.4,18.9-5.3,28.8-3c2.6,0.6,3.8,1.9,3.8,4.8
			c-0.3,10.8-4,20.1-11.1,28.1c-0.9,1-2.1,1.6-3.2,2.4c-0.2-0.2-0.5-0.3-0.7-0.5c0.3-1.1,0.5-2.1,0.9-3.2c1.7-5.4,3.7-10.7,5.1-16.1
			c1.8-6.8-0.4-9.7-7.6-9.6c-5.8,0.1-11.7,0.7-17.5,1.1c-0.8,0.1-1.6,0-2.5,0C242.3,146.3,242.2,146,242,145.6z"/>
	</g>
</g>
</svg>
