<?xml version="1.0" encoding="utf-8"?>
<!-- Generator: Adobe Illustrator 18.0.0, SVG Export Plug-In . SVG Version: 6.00 Build 0)  -->
<!DOCTYPE svg PUBLIC "-//W3C//DTD SVG 1.1//EN" "http://www.w3.org/Graphics/SVG/1.1/DTD/svg11.dtd">
<svg version="1.1" id="Layer_1" xmlns="http://www.w3.org/2000/svg" xmlns:xlink="http://www.w3.org/1999/xlink" x="0px" y="0px"
	 width="356.7px" height="245.8px" viewBox="0 0 356.7 245.8" enable-background="new 0 0 356.7 245.8" xml:space="preserve">
<g>
	<rect x="0" fill="#F6F8FC" width="356.7" height="245.8"/>
	<g>
		<path fill="#363441" d="M24.3,156.5c0.3-0.2,0.5-0.5,0.8-0.7c11.1-8.1,22.2-16.2,33.3-24.3c0.2-0.1,0.3-0.2,0.6-0.4
			c0,0.4,0,0.6,0,0.9c0,4.8,0,9.6,0,14.4c0,1,0.1,1.1,1,1.1c4.3,0,8.6,0,12.9,0c3.8,0,6.3-2.1,7-5.6c0.5-2.9-0.8-5.6-3.3-7
			c-0.6-0.3-0.7-0.6-0.1-0.9c2.4-1.3,3.5-4.2,2.9-6.8c-0.6-2.5-2.7-4.4-5.5-4.8c-0.9-0.1-1.7-0.1-2.7-0.2c0.2-0.2,0.3-0.3,0.5-0.4
			c14.9-10.9,29.9-21.9,44.8-32.8c0.3-0.2,0.6-0.5,0.9-0.7c0.3,0,0.5,0,0.8,0c0.2,0.4,0.5,0.8,0.5,1.2c0,12.2,0,24.4,0,36.7
			c0,0.1,0,0.2,0,0.4c-0.3-0.3-0.5-0.6-0.8-0.9c-2.6-2.8-5.9-3.9-9.6-3.8c-4.1,0.2-7.6,1.7-10.2,5c-5,6.3-3.3,18.8,8.1,20.9
			c4.5,0.8,8.6-0.2,12.1-3.2c0.1-0.1,0.2-0.2,0.4-0.3c0,0.3,0.1,0.5,0.1,0.7c0,3.8,0,7.6,0,11.4c0,0.5-0.1,1-0.6,1.3
			c-31.3,0-62.6,0-93.9,0C24.3,157.3,24.3,156.9,24.3,156.5z M90.6,134.8c0-3.9,0-7.9,0-11.8c0-0.7-0.2-0.9-0.9-0.9
			c-1.2,0-2.4,0-3.6,0c-0.6,0-0.8,0.2-0.8,0.8c0,7.9,0,15.8,0,23.7c0,0.6,0.2,0.8,0.8,0.8c1.2,0,2.4,0,3.6,0c0.7,0,1-0.2,1-1
			C90.6,142.6,90.6,138.7,90.6,134.8z"/>
		<path fill="#363441" d="M332.4,147c-0.3,0.1-0.6,0.4-0.9,0.4c-5.2,0-10.4,0-15.5,0c-0.7,0-0.9-0.2-0.9-0.9c0-7.8,0-15.7,0-23.5
			c0-0.6,0.2-0.8,0.8-0.8c5.2,0,10.4,0,15.6,0c0.3,0,0.6,0.2,0.9,0.3c0,1.1,0,2.2,0,3.2c-0.3,0.1-0.7,0.3-1,0.3c-3.6,0-7.2,0-10.9,0
			c-1.1,0-1.1,0-1.1,1.1c0,1.4,0,2.8,0,4.2c0,1.2,0,1.2,1.2,1.2c3.5,0,6.9,0,10.4,0c1.1,0,1.1,0,1.1,1.1c0,0.6,0,1.2,0,1.8
			c0,1,0,1-1,1c-3.5,0-7.1,0-10.6,0c-0.7,0-1,0.2-1,1c0,1.7,0,3.3,0,5c0,1,0,1.1,1.1,1.1c3.6,0,7.2,0,10.9,0c0.3,0,0.7,0.3,1,0.4
			C332.4,144.9,332.4,146,332.4,147z"/>
		<path fill="#363441" d="M203,122.2c0,0.4,0,0.7,0,0.9c0,7.8,0,15.6,0,23.3c0,0.7-0.2,1-0.9,1c-0.8-0.1-1.7-0.1-2.5,0
			c-0.7,0-1-0.2-1-1c0-5.7,0-11.4,0-17.2c0-0.3,0-0.5,0-0.8c-0.1,0-0.1,0-0.2,0c-0.6,1.4-1.1,2.8-1.7,4.2c-1.8,4.6-3.7,9.2-5.5,13.9
			c-0.2,0.6-0.6,0.9-1.2,0.8c-0.7,0-1.1-0.1-1.3-0.8c-2.3-5.8-4.6-11.6-6.9-17.4c-0.1-0.3-0.2-0.5-0.5-0.8c0,0.3,0,0.5,0,0.8
			c0,5.7,0,11.5,0,17.2c0,0.8-0.2,1-1,1c-0.9-0.1-1.8,0-2.8,0c-0.4,0-0.6-0.1-0.6-0.6c0-8.1,0-16.1,0-24.2c0-0.1,0-0.2,0.1-0.4
			c0.8,0,1.6,0,2.4,0c0.9,0,1.9,0,2.8,0c0.7,0,1,0.2,1.2,0.9c2,5.3,4.1,10.6,6.1,15.8c0.1,0.3,0.2,0.5,0.4,0.9
			c0.3-0.7,0.5-1.3,0.7-1.8c1.9-5,3.9-9.9,5.7-14.9c0.2-0.7,0.6-0.9,1.3-0.9C199.4,122.2,201.1,122.2,203,122.2z"/>
		<path fill="#363441" d="M222.6,139.8c1.5-3.8,2.8-7.3,4.2-10.9c0.8-2,1.6-4,2.3-6c0.2-0.5,0.5-0.8,1.1-0.8c1.6,0,3.2,0,4.8,0
			c0.5,0,0.7,0.2,0.7,0.7c0,7.9,0,15.9,0,23.8c0,0.6-0.2,0.7-0.8,0.7c-0.9,0-1.8-0.1-2.8,0c-0.7,0-0.9-0.2-0.9-0.9
			c0-5.8,0-11.5,0-17.3c0-0.3,0-0.5,0-0.8c-0.1,0-0.1,0-0.2,0c-0.2,0.4-0.4,0.9-0.5,1.3c-2.2,5.6-4.5,11.2-6.7,16.9
			c-0.2,0.6-0.5,0.9-1.2,0.9c-0.7,0-1.1-0.1-1.4-0.9c-2.3-5.9-4.7-11.8-7-17.6c-0.1-0.2-0.2-0.4-0.4-0.6c0,0.3,0,0.5,0,0.8
			c0,5.8,0,11.5,0,17.3c0,0.7-0.2,1-0.9,0.9c-0.9-0.1-1.8,0-2.8,0c-0.6,0-0.8-0.2-0.8-0.8c0-4.5,0-9.1,0-13.6c0-3.3,0-6.7,0-10
			c0-0.6,0.2-0.8,0.8-0.8c1.5,0,3,0.1,4.5,0c0.7,0,1,0.2,1.3,0.9c2,5.3,4.1,10.6,6.1,15.8C222.3,139.1,222.5,139.4,222.6,139.8z"/>
		<path fill="#363441" d="M265.8,134.8c0-3.8,0-7.7,0-11.5c0-1,0-1,1-1c3.5,0,7.1-0.1,10.6,0c3.1,0.1,5.6,1.4,6.9,4.3
			c1.3,2.9,1.1,5.9-0.9,8.5c-0.8,1.1-2,1.8-3.3,2.2c-0.9,0.3-1,0.4-0.5,1.2c1.6,2.6,3.3,5.2,4.9,7.8c0.2,0.3,0.2,0.6,0.3,0.9
			c-0.3,0.1-0.6,0.2-0.9,0.2c-1.1,0-2.1,0-3.2,0c-0.5,0-0.8-0.2-1-0.6c-1.6-2.7-3.2-5.4-4.8-8.1c-0.3-0.6-0.7-0.8-1.3-0.8
			c-0.9,0-1.8,0-2.7,0c-0.6,0-0.9,0.2-0.9,0.9c0,2.5,0,5,0,7.5c0,1,0,1-1,1c-0.8,0-1.6,0-2.5,0c-0.7,0-0.9-0.2-0.9-0.9
			C265.8,142.6,265.8,138.7,265.8,134.8z M270.2,130c0,1.1,0,2.2,0,3.3c0,0.5,0.2,0.7,0.7,0.7c1.9,0,3.8,0,5.8,0
			c2.2-0.1,3.8-1.7,3.9-3.9c0.1-2-1.2-3.8-3.3-4c-2.2-0.2-4.3-0.1-6.5-0.1c-0.2,0-0.5,0.5-0.5,0.7C270.1,127.9,270.2,129,270.2,130z
			"/>
		<path fill="#363441" d="M172.4,135.1c0,5.5-3,10.1-7.9,11.9c-7.2,2.6-15.6-1.1-16.8-10c-0.5-3.6,0-7,2.1-10.1
			c4.4-6.5,13.6-7,19-1.1C171.2,128.5,172.4,131.6,172.4,135.1z M168.1,134.3c-0.1-0.6-0.2-1.8-0.5-2.8c-1-3.5-3.8-5.7-7.3-5.8
			c-3.6-0.1-6.5,1.8-7.7,5.3c-0.8,2.1-0.9,4.2-0.4,6.4c1.6,7,8.6,7.9,12.3,5.2C167.1,140.6,168,137.9,168.1,134.3z"/>
		<path fill="#363441" d="M242.2,134.7c0-3.8,0-7.7,0-11.5c0-0.7,0.2-1,1-1c5.2,0,10.3,0,15.5,0c0.7,0,0.9,0.2,0.9,0.9
			c0,0.7,0,1.4,0,2.2c0,0.6-0.2,0.8-0.9,0.8c-3.6,0-7.3,0-10.9,0c-1,0-1.1,0.1-1.1,1.1c0,1.5,0,3,0,4.5c0,0.7,0.2,0.9,0.9,0.9
			c3.6,0,7.1,0,10.7,0c1,0,1,0,1,1c0,0.7,0,1.3,0,2c0.1,0.7-0.2,0.9-0.9,0.9c-3.5,0-7,0-10.5,0c-1.1,0-1.1,0-1.1,1.2
			c0,1.6,0,3.3,0,4.9c0,0.7,0.3,0.9,1,0.9c3.6,0,7.3,0,10.9,0c1,0,1,0,1,1c0,0.7,0,1.4,0,2.2c0,0.5-0.2,0.8-0.7,0.8
			c-5.3,0-10.6,0-15.9,0c-0.7,0-0.7-0.4-0.7-0.9C242.2,142.6,242.2,138.6,242.2,134.7z"/>
		<path fill="#363441" d="M127.1,134.3c0.1,4.1,1.5,7.1,4.9,8.8c3.3,1.6,7,0.7,9.2-2.2c0.4-0.5,0.6-0.6,1.2-0.3
			c0.7,0.4,1.5,0.8,2.2,1.2c0.5,0.2,0.5,0.5,0.2,1c-2.4,3.5-5.8,5.3-10.1,5c-4.3-0.2-7.7-2-10-5.7c-3.6-5.6-2.7-15,4.5-18.9
			c4.5-2.4,10.2-1.9,13.7,1.3c0.7,0.7,1.3,1.5,1.9,2.2c0.3,0.4,0.2,0.7-0.2,1c-0.8,0.4-1.6,0.9-2.4,1.3c-0.2,0.1-0.7,0-0.8-0.2
			c-1.9-2.5-4.3-3.6-7.4-3c-3.3,0.6-5.4,2.6-6.4,5.8C127.3,132.6,127.2,133.7,127.1,134.3z"/>
		<path fill="#363441" d="M292.7,134.3c0.2,4.1,1.5,7.2,5.1,8.8c3.3,1.5,6.8,0.6,9-2.4c0.4-0.5,0.6-0.5,1.1-0.3
			c0.7,0.4,1.4,0.8,2.2,1.1c0.5,0.3,0.7,0.5,0.3,1.1c-2.5,3.6-6,5.4-10.4,5c-6.2-0.5-10.4-4.5-11.5-10.6c-1-5.3,1.2-10.7,5.5-13.5
			c4.4-2.8,10.4-2.7,14.2,0.5c0.8,0.7,1.5,1.6,2.2,2.4c0.4,0.4,0.3,0.8-0.2,1.1c-0.8,0.4-1.6,0.8-2.4,1.3c-0.4,0.2-0.6,0.2-0.8-0.2
			c-1.9-2.6-4.5-3.7-7.7-3c-3.2,0.7-5.2,2.8-6.2,5.9C292.9,132.7,292.8,133.7,292.7,134.3z"/>
		<path fill="#363441" d="M118.9,127.7c0,0.4,0,0.7,0,1c0,1.5,0,3.1,0,4.7c-0.3,0-0.6,0-0.9,0c-3.1,0-6.1,0-9.2,0
			c-0.9,0-1.1,0.1-1.1,1.1c0,0.9,0,1.8,0,2.7c0,0.7,0.3,1,1,1c1.6,0,3.3,0,4.9,0c0.6,0,0.8,0.2,0.7,0.8c0,0.2,0,0.4,0,0.6
			c0.3,1.5-0.5,2.2-1.8,2.8c-5.6,2.5-11.4-1.2-11.5-7.3c0-2.8,0.9-5.2,3.2-6.9c3.2-2.4,7.4-2,10.1,1c0.5,0.6,0.9,0.6,1.6,0.2
			C116.9,128.8,117.8,128.3,118.9,127.7z"/>
		<path fill="#363441" d="M68.5,142.7c-1.1,0-2.2,0-3.3,0c-0.5,0-0.7-0.2-0.7-0.7c0-1.4,0-2.9,0-4.3c0-0.5,0.2-0.7,0.7-0.7
			c2.3,0,4.5,0,6.8,0.1c1.9,0.1,3,1.6,2.6,3.4c-0.2,1.3-1.2,2.1-2.7,2.2c-0.1,0-0.2,0-0.2,0C70.6,142.7,69.6,142.7,68.5,142.7
			C68.5,142.7,68.5,142.7,68.5,142.7z"/>
		<path fill="#363441" d="M68.4,127c1.1,0,2.2-0.1,3.3,0c1.6,0.1,2.5,1.2,2.5,2.8c-0.1,1.4-0.9,2.4-2.4,2.4c-2.2,0.1-4.4,0.1-6.6,0
			c-0.2,0-0.6-0.4-0.6-0.6c-0.1-1.4,0-2.7,0-4.1c0-0.5,0.3-0.6,0.7-0.6C66.2,126.9,67.3,126.9,68.4,127
			C68.4,126.9,68.4,127,68.4,127z"/>
	</g>
</g>
</svg>
