<?xml version="1.0" encoding="utf-8"?>
<!-- Generator: Adobe Illustrator 18.0.0, SVG Export Plug-In . SVG Version: 6.00 Build 0)  -->
<!DOCTYPE svg PUBLIC "-//W3C//DTD SVG 1.1//EN" "http://www.w3.org/Graphics/SVG/1.1/DTD/svg11.dtd">
<svg version="1.1" id="Layer_1" xmlns="http://www.w3.org/2000/svg" xmlns:xlink="http://www.w3.org/1999/xlink" x="0px" y="0px"
	 width="356.7px" height="245.8px" viewBox="0 0 356.7 245.8" enable-background="new 0 0 356.7 245.8" xml:space="preserve">
<g>
	<rect fill="#F6F8FC" width="356.7" height="245.8"/>
	<g>
		<g>
			<path fill="#563D7C" d="M232.8,61.3c0,26.2,0,52.5,0,78.7c-0.5,1.7-1,3.4-1.7,5c-2.8,7.1-8.5,10.4-15.5,12.2
				c-26.2,0-52.5,0-78.7,0c-1.7-0.5-3.4-1-5-1.7c-7.1-2.8-10.4-8.5-12.2-15.5c0-26.2,0-52.5,0-78.7c0.5-1.7,1-3.4,1.7-5
				c2.8-7.1,8.5-10.4,15.5-12.2c26.2,0,52.5,0,78.7,0c1.7,0.5,3.4,1,5,1.7C227.7,48.5,231,54.3,232.8,61.3z M150.6,68.9
				c0,21.8,0,43.7,0,65.3c12.8,0,25.4,0.6,38-0.2c7.5-0.5,13.8-4.5,16-12.7c2.6-9.5-0.9-17-10.4-22.3c0.1-0.2,0.2-0.4,0.4-0.5
				c7.5-4.5,8.7-11,7.1-18.2c-1.6-7.4-7.3-11-14.3-11.3C175.2,68.5,163.1,68.9,150.6,68.9z"/>
			<path fill="#FFFFFF" d="M150.6,68.9c12.5,0,24.7-0.4,36.8,0.1c7,0.3,12.7,3.9,14.3,11.3c1.6,7.1,0.3,13.7-7.1,18.2
				c-0.2,0.1-0.3,0.3-0.4,0.5c9.5,5.3,13,12.8,10.4,22.3c-2.2,8.2-8.5,12.2-16,12.7c-12.5,0.8-25.2,0.2-38,0.2
				C150.6,112.6,150.6,90.7,150.6,68.9z M162.4,105.1c0,6.7,0,13.2,0,19.9c6.5,0,12.9,0.1,19.2,0c1.8,0,3.6-0.2,5.3-0.8
				c4.2-1.3,6.7-5.3,6.4-10c-0.3-4.9-3.1-8.7-7.6-9C178,104.8,170.2,105.1,162.4,105.1z M162.4,96.1c4.6,0,9,0.1,13.3,0
				c2.8-0.1,5.8,0,8.5-0.6c4.2-1,6.4-4.8,6.1-9.3c-0.4-4.6-2.6-7.4-7-7.6c-6.9-0.3-13.8-0.1-20.9-0.1
				C162.4,84.3,162.4,90,162.4,96.1z"/>
			<path fill="#563D7C" d="M162.4,105.1c7.8,0,15.6-0.3,23.2,0.1c4.5,0.3,7.3,4.1,7.6,9c0.3,4.7-2.2,8.7-6.4,10
				c-1.7,0.5-3.5,0.7-5.3,0.8c-6.3,0.1-12.6,0-19.2,0C162.4,118.3,162.4,111.8,162.4,105.1z"/>
			<path fill="#563D7C" d="M162.4,96.1c0-6.1,0-11.7,0-17.6c7.1,0,14-0.2,20.9,0.1c4.4,0.2,6.6,3,7,7.6c0.4,4.5-1.9,8.3-6.1,9.3
				c-2.7,0.6-5.6,0.5-8.5,0.6C171.3,96.1,167,96.1,162.4,96.1z"/>
		</g>
		<g>
			<path fill="#573E7D" d="M97.1,169c0.1,0,0.2-0.1,0.4-0.1c4.5,0,9,0,13.5,0.1c1.5,0,2.9,0.6,4.2,1.5c2.9,2,3.1,7.9-0.8,10
				c-0.2,0.1-0.4,0.2-0.7,0.4c0.8,0.3,1.5,0.6,2.1,1c2.4,1.6,3.3,5.1,2.3,8.2c-0.9,2.7-3.1,3.8-5.7,4.4c-0.8,0.2-1.7,0.3-2.6,0.3
				c-4.2,0-8.4,0-12.7,0C97.1,186.2,97.1,177.6,97.1,169L97.1,169z M101.6,191c3.1,0,6.2,0.1,9.2,0c1.9-0.1,3.3-2.1,3.2-4.1
				c-0.1-2-1.3-3.6-3.2-3.7c-3-0.1-6-0.1-9-0.1c0,0-0.1,0.1-0.2,0.1L101.6,191L101.6,191z M101.6,179.7c2.8,0,5.5,0.1,8.2,0
				c2-0.1,3.1-1.7,3-3.8c-0.1-1.9-1.2-3.1-3.2-3.1c-2.6-0.1-5.1,0-7.7,0c-0.1,0-0.2,0.1-0.3,0.1V179.7z M241,176.2h3.8v2
				c0.4-0.3,0.9-0.7,1.4-1.1c2.9-2.5,9.7-2.2,12,2.8c2,4.3,1.9,8.6-0.8,12.6c-1.5,2.2-3.8,3-6.5,2.9c-2.3-0.1-4.3-0.8-5.9-3v9.4h-4
				C241,193.2,241,184.7,241,176.2L241,176.2z M244.9,185.6c0.2,0.9,0.3,1.9,0.5,2.8c0.6,2,2.4,3.5,4.2,3.7c2.5,0.2,4.2-0.7,5.1-2.9
				c1.1-2.8,1.1-5.6-0.6-8.2c-1.9-3.1-6.6-2.8-8.3,0.4C245.2,182.7,244.9,184.1,244.9,185.6L244.9,185.6z M238.4,192.1
				c0,0.8,0,1.5,0,2.3c0,0.2-0.3,0.5-0.4,0.5c-1.2,0.1-2.4,0.3-3.5,0.1c-1-0.1-1.6-1-1.9-2c-2.4,2-5.2,2.4-8.1,2
				c-2.5-0.3-4.5-2.3-4.7-4.6c-0.2-3.1,0.9-5.1,3.7-5.9c2-0.5,4-0.7,6-1.1c0.5-0.1,1-0.2,1.4-0.3c0.9-0.2,1.6-0.8,1.6-1.8
				c0.1-1.1-0.3-1.9-1.3-2.3c-1.7-0.7-3.5-0.7-5.1,0.1c-0.8,0.4-1.2,1.1-1.6,2.3h-4c0-1.5,0.5-2.8,1.5-3.8c1.3-1.4,3-2,4.9-2.2
				c1.9-0.2,3.9-0.2,5.8,0.4c2.5,0.9,3.8,2.5,3.8,5.2c0,2.8,0,5.7,0,8.5C236.4,191.9,236.4,191.9,238.4,192.1L238.4,192.1z
				 M232.3,185.7c-1.2,0.2-2.4,0.4-3.5,0.6c-1.2,0.2-2.4,0.5-3.5,0.9c-1.1,0.4-1.5,1.4-1.4,2.5c0,1.1,0.8,1.7,1.7,2
				c1.6,0.6,3.2,0.5,4.7-0.2c1.1-0.5,1.9-1.3,2-2.6C232.3,187.8,232.3,186.7,232.3,185.7z M130.5,175.6c6.2-0.1,9.8,4.5,9.5,10.7
				c-0.1,2.2-0.7,4.2-2.1,5.9c-1.5,1.8-3.5,2.8-5.8,3.1c-2,0.2-3.9,0.1-5.7-0.7c-2.7-1.2-4.3-3.4-4.9-6.2c-0.4-2-0.4-3.9,0.1-5.9
				C122.6,178.1,125.9,175.6,130.5,175.6L130.5,175.6z M125.1,185.5c0.2,0.9,0.2,1.8,0.5,2.7c0.7,2.2,2.4,3.7,4.4,3.8
				c2.5,0.1,4.3-0.9,5.2-3.3c0.9-2.3,0.9-4.6-0.1-6.9c-1.5-3.3-5.5-4.2-8.1-1.7C125.6,181.6,125.3,183.5,125.1,185.5L125.1,185.5z
				 M152.1,175.6c5.6,0,9.4,3.8,9.5,9.4c0,2.4-0.4,4.6-1.7,6.6c-2,2.8-4.9,3.8-8.2,3.7c-1.2-0.1-2.5-0.3-3.6-0.8
				c-2.7-1-4.3-3.1-5-5.9c-0.6-2.4-0.6-4.8,0.2-7.2C144.5,177.8,147.8,175.6,152.1,175.6L152.1,175.6z M157.4,185
				c-0.1-0.5-0.2-1.5-0.4-2.4c-0.7-2.3-2.5-3.7-4.8-3.8c-2.1-0.1-4.1,1.2-4.9,3.4c-1,2.6-0.9,5.2,0.6,7.6c1.5,2.5,5,3.1,7.3,1.2
				C156.9,189.6,157.3,187.6,157.4,185L157.4,185z M192,181.3c-1.3,0-2.5,0-3.8,0c-0.2,0-0.4-0.2-0.4-0.3c-0.7-1.9-2.3-2.2-4-2.2
				c-0.7,0-1.5,0.2-2.1,0.4c-1.4,0.6-1.5,2.2-0.2,2.9c0.9,0.5,2,0.8,3,1.1c1.4,0.4,2.9,0.7,4.4,1.1c3.7,1.1,5.1,4.8,3.1,7.8
				c-1,1.5-2.5,2.2-4.2,2.7c-2.5,0.6-5,0.6-7.4-0.2c-2.6-0.9-4-2.8-4.2-5.7h4c1.1,3,4.3,4.1,7.3,2.6c0.7-0.4,1.2-0.8,1.2-1.7
				c0-0.9-0.3-1.6-1.1-1.9c-1.4-0.5-2.9-0.9-4.3-1.3c-1.2-0.3-2.4-0.6-3.6-1.1c-2.2-0.9-3.2-2.4-3.2-4.7c0-2,1.2-3.7,3.3-4.5
				c2.9-1,5.8-1.2,8.7,0c1.9,0.8,3.1,2.3,3.6,4.3C192,180.8,192,181,192,181.3z M170.3,176.1h3.7v3h-3.6c0,0.4-0.1,0.6-0.1,0.9
				c0,3,0,6.1,0,9.1c0,0.4,0,0.8,0.1,1.2c0.1,0.8,0.5,1.3,1.3,1.3c0.7,0,1.5,0,2.3,0v3c-1.7,0.4-3.4,0.4-5.1,0
				c-1.9-0.4-2.7-1.8-2.7-4.3c0-3.4,0-6.9,0-10.3v-1h-3.1v-3.1h3v-5.6h4.1C170.3,172.4,170.3,174.2,170.3,176.1L170.3,176.1z
				 M204.9,194.8c-1.6,0-3.1,0-4.6,0c-1.5-0.1-2.6-1-2.9-2.5c-0.2-0.8-0.3-1.7-0.3-2.5c0-3.2,0-6.4,0-9.7v-1H194v-3h3v-5.6h4.1v5.5
				h3.7v3h-3.5c0,0.3-0.1,0.5-0.1,0.7c0,3.3,0,6.6,0,9.8c0,1.7,0.5,2.2,2.2,2.1c0.5,0,0.9,0,1.4,0L204.9,194.8z M211.8,176.2v3.2
				c1.6-2.7,3.8-4.1,7.1-3.6v3.9c-1.5-0.2-3-0.3-4.4,0.7c-1.7,1.2-2.3,3.1-2.4,5.1c-0.1,3.1,0,6.2,0,9.4H208v-18.6
				C209.2,176.2,210.4,176.2,211.8,176.2z"/>
		</g>
	</g>
</g>
</svg>
