<?xml version="1.0" encoding="utf-8"?>
<!-- Generator: Adobe Illustrator 18.0.0, SVG Export Plug-In . SVG Version: 6.00 Build 0)  -->
<!DOCTYPE svg PUBLIC "-//W3C//DTD SVG 1.1//EN" "http://www.w3.org/Graphics/SVG/1.1/DTD/svg11.dtd">
<svg version="1.1" id="Layer_1" xmlns="http://www.w3.org/2000/svg" xmlns:xlink="http://www.w3.org/1999/xlink" x="0px" y="0px"
	 width="356.7px" height="245.8px" viewBox="1.6 663 356.7 245.8" enable-background="new 1.6 663 356.7 245.8"
	 xml:space="preserve">
<rect x="1.6" y="663" fill="#F6F8FC" width="356.7" height="245.8"/>
<g id="g16">
	<path id="path22" fill="#F3E705" d="M48,798.1L48,798.1c-3.1-3.1-5-7.4-5-12.2c0-4.8,1.9-9.1,5.1-12.2l0,0c2.6-2.6,2.6-6.9,0-9.6
		c-2.6-2.6-6.9-2.6-9.6,0c-5.6,5.6-9,13.3-9,21.8s3.4,16.2,9,21.8c2.6,2.6,6.9,2.6,9.6,0C50.6,805,50.6,800.7,48,798.1
		C48,798.1,48,798.1,48,798.1"/>
	<path id="path24" fill="#65BBE7" d="M48,773.7L48,773.7c3.1-3.1,7.4-5,12.2-5c4.8,0,9.1,1.9,12.2,5.1l0,0c2.6,2.6,6.9,2.6,9.6,0
		c2.6-2.6,2.6-6.9,0-9.6c-5.6-5.6-13.3-9-21.8-9c-8.5,0-16.2,3.4-21.8,9c-2.6,2.6-2.6,6.9,0,9.6C41.1,776.3,45.3,776.3,48,773.7
		C48,773.7,48,773.7,48,773.7"/>
	<path id="path26" fill="#F03E48" d="M72.4,798.1L72.4,798.1c-3.1,3.1-7.4,5-12.2,5c-4.8,0-9.1-1.9-12.2-5.1l0,0
		c-2.6-2.6-6.9-2.6-9.6,0c-2.6,2.6-2.6,6.9,0,9.6c5.6,5.6,13.3,9,21.8,9s16.2-3.4,21.8-9c2.6-2.6,2.6-6.9,0-9.6
		C79.3,795.4,75,795.4,72.4,798.1C72.4,798.1,72.4,798.1,72.4,798.1"/>
	<path id="path28" fill="#3781BE" d="M48,773.7c-2.6,2.6-6.9,2.6-9.6,0c-2.6-2.6-2.6-6.9,0-9.6c2.6-2.6,6.9-2.6,9.6,0
		C50.6,766.8,50.6,771,48,773.7"/>
	<path id="path30" fill="#D03634" d="M48,807.6c-2.6,2.6-6.9,2.6-9.6,0c-2.6-2.6-2.6-6.9,0-9.6c2.6-2.6,6.9-2.6,9.6,0
		C50.6,800.7,50.6,805,48,807.6"/>
	<path id="path32" fill="#282B34" d="M203.4,782.4h14.4c-0.5-3.6-3.5-5-6.9-5C207.4,777.4,204.4,779.1,203.4,782.4L203.4,782.4z
		 M132.9,777.9c4.4,0,7.3,3.8,7.3,8c0,4.4-2.7,7.9-7.3,7.9c-4.6,0-7.3-3.5-7.3-7.9C125.6,781.5,128.4,777.9,132.9,777.9z
		 M203.2,788.4c0.6,3.9,4.3,5.5,8,5.5c1.7,0,3.7-0.4,5.3-1.2c0.3-0.1,0.5-0.2,0.8-0.4c0.9-0.5,1.7-0.8,2.4,0
		c0.4,0.4,0.8,0.9,1.3,1.3c0.4,0.4,0.8,0.8,1.1,1.2c1.2,1.5,0.4,1.8-1,2.7c-2.9,1.9-6.6,2.9-10,2.9c-9.2,0-15.3-5.6-15.3-14.9
		c0-8.8,6.1-14.6,14.8-14.6c8.9,0,14.1,5.3,14.2,14.2c0,2.4,0.2,3.2-2.4,3.2H203.2L203.2,788.4z M132.9,771.3
		c-8.5,0-14.4,6.1-14.4,14.5c0,8.5,5.9,14.5,14.5,14.5c8.6,0,14.5-6,14.5-14.5C147.5,777.5,141.3,771.3,132.9,771.3z M233.8,775.4
		c2.5-2.4,5.3-3.9,8.9-3.9c7.8,0,11.9,6.4,11.9,13.7v12.3c0,1.3-1.1,2.3-2.3,2.3h-2.5c-1.3,0-2.3-1.1-2.3-2.3v-12.3
		c0-4.1-2.2-7.2-6.5-7.2c-4.2,0-6.9,3.6-6.9,7.5v11.9c0,1.3-1,2.3-2.3,2.3h-2.5c-1.3,0-2.3-1-2.3-2.3v-23.3c0-1.3,1-2.3,2.3-2.3h2.1
		c1.3,0,2.2,1.1,2.3,2.3L233.8,775.4z M156.5,775.4c2.5-2.4,5.3-3.9,8.9-3.9c7.8,0,11.9,6.4,11.9,13.7v12.3c0,1.3-1.1,2.3-2.3,2.3
		h-2.5c-1.3,0-2.3-1.1-2.3-2.3v-12.3c0-4.1-2.2-7.2-6.5-7.2c-4.2,0-6.9,3.6-6.9,7.5v11.9c0,1.3-1,2.3-2.3,2.3H152
		c-1.3,0-2.3-1-2.3-2.3c0-7.4,0-14.9,0-22.3v-1c0-1.3,1-2.3,2.3-2.3h2.1c1.3,0,2.2,1.1,2.3,2.3L156.5,775.4z M187.8,771.9h5.3
		c1.3,0,2.3,1,2.3,2.3v1.6c0,1.3-1,2.3-2.3,2.3h-5.3v11.7c0,2.3,1.1,3.6,3.4,3.6h1.1c1.3,0,2.3,1,2.3,2.3v1.6c0,1.3-1,2.3-2.3,2.3
		h-1.6c-6.3,0-10-2.7-10-9.8c0-7.6,0-15.2,0-22.7c0-1.3,1-2.3,2.3-2.3h2.5c1.3,0,2.3,1,2.3,2.3V771.9z M265,771.9h5.3
		c1.3,0,2.3,1,2.3,2.3v1.6c0,1.3-1,2.3-2.3,2.3H265v11.7c0,2.3,1.1,3.6,3.4,3.6h1.1c1.3,0,2.3,1,2.3,2.3v1.6c0,1.3-1,2.3-2.3,2.3
		h-2.1c-0.4,0-0.8,0-1.1,0c-5.8-0.4-8.4-4.1-8.4-9.8c0-7.6,0-15.2,0-22.7c0-1.3,1-2.3,2.3-2.3h2.5c1.3,0,2.3,1,2.3,2.3L265,771.9z
		 M282.5,772h4.9c1.3,0,2.3,1.1,2.3,2.4v1.6c0,1.3-1,2.4-2.3,2.4h-4.9v19.2c0,1.3-1.1,2.3-2.3,2.3h-2.5c-1.3,0-2.3-1.1-2.3-2.3V771
		c0-5.8,3.2-10.3,9.2-10.9c0.2,0,0.3,0,0.5,0c0.3,0,0.7,0,1,0h2.3c1.3,0,2.3,1.1,2.3,2.4v1.5c0,1.3-1,2.4-2.3,2.4l-1.7,0
		c-0.1,0-0.1,0-0.2,0c-2.8,0-4,2.2-4,4.7L282.5,772z M312.5,796.3c-2.7,2.6-5.3,3.9-9.2,3.9c-7.8,0-11.6-6.5-11.6-13.7v-12.3
		c0-1.3,1.1-2.3,2.3-2.3h2.5c1.3,0,2.3,1.1,2.3,2.3v12.3c0,4.1,2.2,7.2,6.5,7.2c4.2,0,6.9-3.6,6.9-7.6l0-4.4c0-0.2-0.1-0.3-0.1-0.5
		v-7c0-1.3,1.1-2.3,2.3-2.3h2.5c1.3,0,2.3,1.1,2.3,2.3v23.2c0,1.3-1,2.3-2.3,2.3H315c-1.3,0-2.2-1.1-2.3-2.3L312.5,796.3
		L312.5,796.3z M325.7,799.8c-1.3,0-2.3-1.1-2.3-2.3v-30.3c0-1.3,1.1-2.3,2.3-2.3h2.5c1.3,0,2.3,1.1,2.3,2.3v30.3
		c0,1.3-1.1,2.3-2.3,2.3H325.7z M112.2,792.2c1.9-1.5,2.2-0.6,3.9,1c0.8,0.8,3.1,2.2,1.6,3.5c-3.1,2.5-5.8,3.7-9.8,3.7
		c-8.9,0-15.2-6.6-14.7-15.4c0.2-4,1.7-7.7,4.8-10.3c2.8-2.4,6.3-3.4,10-3.4c1.9,0,3.5,0.3,5.3,1c1.1,0.4,2.2,1,3.2,1.7
		c2,1.5,1.1,2.4-0.5,3.9c-0.3,0.3-0.7,0.7-1,1c-0.8,0.8-1.3,1.3-2.4,0.6c-2-1.4-4.5-2.1-6.9-1.5c-7.7,2-7.3,15.7,2.1,15.7
		C109.3,793.8,110.9,793.2,112.2,792.2L112.2,792.2"/>
</g>
<rect x="29.4" y="755.1" fill="none" width="301.2" height="61.5"/>
</svg>
