<?xml version="1.0" encoding="utf-8"?>
<!-- Generator: Adobe Illustrator 18.0.0, SVG Export Plug-In . SVG Version: 6.00 Build 0)  -->
<!DOCTYPE svg PUBLIC "-//W3C//DTD SVG 1.1//EN" "http://www.w3.org/Graphics/SVG/1.1/DTD/svg11.dtd">
<svg version="1.1" id="Layer_1" xmlns="http://www.w3.org/2000/svg" xmlns:xlink="http://www.w3.org/1999/xlink" x="0px" y="0px"
	 width="356.7px" height="245.8px" viewBox="0 359 356.7 245.8" enable-background="new 0 359 356.7 245.8" xml:space="preserve">
<rect x="1.6" y="359.5" fill="#F6F8FC" width="356.7" height="245.8"/>
<path fill="#222222" d="M43,504.8v-30.9h38.6v-1.8H43V444h41v-1.8H41.2v64.4h43.1v-1.8L43,504.8L43,504.8z M119.1,460.2l-16,21
	l-15.6-21h-2.3l16.9,22.4l-18.6,24h2.2l17.4-22.6l17.5,22.6h2.3l-18.6-24l17-22.4L119.1,460.2L119.1,460.2z M128.3,522.5v-28.9h0.2
	c1.1,4.2,3.2,7.6,6.4,10.1s7.3,3.8,12.2,3.8c3.2,0,6-0.6,8.5-1.9c2.4-1.2,4.5-3.1,6.2-5.3c1.7-2.3,3-5,3.8-7.7
	c0.9-3,1.3-6.2,1.3-9.3c0-3.5-0.4-6.7-1.4-9.6c-0.8-2.8-2.2-5.4-3.9-7.7c-1.7-2.2-3.8-3.8-6.2-5c-2.6-1.2-5.4-1.8-8.2-1.8
	c-2.3,0-4.5,0.3-6.6,1c-1.9,0.6-3.8,1.6-5.4,2.9c-1.6,1.3-2.9,2.8-4.1,4.5s-2.1,3.6-2.6,5.6h-0.2v-13h-1.8v62.3L128.3,522.5
	L128.3,522.5z M147.1,505.9c-5.6,0-10.2-1.9-13.6-5.8c-3.4-3.9-5.1-9.5-5.1-16.7c0-3,0.4-5.8,1.2-8.6c0.9-2.7,2.1-5.1,3.7-7.1
	c1.6-2.1,3.6-3.7,5.9-4.9c2.5-1.2,5.2-1.8,8-1.8c3,0,5.6,0.6,7.9,1.8c2.2,1.2,4.1,2.9,5.6,4.9c1.5,2.2,2.7,4.5,3.4,7.1
	c0.8,2.8,1.1,5.6,1.1,8.6c0,2.7-0.3,5.4-1,8.1c-0.6,2.6-1.7,5-3.2,7.2c-1.5,2.1-3.4,3.9-5.6,5.3C153,505.2,150.2,505.9,147.1,505.9
	L147.1,505.9z M176.8,506.6v-26.3c0-2.5,0.4-5,1.1-7.4c0.7-2.3,1.8-4.5,3.4-6.3c1.6-1.9,3.5-3.4,5.7-4.3c2.3-1,5.1-1.5,8.2-1.3v-1.8
	c-2.8-0.1-5.2,0.3-7.3,0.9c-1.9,0.6-3.7,1.5-5.4,2.7c-1.5,1.1-2.7,2.5-3.6,4s-1.6,3.2-2,4.9h-0.2v-11.5H175v46.4H176.8L176.8,506.6z
	 M197.4,483.8h38.8c0.1-3.1-0.2-6.2-1-9.2c-0.7-2.8-1.9-5.5-3.6-7.9c-1.7-2.3-3.8-4.1-6.4-5.5c-2.6-1.4-5.7-2.1-9.4-2.1
	c-2.6,0-5.1,0.5-7.6,1.6s-4.7,2.7-6.5,4.8c-1.9,2.2-3.5,4.8-4.5,7.6c-1.1,3-1.7,6.4-1.7,10.3c0,3.4,0.4,6.6,1.2,9.6
	c0.7,2.8,1.9,5.4,3.6,7.7c1.6,2.2,3.7,3.9,6.3,5.1s5.6,1.8,9.3,1.7c5.3,0,9.7-1.5,13.4-4.4c3.6-3,5.7-7.2,6.4-12.6h-1.8
	c-0.8,5.1-2.8,8.9-6,11.5c-3.2,2.5-7.3,3.8-12.1,3.8c-3.3,0-6.1-0.6-8.4-1.7s-4.2-2.7-5.6-4.7c-1.5-2.1-2.6-4.5-3.2-7
	C197.9,489.6,197.5,486.7,197.4,483.8L197.4,483.8z M234.4,482h-37c0.2-3.2,0.8-6.2,1.8-8.8c0.9-2.4,2.3-4.7,4-6.6
	c1.6-1.8,3.6-3.2,5.8-4.2c2.2-1,4.7-1.5,7.1-1.5c3,0,5.7,0.5,8,1.7c2.2,1.1,4.2,2.6,5.7,4.5c1.6,2,2.8,4.3,3.5,6.7
	C234,476.5,234.4,479.2,234.4,482L234.4,482z M273.7,473.9h1.8c0-5.1-1.5-8.9-4.5-11.3c-3-2.3-7.1-3.5-12.3-3.5
	c-2.9,0-5.3,0.4-7.3,1.1c-1.8,0.6-3.5,1.6-4.9,2.8c-1.2,1.1-2.2,2.4-2.7,3.8c-0.5,1.4-0.8,2.7-0.8,4c0,2.5,0.4,4.5,1.4,6.1
	c0.9,1.5,2.3,2.7,4.2,3.5c1.5,0.6,3,1.2,4.5,1.6c1.7,0.5,3.6,1,5.8,1.5l5.8,1.5c1.9,0.5,3.6,1.1,5.1,1.9c1.4,0.8,2.7,1.8,3.6,3.1
	c0.9,1.2,1.4,2.9,1.4,5c0,2-0.5,3.7-1.4,5s-2.2,2.5-3.6,3.4c-1.5,0.9-3.1,1.5-4.8,1.9s-3.5,0.6-5.2,0.6c-5.5,0-9.7-1.2-12.6-3.7
	c-2.9-2.4-4.4-6.3-4.4-11.5h-1.8c0,5.8,1.6,10.1,4.8,12.8s7.9,4.1,14,4.1c2,0,4-0.2,6-0.7c1.9-0.4,3.7-1.1,5.4-2.2
	c1.6-1,2.9-2.4,3.9-4c1-1.6,1.5-3.6,1.5-6c0-2.2-0.4-4-1.3-5.4c-0.9-1.4-2.1-2.5-3.4-3.4c-1.5-0.9-3.1-1.6-4.8-2.1
	c-1.8-0.5-3.6-1-5.4-1.5c-2.5-0.6-4.8-1.2-6.7-1.7c-1.8-0.4-3.6-1-5.3-1.7c-1.5-0.6-2.8-1.6-3.7-2.9c-0.9-1.2-1.4-3-1.4-5.3
	c0-0.4,0.1-1.2,0.4-2.3s0.8-2.2,1.7-3.3s2.3-2.1,4.2-3s4.4-1.3,7.7-1.3c2.2,0,4.3,0.2,6.1,0.7c1.8,0.5,3.4,1.2,4.8,2.3
	c1.4,1.1,2.4,2.4,3.1,4C273.3,469.6,273.7,471.6,273.7,473.9L273.7,473.9z M315.4,473.9h1.8c0-5.1-1.5-8.9-4.5-11.3
	c-3-2.3-7.1-3.5-12.3-3.5c-2.9,0-5.3,0.4-7.3,1.1c-1.8,0.6-3.5,1.6-4.9,2.8c-1.2,1.1-2.2,2.4-2.7,3.8c-0.5,1.4-0.8,2.7-0.8,4
	c0,2.5,0.4,4.5,1.4,6.1c0.9,1.5,2.3,2.7,4.2,3.5c1.5,0.6,3,1.2,4.5,1.6c1.7,0.5,3.6,1,5.8,1.5l6,1.5c1.9,0.5,3.6,1.1,5.1,1.9
	c1.4,0.8,2.7,1.8,3.6,3.1c0.9,1.2,1.4,2.9,1.4,5c0,2-0.5,3.7-1.4,5c-0.9,1.4-2.2,2.5-3.6,3.4c-1.5,0.9-3.1,1.5-4.8,1.9
	c-1.7,0.4-3.5,0.6-5.2,0.6c-5.5,0-9.7-1.2-12.6-3.7c-2.9-2.4-4.4-6.3-4.4-11.5H283c0,5.8,1.6,10.1,4.8,12.8c3.2,2.7,7.9,4.1,14,4.1
	c2,0,4-0.2,6-0.7c1.9-0.4,3.7-1.1,5.4-2.2c1.6-1,2.9-2.4,3.9-4c1-1.6,1.5-3.6,1.5-6c0-2.2-0.4-4-1.3-5.4c-0.9-1.4-2.1-2.5-3.4-3.4
	c-1.5-0.9-3.1-1.6-4.8-2.1c-1.8-0.5-3.6-1-5.4-1.5c-2.5-0.6-4.8-1.2-6.7-1.7c-1.8-0.4-3.6-1-5.3-1.7c-1.5-0.6-2.8-1.6-3.7-2.9
	c-0.9-1.2-1.4-3-1.4-5.3c0-0.4,0.1-1.2,0.4-2.3c0.2-1.1,0.8-2.2,1.7-3.3s2.3-2.1,4.2-3c1.8-0.9,4.4-1.3,7.7-1.3
	c2.2,0,4.3,0.2,6.1,0.7c1.8,0.5,3.4,1.2,4.8,2.3c1.4,1.1,2.4,2.4,3.1,4C315.1,469.6,315.4,471.6,315.4,473.9L315.4,473.9z"/>
</svg>
