<?xml version="1.0" encoding="utf-8"?>
<!-- Generator: Adobe Illustrator 18.0.0, SVG Export Plug-In . SVG Version: 6.00 Build 0)  -->
<!DOCTYPE svg PUBLIC "-//W3C//DTD SVG 1.1//EN" "http://www.w3.org/Graphics/SVG/1.1/DTD/svg11.dtd">
<svg version="1.1" id="Layer_1" xmlns="http://www.w3.org/2000/svg" xmlns:xlink="http://www.w3.org/1999/xlink" x="0px" y="0px"
	 width="356.7px" height="245.8px" viewBox="0 0 356.7 245.8" enable-background="new 0 0 356.7 245.8" xml:space="preserve">
<g>
	<rect x="0.9" y="0" fill="#F6F8FC" width="356.7" height="245.8"/>
	<g>
		<g>
			<path fill="#606368" d="M62.1,90.9c1,0.2,2.1,0.4,3.1,0.7c7.5,2,12.6,6.7,15.1,14c0.2,0.5,0.6,1.1,1,1.4c5.1,4,7.2,10.7,5.3,16.8
				c-2,6.2-7.5,10.5-14.1,10.6c-8.3,0.1-16.7,0.1-25-0.1c-7-0.1-13.3-6-14.2-13c0-0.4-0.2-0.7-0.2-1.1c0-0.6,0-1.2,0-1.8
				c0.1-0.3,0.2-0.6,0.2-0.9c0.5-4.3,2.5-7.7,5.9-10.4c0.3-0.3,0.6-0.7,0.7-1.1c2.3-7.1,7.1-11.8,14.2-14.1c1.3-0.4,2.6-0.6,4-0.9
				C59.4,90.9,60.7,90.9,62.1,90.9z M72,113.2c0.2-7.5-4.2-11.3-9-12.6c-4.2-1.1-9.4,0.6-11.3,3.6c3.6,0.9,6.6,2.7,8.7,5.4
				c-2.3,2.3-4.5,4.5-6.7,6.8c-0.2-0.2-0.4-0.5-0.6-0.8c-2.3-3-6.9-3.1-9.2-0.1c-1.5,1.9-1.8,3.9-0.8,6.1c1,2.2,2.8,3.4,5.2,3.5
				c4.4,0.1,8.8,0.1,13.1,0.1c3.6,0,7.2,0,10.7,0c3.7-0.1,6.2-3.4,5.6-7C77.2,115.4,75.2,113.7,72,113.2z"/>
			<path fill="#606368" d="M185.5,136.6c-2.6-0.6-4.8-1.9-6.3-4.2c-0.3-0.5-0.6-1-0.9-1.6c1.3-0.5,2.5-1,3.6-1.5
				c2.4,3.3,4.7,4.2,7.4,3c2.3-1,3.3-3.6,2.7-6.6c-3.2,2.8-6.6,2.6-10,0.6c-3.4-2-5.2-6.1-4.5-10c0.8-4,3.2-6.8,7.2-7.9
				c2.5-0.7,4.8-0.2,6.8,1.5c0.1,0.1,0.2,0.2,0.4,0.3c0,0,0.1,0,0.2,0c0-0.4,0.1-0.8,0.1-1.3c1.3,0,2.6,0,3.9,0
				c0,0.3,0.1,0.7,0.1,1.1c0,5.7,0,11.5,0,17.2c0,4.8-2.7,8.1-7.4,9.2c-0.1,0-0.3,0.1-0.4,0.2C187.5,136.6,186.5,136.6,185.5,136.6z
				 M187.2,112.1c-3.1,0-5.5,2.6-5.5,5.9c0,3.3,2.5,5.9,5.6,5.9c3,0,5.2-2.5,5.2-5.9C192.5,114.6,190.3,112.1,187.2,112.1z"/>
			<path fill="#606368" d="M129.1,101.5c-1,1-2,1.9-3,2.9c-1.7-1.5-3.7-2.5-6.1-2.8c-5.7-0.7-11.1,3.3-12.1,9.1
				c-1,5.9,2.8,11.6,8.6,12.7c3.6,0.7,6.8-0.1,9.6-2.5c1.6-1.4,2.4-3.2,2.6-5.4c-3.3,0-6.5,0-9.8,0c0-1.4,0-2.7,0-4.1
				c4.6,0,9.2,0,13.8,0c1.2,5.6-1.1,11.3-5.7,14.1c-5.1,3.2-10.4,3.3-15.6,0.5c-5.3-2.9-8.2-7.4-8.1-13.6c0.1-6.3,3.3-10.7,8.7-13.4
				c5.4-2.7,10.8-2.2,15.7,1.4C128.2,100.6,128.6,101.1,129.1,101.5z"/>
			<path fill="#606368" d="M322.1,111.5c0-3.7,0-7.2,0-10.8c1.1,0,2.1,0,3.3,0c0,8.8,0,17.6,0,26.5c-1,0-2,0-3.1,0
				c0-0.7,0-1.5,0-2.4c-0.3,0.2-0.4,0.3-0.5,0.4c-3.1,3.4-8.3,3.6-11.6,0.3c-4-4-4-10.5-0.1-14.5c3.3-3.4,8.6-3.3,11.7,0.3
				C321.9,111.3,322,111.3,322.1,111.5z M322.2,118.1c0-3.8-2.4-6.5-5.6-6.6c-3.1-0.1-5.5,2.2-5.9,5.5c-0.5,3.6,1.4,6.9,4.4,7.5
				c0.7,0.2,1.5,0.2,2.3,0.1C320.3,124.2,322.2,121.6,322.2,118.1z"/>
			<path fill="#606368" d="M224,115.5c-4.5,1.8-8.8,3.6-13.2,5.4c0.6,1.6,1.8,2.5,3.3,2.9c2.3,0.6,4.2-0.2,6.3-2.5
				c1,0.7,2.1,1.4,3.1,2.1c-2,3.3-6.2,5.1-10.1,4.3c-3.9-0.8-7-4-7.6-7.8c-0.5-3,0-5.8,1.9-8.2c3.9-5,11.4-4.6,14.8,0.9
				C223.1,113.5,223.4,114.4,224,115.5z M218.7,114.1c-1.2-2-3.2-2.6-5.4-1.7c-2.2,0.9-3.7,3.2-3.2,5.3
				C213,116.5,215.8,115.3,218.7,114.1z"/>
			<path fill="#606368" d="M144.3,108.2c5.6,0,9.9,4.3,9.9,9.8c0,5.5-4.3,9.8-9.9,9.8c-5.6,0-9.8-4.2-9.8-9.7
				C134.5,112.5,138.7,108.2,144.3,108.2z M149.9,118c0-3.4-2.4-6-5.6-6c-3.1,0-5.6,2.6-5.6,5.8c0,3.4,2.5,6.1,5.6,6
				C147.4,123.9,149.9,121.3,149.9,118z"/>
			<path fill="#606368" d="M156,118c0-5.6,4.3-9.8,9.9-9.8c5.6,0,9.8,4.3,9.8,9.9c0,5.5-4.3,9.7-9.9,9.7
				C160.2,127.8,156,123.6,156,118z M171.4,118.1c0-3.4-2.4-6-5.5-6c-3.1,0-5.6,2.6-5.6,5.9c0,3.3,2.5,6,5.6,6
				C168.9,123.9,171.4,121.4,171.4,118.1z"/>
			<path fill="#606368" d="M253.8,106.5c-4.4-4.9-11.4-3.5-14.7-0.3c-3.9,4-4.1,10.8-0.4,15c3.1,3.6,10.5,5.4,16-0.4
				c0.7,0.7,1.5,1.5,2.2,2.2c-4,5.6-13.9,6.3-19.7,1.4c-6-5.1-6.3-15-0.6-20.6c5.5-5.4,14.8-5.2,19.5,0.4
				C255.4,105,254.7,105.7,253.8,106.5z"/>
			<path fill="#606368" d="M285.3,118.1c0,5.6-4,9.7-9.4,9.7c-5.4,0-9.4-4.1-9.4-9.7c0-5.5,4-9.7,9.4-9.7
				C281.3,108.5,285.3,112.5,285.3,118.1z M281.8,118.2c0-3-1.4-5.3-3.8-6.3c-2.2-0.9-4.7-0.4-6.3,1.3c-2.2,2.3-2.5,6.3-0.6,9
				c2.1,3,6.2,3.3,8.8,0.8C281.3,121.7,281.9,120,281.8,118.2z"/>
			<path fill="#606368" d="M300.8,109.1c1.2,0,2.2,0,3.3,0c0,6,0,12,0,18.1c-1.1,0-2.1,0-3.2,0c0-0.8,0-1.5,0-2.4
				c-0.3,0.3-0.5,0.5-0.7,0.6c-1.9,2.2-5,3.1-7.8,2.2c-2.6-0.9-4.4-3.3-4.4-6.3c-0.1-3.9,0-7.8,0-11.6c0-0.1,0-0.3,0.1-0.5
				c1.1,0,2.1,0,3.3,0c0,0.4,0,0.9,0,1.3c0,2.9,0,5.8,0,8.7c0,0.6,0,1.2,0.1,1.8c0.2,1.7,0.9,3.1,2.7,3.6c2,0.6,3.9,0.1,5.1-1.3
				c1.1-1.3,1.5-2.7,1.5-4.3c0-2.8,0-5.6,0-8.5C300.8,110,300.8,109.6,300.8,109.1z"/>
			<path fill="#606368" d="M199.4,98.5c1.4,0,2.7,0,4.1,0c0,9.6,0,19.1,0,28.7c-1.4,0-2.7,0-4.1,0
				C199.4,117.6,199.4,108.1,199.4,98.5z"/>
			<path fill="#606368" d="M260.2,100.6c1.1,0,2.1,0,3.2,0c0,8.8,0,17.6,0,26.5c-1.1,0-2.1,0-3.2,0
				C260.2,118.3,260.2,109.5,260.2,100.6z"/>
		</g>
		<path fill="#CB4539" d="M74.1,96.2l-6.5,6.7c0,0-8.6-6.5-16,1.3c0,0-5.6-1.7-12.1,2.3c0,0,3.3-14,19.6-15.9
			C59.2,90.7,66.7,90.3,74.1,96.2z"/>
		<path fill="#EBBB2D" d="M60.3,109.6l-6.7,6.8c0,0-4.1-6.4-9.8-1c0,0-4.1,4.8,2,9l-6.7,6.8c0,0-8.8-6-4.6-18.2c0,0,3.8-9,13.2-9.1
			C47.6,103.9,53.9,102.8,60.3,109.6z"/>
		<path fill="#67A759" d="M45.8,124.4c0,0,1,0.5,2.6,0.5h11.8l0.1,9.5l-12.9-0.1c0,0-4.4,0-8.4-3.1L45.8,124.4z"/>
		<path fill="#5C84F0" d="M67.6,102.9l6.5-6.7c0,0,3.9,2.7,6.2,9.4c0,0,0.2,0.9,1.5,1.8c0,0,6.2,4.5,5.5,12.9c0,0-0.2,9.3-9.8,13.1
			c0,0-2.3,0.8-3.6,0.8l-13.6,0.1l-0.1-9.5l12.8,0c0,0,6-1.1,4.6-7.5c0,0-0.6-3.5-5.6-4.3C72,113.2,72.8,107,67.6,102.9z"/>
	</g>
</g>
</svg>
