<?xml version="1.0" encoding="utf-8"?>
<!-- Generator: Adobe Illustrator 18.0.0, SVG Export Plug-In . SVG Version: 6.00 Build 0)  -->
<!DOCTYPE svg PUBLIC "-//W3C//DTD SVG 1.1//EN" "http://www.w3.org/Graphics/SVG/1.1/DTD/svg11.dtd">
<svg version="1.1" id="Layer_1" xmlns="http://www.w3.org/2000/svg" xmlns:xlink="http://www.w3.org/1999/xlink" x="0px" y="0px"
	 width="356.7px" height="245.8px" viewBox="0 0 356.7 245.8" enable-background="new 0 0 356.7 245.8" xml:space="preserve">
<g>
	<rect x="0" fill="#F6F8FC" width="356.7" height="245.8"/>
	<g>
		<path fill="#C84634" d="M57.8,88.1c0.2,0,0.3,0.1,0.5,0.1c0.8,0.1,1.4,0.5,1.8,1.2c0.7,1.2,1.5,2.4,2.2,3.7
			c7,11.7,14,23.4,21.1,35c0.6,1,1.2,1.9,1.8,3c10.2-2.4,20.4-4.8,30.7-7.3c-0.2-0.3-0.3-0.5-0.4-0.7c-3.2-4.5-6.4-9.1-9.6-13.6
			c-0.1-0.2-0.3-0.4-0.4-0.5c-0.2-0.5-0.1-0.8,0.3-1.1c0.3-0.2,0.7-0.3,1.1-0.4c1.6-0.3,3.2-0.6,4.8-0.8c3.3-0.6,6.7-1.2,10-1.7
			c0.7-0.1,1.4,0,1.9,0.4c0.4,0.3,0.8,0.7,1.1,1.1c2.1,2.6,4.2,5.2,6.3,7.8c1.6,2,3.3,4.1,5,6.1c0.1,0.1,0.2,0.3,0.3,0.4
			c0.2,0.4,0.1,0.7-0.1,1c-0.3,0.3-0.7,0.5-1.1,0.6c-3.9,1-7.7,2.1-11.6,3.1c-0.6,0.1-1.1,0.3-1.7,0.5c-0.1,0-0.2,0.1-0.3,0.2
			c0.1,0.2,0.2,0.4,0.4,0.5c3,4,6.1,8,9.1,12c1,1.3,2,2.7,2.9,4c0.1,0.2,0.2,0.4,0.3,0.6c0.3,0.5,0.2,0.9-0.3,1.2
			c-0.3,0.2-0.7,0.4-1,0.6c-1.8,0.7-3.7,1.4-5.5,2c-8.4,3-16.8,6-25.2,9c-1.2,0.4-2.4,0.8-3.7,1.2c-0.2,0.1-0.4,0.1-0.6,0.2
			c-1.1,0.2-2.1,0-2.8-0.9c-0.4-0.5-0.8-1-1.1-1.5c-2.1-3.6-4.3-7.2-6.4-10.9c-1.5-2.6-3-5.3-4.4-8c-0.1-0.1-0.2-0.3-0.3-0.4
			c-0.7,0.2-1.4,0.4-2.1,0.5c-6.3,1.6-12.6,3.2-18.9,4.8c-0.8,0.2-1.5,0.3-2.3,0.1c-1-0.2-1.8-0.7-2.3-1.6c-0.5-0.8-0.8-1.6-1.2-2.4
			c-3-6.4-5.9-12.7-8.8-19.1c-3.5-7.7-7-15.3-10.6-23c-0.4-0.9-0.8-1.9-1.1-2.8c-0.1-0.4-0.1-0.8-0.1-1.2c0-0.6,0.4-1,1-1.2
			c0.2,0,0.3-0.1,0.5-0.1c2.8-0.2,5.6-0.5,8.4-0.7c2.6-0.2,5.2-0.4,7.8-0.6c1.1-0.1,2.2-0.2,3.3-0.3c0.2,0,0.3-0.1,0.4-0.1
			C57.1,88.1,57.5,88.1,57.8,88.1z M56.7,91.1C56.7,91.1,56.7,91.1,56.7,91.1c-1.2,0.1-2.5,0.2-3.7,0.3c-2.2,0.2-4.3,0.4-6.5,0.5
			c-2,0.2-4,0.3-6,0.5c-0.5,0-0.6,0.2-0.5,0.7c0.1,0.3,0.2,0.6,0.4,0.9c3.9,8.2,7.9,16.4,11.9,24.5c2.6,5.4,5.3,10.9,8,16.3
			c0.2,0.4,0.4,0.7,0.6,1c0.2,0.4,0.6,0.5,1,0.4c0.9-0.2,1.8-0.3,2.7-0.6c5.2-1.2,10.3-2.5,15.5-3.7c1-0.2,1-0.6,0.6-1.4
			c-1.5-2.5-3-5.1-4.4-7.7C70,112.5,64,102,57.9,91.5c-0.2-0.4-0.4-0.5-0.9-0.5C56.9,91.1,56.8,91.1,56.7,91.1z M87,134.5
			c0.4,0.6,0.7,1.2,1,1.7c3,5.1,6,10.2,9,15.3c0.6,1,0.8,1,1.9,0.7c9.7-3.3,19.4-6.7,29.2-10c0.1-0.1,0.3-0.1,0.4-0.2
			c0.5-0.2,0.5-0.4,0.3-0.9c-0.1-0.2-0.2-0.4-0.4-0.5c-3.3-4.5-6.6-9.1-9.9-13.6c-0.4-0.5-0.5-0.6-1.1-0.4c-1.1,0.3-2.1,0.6-3.2,0.8
			c-8.5,2.2-17.1,4.4-25.6,6.6C88.1,134.2,87.6,134.3,87,134.5z M119.1,122.8c0.2,0,0.3-0.1,0.4-0.1c0.5-0.1,1.1-0.3,1.6-0.4
			c3.1-0.8,6.1-1.6,9.2-2.3c0.3-0.1,0.5-0.1,0.8-0.1c0.5-0.1,0.6-0.4,0.3-0.8c0,0-0.1-0.1-0.1-0.1c-2.8-3.6-5.6-7.2-8.4-10.8
			c-0.4-0.6-0.9-0.7-1.5-0.6c-2.9,0.6-5.9,1.2-8.8,1.7c-0.8,0.1-1.6,0.2-2.3,0.4c-0.5,0.1-0.6,0.3-0.4,0.7c0.1,0.2,0.2,0.4,0.3,0.6
			c2.7,3.7,5.4,7.4,8.2,11.1c0.2,0.2,0.3,0.5,0.5,0.7C118.9,122.7,119,122.7,119.1,122.8z"/>
		<path fill="#C84634" d="M203,137.1c-0.2,0.2-0.4,0.4-0.6,0.6c-1.6,1.8-3.6,3-5.9,3.5c-1,0.2-2,0.3-3,0.1c-1.6-0.3-3.2-0.9-4.5-1.9
			c-1.5-1.1-2.2-2.6-2.4-4.5c-0.2-2,0.2-3.8,1.4-5.4c1-1.3,2.3-2.1,3.9-2.5c0.8-0.3,1.7-0.4,2.6-0.6c1.9-0.3,3.9-0.5,5.8-0.7
			c0.8-0.1,1.4-0.4,2-0.9c0.3-0.3,0.5-0.7,0.5-1.1c0.1-0.9,0.1-1.8-0.1-2.7c-0.2-0.8-0.7-1.4-1.3-2c-1.7-1.4-3.7-1.6-5.8-1.4
			c-0.7,0.1-1.4,0.3-2,0.5c-1.2,0.4-2,1.2-2.6,2.3c-0.2,0.5-0.6,0.6-1.1,0.6c-0.1,0-0.2,0-0.3-0.1c-0.4-0.3-0.9-0.6-1.3-0.9
			c-0.1-0.1-0.3-0.2-0.4-0.4c-0.2-0.2-0.2-0.5,0-0.8c1-1.5,2.2-2.8,3.9-3.6c3.3-1.6,6.6-1.8,10-0.4c2.9,1.2,4.4,3.6,4.8,6.6
			c0.1,0.5,0.1,1.1,0.1,1.6c0,5.4,0,10.8,0,16.2c0,0.2,0,0.3,0,0.5c0,0.5-0.3,0.8-0.8,0.8c-0.6,0-1.1,0-1.7,0
			c-0.6,0-0.9-0.3-0.9-0.9c0-0.7,0-1.4,0-2.1c0-0.2,0-0.4,0-0.6C203.1,137.1,203,137.1,203,137.1z M202.8,128.4c-0.2,0-0.4,0-0.6,0
			c-1,0.2-2,0.3-3.1,0.5c-1.3,0.2-2.7,0.4-4,0.5c-1.1,0.1-2.2,0.3-3.2,0.8c-1.7,0.9-2.4,2.6-2,4.6c0.4,1.8,1.7,2.8,3.4,3.1
			c2.1,0.4,4.1,0.2,5.9-1c1.2-0.8,2.1-1.9,2.7-3.1C202.9,132.1,203,130.3,202.8,128.4z"/>
		<path fill="#C84634" d="M250,137.1c-0.2,0.2-0.4,0.4-0.5,0.6c-1.7,2-3.9,3.2-6.5,3.7c-1,0.2-2,0.1-3-0.1c-1.4-0.3-2.6-0.8-3.8-1.7
			c-2-1.5-2.8-3.6-2.6-6c0.2-3.4,2.2-5.5,5.3-6.5c0.9-0.3,1.8-0.4,2.8-0.6c2-0.3,4.1-0.5,6.1-0.7c1.1-0.1,2.2-1.2,2.2-2.4
			c0-0.7,0-1.5-0.1-2.2c-0.1-0.8-0.6-1.5-1.3-2c-2.5-1.9-5.2-1.8-7.9-0.8c-1.1,0.4-1.9,1.2-2.5,2.3c-0.3,0.5-0.6,0.6-1.1,0.6
			c-0.1,0-0.2,0-0.3-0.1c-0.4-0.3-0.8-0.5-1.2-0.8c-0.1-0.1-0.2-0.2-0.4-0.3c-0.3-0.3-0.3-0.5,0-0.9c1.4-2.1,3.2-3.5,5.5-4.3
			c2.8-0.8,5.5-0.8,8.2,0.3c3,1.3,4.5,3.7,4.8,6.9c0.1,1.2,0,2.5,0,3.7c0,4.6,0,9.2,0,13.9c0,0.2,0,0.4,0,0.6c0,0.4-0.3,0.7-0.7,0.7
			c-0.7,0-1.3,0-2,0c-0.5,0-0.7-0.4-0.7-0.9c0-0.7,0-1.3,0-2c0-0.2,0-0.4,0-0.6C250.1,137.1,250.1,137.1,250,137.1z M249.8,128.4
			c-0.2,0-0.3,0-0.5,0c-1,0.2-2.1,0.3-3.1,0.5c-1.3,0.2-2.6,0.4-4,0.4c-1.1,0.1-2.2,0.3-3.2,0.8c-1.8,1-2.5,2.8-2,4.6
			c0.4,1.8,1.8,2.7,3.5,3.1c1.3,0.3,2.6,0.2,3.9-0.2c3-0.9,4.6-3.1,5.3-5.9c0.3-1.1,0.1-2.2,0.1-3.3
			C249.9,128.5,249.8,128.5,249.8,128.4z"/>
		<path fill="#C84634" d="M287.5,128.6c0,1,0,2,0,2.9c0,0.4,0.1,0.9,0.2,1.3c0.6,2.2,2.1,3.6,4.3,4.1c0.6,0.2,1.3,0.2,2,0.2
			c2.1,0,4.2,0,6.3,0c0.8,0,1,0.2,1,1c0,0.5,0,1,0,1.5c0,0.5-0.3,0.8-0.8,0.8c-0.2,0-0.3,0-0.5,0c-2.4,0-4.7,0-7.1,0
			c-1.2,0-2.3-0.3-3.3-0.9c-0.9-0.5-1.7-1.1-2.5-1.8c-0.7-0.5-1.1-1.2-1.5-2c-0.3-0.6-0.6-1.1-0.9-1.7c-0.4-1-0.6-2.1-0.6-3.1
			c0-2.5-0.1-5,0-7.5c0.2-4,2.1-7,5.7-8.9c1.3-0.7,2.7-0.8,4.2-0.7c1.7,0,3.2,0.4,4.7,1.1c1.5,0.8,2.8,2,3.6,3.6
			c0.3,0.5,0.6,1,0.8,1.5c0.4,0.9,0.6,1.9,0.6,2.9c0,1.3,0,2.5,0,3.8c0,0.6-0.3,1.1-0.6,1.5c-0.1,0.2-0.4,0.2-0.6,0.3
			c-0.2,0-0.5,0-0.7,0c-4.5,0-9,0-13.6,0C288.1,128.6,287.8,128.6,287.5,128.6z M300.5,125.6c0-1.1,0.1-2.2-0.1-3.2
			c-0.5-2.3-1.7-3.9-3.9-4.6c-1-0.3-2-0.4-3.1-0.3c-2.5,0.3-4.5,1.5-5.3,4c-0.4,1.3-0.4,2.7-0.3,4c0,0,0,0.1,0.1,0.1
			C292,125.6,296.2,125.6,300.5,125.6z"/>
		<path fill="#C84634" d="M216.8,137.3c0-6.5,0-13,0-19.5c-0.2,0-0.4,0-0.6,0c-1,0-1.9,0-2.9,0c-0.7,0-1-0.3-1-1c0-0.5,0-1,0-1.5
			c0-0.6,0.3-0.9,0.9-0.9c1.8,0,3.7,0,5.5,0c1,0,1.8,0.7,1.8,1.8c0,0.5,0,1,0,1.5c0,0.2,0,0.4,0.1,0.7c0.3-0.2,0.4-0.3,0.6-0.4
			c1.1-0.8,2.2-1.6,3.2-2.4c1-0.7,2-1.2,3.2-1.4c0.7-0.1,1.4-0.1,2.1-0.1c0.3,0,0.6,0.3,0.6,0.7c0,0.8,0,1.5,0,2.3
			c0,0.4-0.3,0.7-0.9,0.7c-0.6,0-1.2,0-1.8,0.1c-1,0.2-1.9,0.6-2.8,1.2c-1.4,1.1-2.7,2.2-4.1,3.3c-0.2,0.2-0.3,0.4-0.3,0.6
			c0,0.1,0,0.2,0,0.3c0,4.4,0,8.8,0,13.3c0,0.2,0,0.5,0,0.8c0.3,0,0.5,0,0.7,0c1.4,0,2.9,0,4.3,0c0.7,0,1.1,0.4,1,1c0,0.5,0,1,0,1.5
			c0,0.7-0.3,0.9-0.9,0.9c-1,0-1.9,0-2.9,0c-3,0-6.1,0-9.1,0c-0.2,0-0.3,0-0.5,0c-0.6,0-0.9-0.3-0.9-0.9c0-0.6,0-1.2,0-1.7
			c0-0.5,0.3-0.8,0.8-0.8c1,0,2,0,3,0C216.3,137.3,216.5,137.3,216.8,137.3z"/>
		<path fill="#C84634" d="M170.2,137.3c0.3,0,0.6,0,0.8,0c3.4,0,6.9,0,10.3,0c0.2,0,0.4,0,0.5,0c0.4,0,0.7,0.3,0.7,0.7
			c0,0.7,0,1.4,0,2.1c0,0.4-0.3,0.7-0.7,0.8c-0.1,0-0.2,0-0.3,0c-4.3,0-8.7,0-13,0c-0.7,0-1.3-0.3-1.7-0.8c-0.3-0.3-0.5-0.7-0.5-1.2
			c0-0.5,0-1,0-1.4c0-9.3,0-18.5,0-27.8c0-1,0.2-1.4,1.3-1.3c0.6,0,1.2,0,1.7,0c0.6,0,0.9,0.3,0.9,0.9c0,0.2,0,0.4,0,0.6
			c0,8.8,0,17.6,0,26.4C170.2,136.7,170.2,136.9,170.2,137.3z"/>
		<path fill="#C84634" d="M269.4,136.1c0.1-0.2,0.1-0.3,0.2-0.5c2.3-6.7,4.5-13.3,6.8-20c0.1-0.2,0.1-0.3,0.2-0.5
			c0.2-0.4,0.5-0.6,1-0.6c0.6,0,1.2,0,1.8,0c0.4,0,0.6,0.4,0.5,0.8c-0.5,1.4-1.1,2.9-1.6,4.3c-2.4,6.7-4.7,13.4-7.1,20.1
			c-0.3,0.7-0.5,0.9-1.3,0.9c-0.7,0-1.3,0-2,0c-0.4,0-0.6-0.2-0.7-0.5c-0.5-1.6-1.1-3.1-1.6-4.7c-2.3-6.5-4.5-12.9-6.8-19.4
			c-0.1-0.2-0.2-0.5-0.2-0.7c-0.1-0.5,0.2-0.9,0.7-0.9c0.6,0,1.3,0,1.9,0c0.4,0,0.6,0.2,0.8,0.6c0.4,1.3,0.8,2.6,1.3,3.8
			c1.9,5.5,3.9,11.1,5.8,16.6c0.1,0.2,0.1,0.4,0.2,0.5C269.3,136.1,269.3,136.1,269.4,136.1z"/>
		<path fill="#C84634" d="M315.8,137.3c0.3,0,0.5,0,0.7,0c1.3,0,2.6,0,3.9,0c0.7,0,1,0.3,1,1c0,0.5,0,1,0,1.5c0,0.6-0.3,0.9-0.9,0.9
			c-2.2,0-4.4,0-6.5,0c-1.1,0-1.7-0.7-1.8-1.7c0-0.8,0-1.5,0-2.3c0-8.9,0-17.9,0-26.8c0-0.3,0-0.6,0-0.9c-0.2,0-0.4,0-0.6,0
			c-0.8,0-1.6,0-2.4,0c-2.2,0-2.1,0-2.1-2.1c0-0.2,0-0.3,0-0.5c0-0.5,0.3-0.8,0.8-0.8c2.1,0,4.1,0,6.2,0c1,0,1.7,0.7,1.7,1.8
			c0,0.3,0,0.6,0,0.9c0,9.4,0,18.8,0,28.2C315.8,136.7,315.8,136.9,315.8,137.3z"/>
	</g>
</g>
</svg>
