<?xml version="1.0" encoding="utf-8"?>
<!-- Generator: Adobe Illustrator 18.0.0, SVG Export Plug-In . SVG Version: 6.00 Build 0)  -->
<!DOCTYPE svg PUBLIC "-//W3C//DTD SVG 1.1//EN" "http://www.w3.org/Graphics/SVG/1.1/DTD/svg11.dtd">
<svg version="1.1" id="Layer_1" xmlns="http://www.w3.org/2000/svg" xmlns:xlink="http://www.w3.org/1999/xlink" x="0px" y="0px"
	 width="356.7px" height="245.8px" viewBox="837.5 359.7 356.7 245.8" enable-background="new 837.5 359.7 356.7 245.8"
	 xml:space="preserve">
<rect x="837.5" y="359.7" fill="#F6F8FC" width="356.7" height="245.8"/>
<g>
	<path fill="#689F63" d="M1014.5,553.5c-0.8,0-1.5-0.2-2.2-0.6l-7-4.1c-1-0.6-0.5-0.8-0.2-0.9c1.4-0.5,1.7-0.6,3.2-1.4
		c0.2-0.1,0.4-0.1,0.5,0l5.4,3.2c0.2,0.1,0.5,0.1,0.6,0l20.9-12.1c0.2-0.1,0.3-0.3,0.3-0.6v-24.1c0-0.2-0.1-0.5-0.3-0.6l-20.9-12.1
		c-0.2-0.1-0.5-0.1-0.6,0l-20.9,12.1c-0.2,0.1-0.3,0.3-0.3,0.6V537c0,0.2,0.1,0.5,0.3,0.6l5.7,3.3c3.1,1.6,5-0.3,5-2.1v-23.8
		c0-0.3,0.3-0.6,0.6-0.6h2.6c0.3,0,0.6,0.3,0.6,0.6v23.8c0,4.1-2.3,6.5-6.2,6.5c-1.2,0-2.2,0-4.8-1.3l-5.5-3.2
		c-1.4-0.8-2.2-2.3-2.2-3.8v-24.1c0-1.6,0.8-3,2.2-3.8l20.9-12.1c1.3-0.7,3.1-0.7,4.4,0l20.9,12.1c1.4,0.8,2.2,2.2,2.2,3.8V537
		c0,1.6-0.8,3-2.2,3.8l-20.9,12.1C1016,553.3,1015.3,553.5,1014.5,553.5"/>
	<path fill="#689F63" d="M1020.9,536.9c-9.2,0-11.1-4.2-11.1-7.7c0-0.3,0.3-0.6,0.6-0.6h2.7c0.3,0,0.5,0.2,0.6,0.5
		c0.4,2.8,1.6,4.1,7.2,4.1c4.4,0,6.3-1,6.3-3.3c0-1.3-0.5-2.3-7.4-3c-5.7-0.6-9.3-1.8-9.3-6.4c0-4.2,3.6-6.7,9.5-6.7
		c6.7,0,10,2.3,10.4,7.3c0,0.2,0,0.3-0.2,0.5c-0.1,0.1-0.3,0.2-0.4,0.2h-2.7c-0.3,0-0.5-0.2-0.6-0.5c-0.7-2.9-2.2-3.8-6.5-3.8
		c-4.8,0-5.4,1.7-5.4,2.9c0,1.5,0.7,2,7.2,2.8c6.4,0.9,9.5,2.1,9.5,6.6C1031.3,534.3,1027.5,536.9,1020.9,536.9 M1046.4,511.3h0.7
		c0.6,0,0.7-0.4,0.7-0.6c0-0.6-0.4-0.6-0.7-0.6h-0.7L1046.4,511.3z M1045.5,509.3h1.6c0.5,0,1.6,0,1.6,1.2c0,0.8-0.5,1-0.9,1.1
		c0.6,0,0.7,0.5,0.7,1c0,0.4,0.1,1,0.2,1.2h-1c0-0.2-0.2-1.4-0.2-1.4c-0.1-0.3-0.2-0.4-0.5-0.4h-0.8v1.8h-0.9V509.3z M1043.7,511.6
		c0,1.9,1.5,3.4,3.4,3.4c1.9,0,3.4-1.6,3.4-3.4c0-1.9-1.5-3.4-3.4-3.4C1045.2,508.2,1043.7,509.7,1043.7,511.6 M1051.1,511.6
		c0,2.2-1.8,4-4,4c-2.2,0-4-1.8-4-4c0-2.3,1.9-4,4-4C1049.2,507.5,1051.1,509.3,1051.1,511.6"/>
	<path fill="#404137" d="M949.7,459c0-1-0.5-1.8-1.3-2.3L926.2,444c-0.4-0.2-0.8-0.3-1.2-0.4h-0.2c-0.4,0-0.8,0.1-1.2,0.4
		l-22.2,12.8c-0.8,0.5-1.3,1.4-1.3,2.3l0,34.4c0,0.5,0.2,0.9,0.7,1.2c0.4,0.3,0.9,0.3,1.3,0l13.2-7.6c0.8-0.5,1.3-1.4,1.3-2.3v-16.1
		c0-1,0.5-1.8,1.3-2.3l5.6-3.2c0.4-0.2,0.9-0.4,1.3-0.4c0.5,0,0.9,0.1,1.3,0.4l5.6,3.2c0.8,0.5,1.3,1.4,1.3,2.3v16.1
		c0,1,0.5,1.8,1.3,2.3l13.2,7.5c0.4,0.2,0.9,0.2,1.3,0c0.4-0.2,0.7-0.7,0.7-1.2L949.7,459z M1054.4,476.9c0,0.2-0.1,0.5-0.3,0.6
		l-7.6,4.4c-0.2,0.1-0.5,0.1-0.7,0l-7.6-4.4c-0.2-0.1-0.3-0.3-0.3-0.6v-8.8c0-0.2,0.1-0.5,0.3-0.6l7.6-4.4c0.2-0.1,0.5-0.1,0.7,0
		l7.6,4.4c0.2,0.1,0.3,0.3,0.3,0.6L1054.4,476.9z M1056.4,411.8c-0.4-0.2-0.9-0.2-1.3,0c-0.4,0.2-0.7,0.7-0.7,1.2v34
		c0,0.3-0.2,0.6-0.5,0.8c-0.3,0.2-0.6,0.2-0.9,0l-5.6-3.2c-0.8-0.5-1.8-0.5-2.7,0l-22.2,12.8c-0.8,0.5-1.3,1.4-1.3,2.3v25.6
		c0,1,0.5,1.8,1.3,2.3l22.2,12.8c0.8,0.5,1.8,0.5,2.7,0l22.2-12.8c0.8-0.5,1.3-1.4,1.3-2.3v-63.8c0-1-0.5-1.9-1.4-2.3L1056.4,411.8z
		 M1130.3,467.9c0.8-0.5,1.3-1.4,1.3-2.3v-6.2c0-1-0.5-1.8-1.3-2.3l-22-12.8c-0.8-0.5-1.9-0.5-2.7,0l-22.2,12.8
		c-0.8,0.5-1.3,1.4-1.3,2.3V485c0,1,0.5,1.9,1.4,2.3l22,12.6c0.8,0.5,1.8,0.5,2.6,0l13.3-7.4c0.4-0.2,0.7-0.7,0.7-1.2
		s-0.3-0.9-0.7-1.2l-22.3-12.8c-0.4-0.2-0.7-0.7-0.7-1.2v-8c0-0.5,0.3-0.9,0.7-1.2l6.9-4c0.4-0.2,0.9-0.2,1.3,0l6.9,4
		c0.4,0.2,0.7,0.7,0.7,1.2v6.3c0,0.5,0.3,0.9,0.7,1.2c0.4,0.2,0.9,0.2,1.3,0L1130.3,467.9z"/>
	<path fill="#689F63" d="M1106.6,466.7c0.2-0.1,0.4-0.1,0.5,0l4.3,2.5c0.2,0.1,0.3,0.3,0.3,0.4v4.9c0,0.2-0.1,0.4-0.3,0.4l-4.3,2.5
		c-0.2,0.1-0.4,0.1-0.5,0l-4.3-2.5c-0.2-0.1-0.3-0.3-0.3-0.4v-4.9c0-0.2,0.1-0.4,0.3-0.4L1106.6,466.7z"/>
	<g>
		<defs>
			<path id="SVGID_3_" d="M984.1,444.4l-22.1,12.7c-0.8,0.5-1.3,1.4-1.3,2.3v25.5c0,1,0.5,1.8,1.3,2.3l22.1,12.7
				c0.8,0.5,1.8,0.5,2.7,0l22.1-12.7c0.8-0.5,1.3-1.4,1.3-2.3v-25.5c0-1-0.5-1.8-1.3-2.3l-22.1-12.7c-0.4-0.2-0.9-0.4-1.3-0.4
				C985,444,984.6,444.2,984.1,444.4"/>
		</defs>
		<clipPath id="SVGID_2_">
			<use xlink:href="#SVGID_3_"  overflow="visible"/>
		</clipPath>
		
			<linearGradient id="SVGID_4_" gradientUnits="userSpaceOnUse" x1="-72.7689" y1="-133.0916" x2="-72.3761" y2="-133.0916" gradientTransform="matrix(-81.162 165.5699 -165.5699 -81.162 -26940.6113 1686.0885)">
			<stop  offset="0" style="stop-color:#3E863D"/>
			<stop  offset="0.3" style="stop-color:#3E863D"/>
			<stop  offset="0.5" style="stop-color:#55934F"/>
			<stop  offset="0.8" style="stop-color:#5AAD45"/>
			<stop  offset="1" style="stop-color:#5AAD45"/>
		</linearGradient>
		<polygon clip-path="url(#SVGID_2_)" fill="url(#SVGID_4_)" points="1032.5,455 970.3,424.5 938.5,489.5 1000.6,520 		"/>
	</g>
	<g>
		<defs>
			<path id="SVGID_6_" d="M961.3,486.5c0.2,0.3,0.5,0.5,0.8,0.7l18.9,10.9l3.2,1.8c0.5,0.3,1,0.4,1.5,0.3c0.2,0,0.4,0,0.5-0.1
				l23.3-42.6c-0.2-0.2-0.4-0.4-0.6-0.5l-14.4-8.3l-7.6-4.4c-0.2-0.1-0.5-0.2-0.7-0.3L961.3,486.5z"/>
		</defs>
		<clipPath id="SVGID_5_">
			<use xlink:href="#SVGID_6_"  overflow="visible"/>
		</clipPath>
		
			<linearGradient id="SVGID_7_" gradientUnits="userSpaceOnUse" x1="-70.2743" y1="-123.4941" x2="-69.8816" y2="-123.4941" gradientTransform="matrix(147.809 -109.2133 109.2133 147.809 24830.7383 11072.3398)">
			<stop  offset="0" style="stop-color:#3E863D"/>
			<stop  offset="0.57" style="stop-color:#3E863D"/>
			<stop  offset="0.72" style="stop-color:#619857"/>
			<stop  offset="1" style="stop-color:#76AC64"/>
		</linearGradient>
		<polygon clip-path="url(#SVGID_5_)" fill="url(#SVGID_7_)" points="934.4,464 978.3,523.4 1036.4,480.5 992.5,421.1 		"/>
	</g>
	<g>
		<defs>
			<path id="SVGID_9_" d="M985.2,444.1c-0.4,0-0.7,0.2-1.1,0.3l-22,12.7l23.7,43.2c0.3,0,0.7-0.2,0.9-0.3l22.1-12.7
				c0.7-0.4,1.1-1.1,1.3-1.8L986,444.1c-0.2,0-0.4-0.1-0.5-0.1C985.4,444,985.3,444.1,985.2,444.1"/>
		</defs>
		<clipPath id="SVGID_8_">
			<use xlink:href="#SVGID_9_"  overflow="visible"/>
		</clipPath>
		
			<linearGradient id="SVGID_10_" gradientUnits="userSpaceOnUse" x1="-65.7555" y1="-124.7179" x2="-65.3627" y2="-124.7179" gradientTransform="matrix(122.2438 0 0 122.2438 9000.3418 15718.1689)">
			<stop  offset="0" style="stop-color:#6BBF47"/>
			<stop  offset="0.16" style="stop-color:#6BBF47"/>
			<stop  offset="0.38" style="stop-color:#79B461"/>
			<stop  offset="0.47" style="stop-color:#75AC64"/>
			<stop  offset="0.7" style="stop-color:#659E5A"/>
			<stop  offset="0.9" style="stop-color:#3E863D"/>
			<stop  offset="1" style="stop-color:#3E863D"/>
		</linearGradient>
		<rect x="962.1" y="444" clip-path="url(#SVGID_8_)" fill="url(#SVGID_10_)" width="48" height="56.3"/>
	</g>
</g>
</svg>
