<?xml version="1.0" encoding="utf-8"?>
<!-- Generator: Adobe Illustrator 18.0.0, SVG Export Plug-In . SVG Version: 6.00 Build 0)  -->
<!DOCTYPE svg PUBLIC "-//W3C//DTD SVG 1.1//EN" "http://www.w3.org/Graphics/SVG/1.1/DTD/svg11.dtd">
<svg version="1.1" id="Layer_1" xmlns="http://www.w3.org/2000/svg" xmlns:xlink="http://www.w3.org/1999/xlink" x="0px" y="0px"
	 width="356.7px" height="245.8px" viewBox="0.6 977.9 356.7 245.8" enable-background="new 0.6 977.9 356.7 245.8"
	 xml:space="preserve">
<rect x="0.6" y="977.9" fill="#F6F8FC" width="356.7" height="245.8"/>
<g>
	<path fill="#00D8FF" d="M42.7,1085.7c-0.4-3.5-1-6.8-1.2-10.1c-0.1-2.4,0.1-5,0.7-7.4c1.7-6.2,6.8-8.7,12.9-6.7
		c4.4,1.5,8.1,4.1,11.5,7.1c0.8,0.6,1.5,1.3,2,1.8c3.6-2.6,6.8-5.2,10.5-7.3c2.1-1.2,4.7-1.9,7.1-2.2c5.5-0.6,8.6,3.4,9.7,7.5
		c1.3,4.9,0.6,9.8-0.3,14.6c-0.2,0.8-0.3,1.6-0.5,2.4c2.9,1.2,5.7,2.2,8.5,3.4c2.9,1.3,5.6,3.1,7.7,5.6c3.6,4.3,3.2,9.3-0.8,13.3
		c-3.8,3.8-8.7,5.8-13.7,7.5c-0.5,0.2-1,0.3-1.6,0.5c0.4,2.6,0.9,5.1,1.2,7.7c0.5,3.8,0.4,7.6-1,11.2c-1.9,4.8-6.1,6.9-11.2,5.7
		c-4.7-1.1-8.6-3.8-12.2-6.9c-1-0.8-1.9-1.7-2.9-2.4c-2.8,2.1-5.5,4.3-8.3,6.3c-2.6,1.7-5.4,3-8.6,3.3c-4.3,0.5-7.8-1.7-9.4-5.6
		c-1.9-4.5-1.5-9.2-0.9-13.8c0.2-1.7,0.6-3.5,1-5.2c-3.2-1.3-6.4-2.5-9.4-4c-2-1-3.9-2.4-5.6-3.9c-4.8-4.3-4.8-10-0.3-14.5
		c3.5-3.5,7.9-5.4,12.5-7C41,1086.3,41.8,1086,42.7,1085.7z M69.1,1086.5c-2.4,0-4.9-0.1-7.3,0.1c-0.5,0-1.2,0.4-1.4,0.8
		c-2.5,4.2-4.9,8.4-7.3,12.6c-0.2,0.4-0.2,1.2,0,1.6c2.3,4.2,4.8,8.4,7.2,12.5c0.3,0.5,1,0.9,1.5,0.9c4.8,0.1,9.5,0.1,14.3,0
		c0.6,0,1.5-0.5,1.8-1c2.4-4,4.7-8,7-12.1c0.3-0.5,0.3-1.5,0.1-2.1c-2.3-4.1-4.7-8.3-7.2-12.4c-0.3-0.5-1-0.9-1.5-0.9
		C73.8,1086.4,71.5,1086.5,69.1,1086.5z M94.2,1112.1c4.5-1.5,8.9-3,12.6-6.1c4-3.3,4.1-7.1,0.2-10.4c-3.7-3.2-8.2-4.8-12.8-6.2
		c-1.5,3.7-3,7.3-4.4,10.9c-0.1,0.2-0.1,0.6,0.1,0.9C91.3,1104.9,92.7,1108.4,94.2,1112.1z M43.8,1089.5c-0.9,0.3-1.7,0.5-2.6,0.8
		c-4.1,1.5-8.2,3.1-11.3,6.4c-2.6,2.7-2.6,5.7,0.1,8.3c3.8,3.9,8.8,5.5,13.8,7.1c1.5-3.8,3-7.4,4.4-11.1c0.1-0.2,0-0.5-0.1-0.8
		C46.7,1096.8,45.3,1093.2,43.8,1089.5z M66.1,1128.2c-2.4-3.1-4.8-6.1-7.2-9.2c-0.2-0.3-0.8-0.5-1.2-0.5c-3.3-0.5-6.5-1-9.8-1.6
		c-0.5-0.1-0.9-0.1-1.4-0.1c-0.3,1.6-0.8,3.1-0.9,4.6c-0.2,3.3-0.5,6.6,0,9.9c0.8,5,4.1,6.6,8.9,4.8
		C59.1,1134.5,62.7,1131.4,66.1,1128.2z M71.8,1128.2c3.7,3.5,7.6,6.9,12.6,8.3c3.8,1.1,6.8-0.4,7.7-4.3c1.3-5.2,0.5-10.3-0.8-15.4
		c-3.5,0.5-6.8,1-10.1,1.6c-0.8,0.1-1.8,0.1-2.2,0.6C76.6,1122,74.2,1125.1,71.8,1128.2z M66.1,1073.3c-3.5-3.3-7.1-6.5-11.8-8
		c-4.8-1.6-7.8,0-8.8,5.1c-1,4.8,0,9.6,1,14.3c0.3,0,0.5,0,0.7,0c3.5-0.5,6.9-1,10.4-1.6c0.5-0.1,1.1-0.4,1.5-0.9
		C61.5,1079.3,63.8,1076.4,66.1,1073.3z M91.3,1084.6c1-3.8,1.6-7.6,1.3-11.5c-0.1-1.8-0.5-3.7-1.2-5.4c-0.8-2.1-2.6-3.2-4.9-3
		c-6.4,0.6-10.5,4.8-14.9,8.6c2.4,3.1,4.8,6.1,7.1,8.9c0.3,0.3,0.8,0.6,1.2,0.7C83.7,1083.5,87.4,1084,91.3,1084.6z M82.2,1087
		c1.8,3.2,3.5,6.1,5.4,9.3c1-2.8,1.9-5.3,2.8-7.9C87.5,1087.9,85,1087.4,82.2,1087z M47.6,1113.1c2.8,0.5,5.3,0.9,8.2,1.4
		c-1.9-3.3-3.6-6.1-5.4-9.2C49.5,1108,48.6,1110.5,47.6,1113.1z M47.6,1088.4c1,2.6,1.9,5.1,2.9,7.8c1.9-3.3,3.6-6.2,5.4-9.3
		C53,1087.4,50.4,1087.9,47.6,1088.4z M87.5,1105.3c-1.9,3.3-3.5,6.1-5.3,9.3c2.9-0.5,5.4-1,8.2-1.5
		C89.3,1110.4,88.5,1107.9,87.5,1105.3z M69,1076.1c-1.7,2.1-3.4,4.1-5.2,6.3c3.7,0,6.9,0,10.5,0C72.4,1080.2,70.8,1078.2,69,1076.1
		z M69,1125.4c1.8-2.2,3.4-4.1,5.2-6.3c-3.6,0-6.9,0-10.4,0C65.6,1121.3,67.2,1123.3,69,1125.4z"/>
	<path fill="#00D8FF" d="M141.4,1102.2c4.3,3,6.1,7.6,9.2,11.8c-1.5,0-2.7,0.1-4-0.1c-0.4-0.1-0.9-0.6-1.1-1c-1.6-2.4-3.3-5-4.9-7.5
		c-1.5-2.3-3.6-3.3-6.4-3.1c-1,0.1-2,0-3.2,0c0,3.9,0,7.6,0,11.5c-1.2,0-2.3,0-3.4,0c0-8.6,0-17.1,0-25.9c0.6,0,1.2,0,1.7,0
		c4.5,0.1,9,0,13.5,0.3c3.3,0.3,5.1,2.6,5.5,5.9c0.4,3-1.2,5.8-3.9,7C143.4,1101.6,142.5,1101.8,141.4,1102.2z M131,1099.1
		c3.5,0,6.9,0.2,10.3-0.1c2.3-0.2,3.6-2.2,3.4-4.3c-0.1-2-1.5-3.7-3.8-3.8c-3.3-0.2-6.6-0.1-10-0.1
		C131,1093.7,131,1096.4,131,1099.1z"/>
	<path fill="#00D8FF" d="M249.9,1088c1.2,0,2.2,0,3.3,0c0,8.6,0,17.3,0,25.8c-2.9,0.6-3.3,0.5-4.9-1.9c-3.7-5.4-7.3-10.9-11-16.3
		c-0.3-0.4-0.6-0.9-1.2-1.7c0,7,0,13.5,0,20.1c-1.2,0-2.3,0-3.4,0c0-8.6,0-17.1,0-25.7c2.7-0.8,3.4-0.5,4.8,1.6
		c3.7,5.5,7.5,11.1,11.1,16.6c0.3,0.4,0.6,0.8,1.2,1.6C249.9,1101.1,249.9,1094.6,249.9,1088z"/>
	<path fill="#00D8FF" d="M189.5,1113.9c-2.9,0.3-2.9,0.3-3.7-2c-0.5,0.3-1,0.6-1.5,0.9c-2.2,1.5-4.7,1.8-7.2,1.4
		c-2.6-0.3-4.4-2.3-4.7-4.7c-0.2-2.4,1.2-4.7,3.6-5.6c1.5-0.5,3.1-0.7,4.7-1c0.9-0.2,1.9-0.2,2.7-0.5c0.8-0.2,1.9-0.6,2-1.2
		c0.3-1.3-0.1-2.6-1.4-3.3c-3-1.7-6.7-0.5-8,2.9c-0.9-0.1-2-0.2-3-0.4c0.4-2.4,1.6-4.2,3.8-5.1c2.6-1,5.3-1,8-0.3
		c2.5,0.6,3.7,2,3.8,4.6c0.2,3.1,0.1,6.3,0.2,9.4C189,1110.7,189.3,1112.2,189.5,1113.9z M185.5,1104.7c-2.4,0.5-4.9,0.9-7.3,1.5
		c-1.5,0.3-2.3,1.4-2.2,3c0.1,1.5,1.1,2.3,2.5,2.6C183,1112.7,186.4,1109.3,185.5,1104.7z"/>
	<path fill="#00D8FF" d="M169.7,1105.4c-4.8,0-9.3,0-13.9,0c-0.1,4.1,2.4,6.8,6.2,6.2c1.2-0.2,2.8-1,3.4-2.1c0.8-1.5,1.7-1.7,3-1.4
		c0.3,0.1,0.6,0.1,1.1,0.1c-0.6,2.4-1.9,4.3-4.1,5.3c-6.2,2.9-12.6-0.9-13.1-7.7c-0.2-3.3,0.2-6.4,2.7-8.9c2.6-2.5,5.8-2.9,9.1-1.8
		c3.3,1.1,4.9,3.8,5.4,7.1C169.6,1103.3,169.6,1104.2,169.7,1105.4z M155.8,1102.6c3.5,0,6.9,0,10.3,0c-0.2-3.3-2-5.1-4.9-5.2
		C158.1,1097.3,156.1,1099.3,155.8,1102.6z"/>
	<path fill="#00D8FF" d="M331.7,1105.4c-4.7,0-9.3,0-13.8,0c-0.2,3,1.3,5.4,3.9,6.1c2.2,0.6,4.9,0.3,6.3-2.9
		c0.1-0.3,0.7-0.6,1.1-0.6c0.8-0.1,1.5,0.1,2.3,0.2c-0.2,3.1-3.1,5.8-6.7,6.1c-8,0.7-12.7-6.4-9.5-14.3c2.3-5.6,9.8-7.2,14-2.9
		C331.4,1099.3,331.9,1102.2,331.7,1105.4z M328.3,1102.6c-0.4-3.7-2.3-5.4-5.7-5.2c-2.6,0.1-4.6,2.3-4.6,5.1
		c0.3,0.1,0.8,0.1,1.1,0.1C322.1,1102.6,325.2,1102.6,328.3,1102.6z"/>
	<path fill="#00D8FF" d="M261.1,1100.9c-1-0.1-1.9-0.3-2.9-0.4c0.3-2.4,1.6-4.2,3.8-5.1c2.4-0.9,5-1,7.5-0.5c3,0.6,4.3,2.2,4.4,5.4
		c0.1,2.7-0.1,5.4,0.1,8.2c0.1,1.8,0.3,3.6,0.5,5.4c-2.9,0.3-2.9,0.3-3.7-2.1c-2.2,1.9-4.7,2.7-7.6,2.6c-3.1-0.2-5.2-1.9-5.6-4.5
		c-0.3-2.9,1.1-5.3,4.1-6.1c2.2-0.6,4.5-0.8,6.7-1.2c0.8-0.2,2.2,0.1,2.2-1.3c0.1-1.5-0.3-2.8-1.9-3.4
		C265.7,1096.4,262.9,1097.5,261.1,1100.9z M270.6,1104.7c-2.4,0.5-4.8,0.9-7.1,1.4c-1.8,0.4-2.6,1.6-2.5,3.1
		c0.1,1.4,1.2,2.3,2.9,2.6C268.3,1112.5,271.1,1109.6,270.6,1104.7z"/>
	<path fill="#00D8FF" d="M206.2,1107.1c1,0.1,2,0.3,3,0.4c-0.5,3.8-3.2,6.6-6.7,6.9c-4.5,0.3-7.9-1.7-9.1-5.7
		c-0.9-3.1-0.9-6.2,0.4-9.3c1.3-3.1,4.3-4.8,8.2-4.7c3.4,0.2,5.8,1.9,6.8,4.9c0.1,0.2,0.1,0.5,0.2,1c-0.9,0.2-1.9,0.3-2.9,0.5
		c-0.2-0.3-0.3-0.5-0.4-0.8c-1-2.3-2-3-4.3-3c-2.1,0-3.8,1.1-4.5,3.1c-0.9,2.6-1,5.2-0.1,7.8c0.8,2.3,2.6,3.5,5,3.4
		c2.2-0.1,3.7-1.3,4.3-3.7C206,1107.8,206.1,1107.5,206.2,1107.1z"/>
	<path fill="#00D8FF" d="M295.4,1095.1c1,0,2,0,3.2,0c1.7,4.7,3.4,9.6,5.3,14.7c1.9-5.1,3.6-9.9,5.3-14.7c1,0,2.1,0,3.3,0
		c-0.5,1.3-0.9,2.5-1.4,3.7c-1.8,4.7-3.6,9.4-5.3,14.1c-0.3,0.8-0.7,1.2-1.6,1c-0.8-0.2-1.7,0.5-2.2-0.8c-2.2-5.9-4.4-11.7-6.6-17.6
		C295.4,1095.5,295.4,1095.4,295.4,1095.1z"/>
	<path fill="#00D8FF" d="M279.5,1097.7c-0.8-0.1-1.4-0.1-2.2-0.2c0-0.8,0-1.5,0-2.3c0.6-0.1,1.3-0.1,2.2-0.2
		c0.2-2.4-0.9-5.7,3.3-6.2c0,1.9,0,4,0,6.2c1.1,0,2.1,0,3.1,0c0,0.9,0,1.7,0,2.5c-1,0.1-2,0.1-3.1,0.2c0,4.1-0.1,8.2,0.1,12.2
		c0.1,1.9,1.8,1.2,3.1,1.3c0.2,0.9,0.3,1.7,0.5,2.8c-0.8,0.1-1.5,0.3-2.2,0.3c-3.1,0.2-4.7-1.2-4.7-4.4c-0.1-3.4-0.1-6.9-0.1-10.4
		C279.5,1098.9,279.5,1098.3,279.5,1097.7z"/>
	<path fill="#00D8FF" d="M215.9,1097.6c0,4.2-0.1,8.2,0,12.1c0.1,2,1.7,1.5,3.1,1.5c0.2,0.9,0.3,1.7,0.6,3c-1.3,0-2.4,0.1-3.6,0
		c-2.2-0.3-3.1-1.3-3.2-3.6c-0.1-3.6-0.1-7.2-0.1-10.7c0-0.6,0-1.3,0-2c-0.8-0.1-1.5-0.2-2.3-0.2c0-0.7,0-1.5,0-2.3
		c0.6-0.1,1.3-0.1,2.2-0.2c0.3-2.4-0.9-5.7,3.3-6.2c0,2,0,4.1,0,6.2c1.2,0.1,2.1,0.1,3.1,0.2c0,0.8,0,1.6,0,2.4
		C218,1097.6,217.1,1097.6,215.9,1097.6z"/>
	<path fill="#00D8FF" d="M289.2,1095.1c1,0,1.9,0,3,0c0,6.2,0,12.4,0,18.8c-0.9,0-1.9,0-3,0C289.2,1107.7,289.2,1101.5,289.2,1095.1
		z"/>
	<path fill="#00D8FF" d="M289.2,1091.4c0-1.2,0-2.2,0-3.4c1,0,2,0,3.1,0c0,1.1,0,2.2,0,3.4C291.2,1091.4,290.3,1091.4,289.2,1091.4z
		"/>
	<path fill="#00D8FF" d="M77,1100.9c-0.1,4.4-3.8,8-8.2,7.9c-4.5-0.1-7.9-3.6-7.8-8.2c0.1-4.4,3.7-8,8-7.9
		C73.4,1092.7,77.1,1096.5,77,1100.9z"/>
</g>
</svg>
