<?xml version="1.0" encoding="utf-8"?>
<!-- Generator: Adobe Illustrator 18.0.0, SVG Export Plug-In . SVG Version: 6.00 Build 0)  -->
<!DOCTYPE svg PUBLIC "-//W3C//DTD SVG 1.1//EN" "http://www.w3.org/Graphics/SVG/1.1/DTD/svg11.dtd">
<svg version="1.1" id="Layer_1" xmlns="http://www.w3.org/2000/svg" xmlns:xlink="http://www.w3.org/1999/xlink" x="0px" y="0px"
	 width="356.7px" height="245.8px" viewBox="0 0 356.7 245.8" enable-background="new 0 0 356.7 245.8" xml:space="preserve">
<g>
	<rect fill="#F6F8FC" width="356.7" height="245.8"/>
	<g>
		<path fill="#95BF47" d="M34.9,152.4c0.4-2.6,0.8-5.2,1.1-7.7c1.2-9,2.3-18.1,3.5-27.1c0.5-3.7,1-7.4,1.4-11.1
			c0.2-1.4,0.7-2.2,2.1-2.6c2.2-0.6,4.4-1.4,6.6-2c0.9-0.2,1.2-0.7,1.4-1.5c1.2-4.6,3-8.9,6-12.7c2.2-2.8,5-4.9,8.7-5.5
			c2.2-0.4,4.1,0,5.6,1.7c0.2,0.2,0.5,0.4,0.8,0.5c3.4,0.1,5.5,2.1,7,4.9c0.5,1,1,2,1.4,3.1c0.3-0.1,0.6-0.1,0.9-0.2
			c2-1,3.5-0.5,4.9,1.2c0.5,0.6,1.1,1,1.6,1.6c1,1.4,2.4,1.8,4,1.8c1.2,0,2.4,0.2,3.6,0.2c0.8,0,1.2,0.4,1.3,1.2
			c1,6.7,2,13.4,2.9,20c1,6.9,2,13.8,3,20.7c0.8,5.8,1.7,11.5,2.5,17.3c0,0.2,0,0.4,0,0.8c-2.9,0.6-5.7,1.3-8.6,1.9
			c-5,1.1-10,2.2-15.1,3.2c-0.9,0.2-2,0.1-3-0.1c-14.3-2.7-28.7-5.3-43-8c-0.3,0-0.5-0.1-0.8-0.2C34.9,153.1,34.9,152.8,34.9,152.4z
			 M72.2,110.5c-0.5-0.2-0.9-0.5-1.4-0.5c-2.2-0.2-4.4-0.7-6.7-0.5c-6.8,0.4-11.9,4.2-13.7,10.2c-1.7,5.8-0.5,9.7,3.7,13.1
			c0.9,0.7,1.8,1.4,2.6,2.3c0.6,0.7,1.3,1.5,1.6,2.4c0.9,2.5-0.8,4.6-3.5,4.2c-1.2-0.2-2.4-0.7-3.6-1.2c-1.2-0.6-2.3-1.4-3.6-2.2
			c-0.4,1.3-0.8,2.5-1.1,3.7c-1.1,3.8-1.1,4,2.4,6c0.1,0.1,0.2,0.1,0.3,0.2c4.1,2.1,8.3,2.9,12.6,1.2c6.3-2.5,7.6-9.7,6.7-14.3
			c-0.7-3.4-2.9-5.6-5.5-7.6c-1.3-1-2.7-2-3.9-3.2c-1.7-1.7-1.3-4.3,1-5.2c1.2-0.5,2.7-0.6,4-0.5c1.6,0.1,3.2,0.7,5,1.1
			C70.2,116.6,71.2,113.6,72.2,110.5z M68.4,85.1c0-0.1,0-0.2,0-0.3c-0.8,0-1.6-0.1-2.3,0c-2.4,0.4-4.2,1.6-5.8,3.3
			c-3.1,3.4-4.9,7.5-6.1,11.9c0,0.1,0.1,0.2,0.1,0.3c1.6-0.5,3.1-1,4.6-1.4c1.1-0.3,1.6-0.9,1.8-2c0.8-3.6,2.1-6.9,4.8-9.6
			C66.3,86.6,67.4,85.9,68.4,85.1z M70.3,87.6c-4,2.2-5.7,5.7-6.9,9.9c2.6-0.8,5-1.5,7.4-2.3c0.2-0.1,0.6-0.4,0.6-0.7
			C71.3,92.2,71.2,89.9,70.3,87.6z M73.4,87.1c0.3,2.4,0.6,4.7,0.9,7c1.2-0.4,2.4-0.8,3.7-1.2C77,90.4,76.2,88,73.4,87.1z"/>
		<path d="M321.8,114.1c-0.2,0.4-0.5,0.7-0.7,1.1c-4.1,8.8-8.2,17.7-12.4,26.5c-2.6,5.5-5.8,10.7-9.9,15.3
			c-2.8,3.1-6.2,5.5-10.3,6.8c-0.2,0.1-0.4,0.1-0.6,0.2c-0.1,0-0.1,0-0.3-0.1c-0.9-2.6-1.7-5.3-2.6-8c1.3-0.6,2.6-1.2,3.9-1.9
			c2.8-1.5,5.1-3.6,6.6-6.4c0.4-0.8,0.6-1.8,0.4-2.6c-1.8-10.2-3.7-20.4-5.6-30.6c0-0.1,0-0.2,0-0.4c3.3,0,6.7,0,10.2,0
			c0.8,7.8,1.6,15.5,2.4,23.3c0.1,0,0.1,0,0.2,0c0.5-1.5,1-3,1.6-4.5c2.2-6,4.5-12,6.7-18c0.3-0.7,0.6-1,1.4-1
			c3.1,0.1,6.1,0.1,9.2,0.1C321.8,113.9,321.8,114,321.8,114.1z"/>
		<path d="M218.7,113.7c2.6,0,5.4,0,8.3,0c-0.2,1.7-0.3,3.3-0.5,5.1c0.6-0.7,1.1-1.2,1.5-1.7c3.1-3.2,6.8-4.7,11.3-3.7
			c4,0.9,6,3.7,7.1,7.5c2.2,8.2-1.6,19.6-8.3,24.7c-4.8,3.6-10,4.5-15.9,2.3c-0.3,1.8-0.7,3.5-1,5.3c-0.5,2.7-1,5.5-1.6,8.2
			c-0.1,0.3-0.4,0.8-0.7,0.8c-3,0.1-6,0-9.1,0C212.8,146,215.8,129.9,218.7,113.7z M236.8,126.4c-0.1-0.7-0.3-2-0.7-3.2
			c-0.6-1.7-2.3-2.6-4-2c-1.2,0.4-2.4,1.1-3.3,1.9c-1.6,1.5-2.5,3.4-3,5.5c-0.8,3.6-1.5,7.3-2.1,11c-0.1,0.3,0.3,0.9,0.7,1.1
			c2.6,1.6,5.5,1.1,7.8-1.4C235.2,135.8,236.4,131.5,236.8,126.4z"/>
		<path d="M152.7,148.3c-3.2,0-6.3,0-9.6,0c3.2-16.6,6.3-33.1,9.5-49.7c3.2,0,6.4,0,9.7,0c-1.2,6.4-2.5,12.8-3.7,19.2
			c0.1,0,0.1,0.1,0.2,0.1c0.3-0.3,0.5-0.6,0.8-0.8c2.7-2.8,6-4.3,9.9-4.1c4.3,0.3,6.9,2.9,7.3,7.2c0.3,3.3-0.3,6.5-0.9,9.8
			c-1.1,5.8-2.2,11.6-3.3,17.4c-0.1,0.7-0.3,1-1.1,1c-2.9,0-5.7,0-8.8,0c0.5-2.6,0.9-5,1.4-7.5c0.8-4.4,1.7-8.7,2.4-13.1
			c0.2-1.2,0.2-2.5,0.2-3.8c-0.1-2.4-1.8-3.5-4.1-2.8c-1.5,0.5-2.6,1.6-3.5,2.8c-2,2.7-2.7,5.8-3.3,9.1c-0.9,4.8-1.8,9.7-2.7,14.5
			C152.9,147.8,152.8,148,152.7,148.3z"/>
		<path d="M179.5,134.9c0.2-7.3,2.6-13.6,8.4-18.2c4.1-3.2,8.7-4.3,13.8-3.4c5.2,0.9,8.4,4,9.7,9.1c1.7,6.6-0.4,17.6-8.3,23.3
			c-4,2.9-8.4,3.9-13.3,3.1c-5.9-1-10-5.6-10.4-11.7C179.4,136.4,179.5,135.7,179.5,134.9z M202.2,126.4c-0.1-0.6-0.1-1.6-0.4-2.5
			c-0.9-3.2-4.2-4.4-6.9-2.5c-0.7,0.5-1.3,1.1-1.8,1.7c-1.8,2.4-2.7,5.2-3.3,8.1c-0.4,2.4-0.7,4.7,0,7.1c1,3.2,4.4,4.3,7.1,2.2
			c0.9-0.7,1.6-1.6,2.2-2.5C201.1,134.5,201.9,130.7,202.2,126.4z"/>
		<path d="M267.4,113.8c1.3,0,2.5,0,3.7,0c0.7,0,0.9-0.2,1-0.9c0.5-2,0.9-4,1.6-5.9c2.8-7.1,9-9.7,15.7-9c1.1,0.1,2.1,0.4,3.3,0.6
			c-0.7,2.7-1.3,5.2-1.9,7.6c-6.3-0.6-8.3,1-9.2,7.4c2.2,0,4.4,0,6.7,0c-0.5,2.6-0.9,5-1.4,7.5c-2.2,0-4.4,0-6.7,0
			c-1.7,9.1-3.4,18.1-5.2,27.2c-3.2,0-6.4,0-9.7,0c1.7-9,3.4-18,5.1-27.1c-1.5,0-2.9,0-4.5,0C266.4,118.7,266.9,116.3,267.4,113.8z"
			/>
		<path d="M118.8,140c2.5,0.6,4.7,1.2,7,1.7c0.9,0.2,1.9,0.1,2.8-0.2c2.6-0.7,3.5-3.5,1.7-5.4c-0.7-0.8-1.6-1.3-2.5-1.9
			c-1.1-0.8-2.3-1.5-3.4-2.3c-5.7-4.6-3.9-11.5-0.2-14.9c2-1.8,4.4-2.9,7-3.4c3.6-0.7,7.2-0.6,10.7,0.6c1.4,0.4,1.4,0.5,1,1.9
			c-0.6,1.8-1.2,3.7-1.8,5.5c-1.5-0.4-2.9-0.8-4.4-1c-1.2-0.1-2.5-0.1-3.8,0.2c-1.2,0.2-2.1,1-2.4,2.2c-0.3,1.3,0.2,2.3,1.2,3.1
			c0.6,0.5,1.3,0.9,1.9,1.3c1,0.7,2.1,1.3,3.1,2c7.5,5.3,4.6,14.3-0.8,17.3c-6.1,3.3-12.4,3.3-18.6,0.4c-0.3-0.1-0.6-0.6-0.5-0.9
			C117.4,144,118.1,141.9,118.8,140z"/>
		<path d="M247.3,148.3c2.2-11.5,4.3-22.9,6.5-34.4c3.3,0,6.5,0,9.8,0c-2.2,11.5-4.4,22.9-6.5,34.4
			C253.7,148.3,250.6,148.3,247.3,148.3z"/>
		<path d="M260,109.6c-2.8,0-4.7-1.9-4.7-4.8c0-3.1,2.5-5.7,5.6-5.7c2.8,0,4.8,1.9,4.8,4.8C265.6,107.2,263.3,109.6,260,109.6z"/>
		<path fill="#FFFFFF" d="M72.2,110.5c-1,3.1-2,6.1-3,9c-1.7-0.4-3.3-1-5-1.1c-1.3-0.1-2.8,0-4,0.5c-2.3,0.9-2.7,3.5-1,5.2
			c1.2,1.2,2.6,2.1,3.9,3.2c2.6,2,4.8,4.3,5.5,7.6c1,4.7-0.4,11.8-6.7,14.3c-4.3,1.7-8.6,0.9-12.6-1.2c-0.1-0.1-0.2-0.1-0.3-0.2
			c-3.5-2-3.6-2.1-2.4-6c0.4-1.2,0.7-2.4,1.1-3.7c1.2,0.8,2.4,1.6,3.6,2.2c1.1,0.5,2.3,1,3.6,1.2c2.6,0.4,4.3-1.7,3.5-4.2
			c-0.3-0.9-0.9-1.7-1.6-2.4c-0.8-0.8-1.7-1.6-2.6-2.3c-4.1-3.3-5.4-7.3-3.7-13.1c1.7-6,6.9-9.8,13.7-10.2c2.2-0.1,4.4,0.3,6.7,0.5
			C71.2,110,71.7,110.3,72.2,110.5z"/>
		<path fill="#5E8E3E" d="M82.9,91.5l-1.3,70.4l23.6-5.1L96.7,98c0,0-0.1-1.5-1.3-1.2l-4.5-0.3c0,0-1.4,0.2-3.8-2.4l-1.7-1.7
			C85.5,92.4,84.1,91.2,82.9,91.5z"/>
	</g>
</g>
</svg>
