<?xml version="1.0" encoding="utf-8"?>
<!-- Generator: Adobe Illustrator 18.0.0, SVG Export Plug-In . SVG Version: 6.00 Build 0)  -->
<!DOCTYPE svg PUBLIC "-//W3C//DTD SVG 1.1//EN" "http://www.w3.org/Graphics/SVG/1.1/DTD/svg11.dtd">
<svg version="1.1" id="Layer_1" xmlns="http://www.w3.org/2000/svg" xmlns:xlink="http://www.w3.org/1999/xlink" x="0px" y="0px"
	 width="356.7px" height="245.8px" viewBox="1691.6 664.5 356.7 245.8" enable-background="new 1691.6 664.5 356.7 245.8"
	 xml:space="preserve">
<rect x="1691.6" y="664.5" fill="#F6F8FC" width="356.7" height="245.8"/>
<g id="Social-Cover">
	<g id="Logo-White-Background" transform="translate(-436.000000, -387.000000)">
		<g id="Logo" transform="translate(435.000000, 387.000000)">
			<g id="Monogram" transform="translate(0.000000, 23.000000)" opacity="0.9746">
				<g>
					<path id="Combined-Shape-Copy" fill="#8E75FF" d="M1774,783.1v-20c0-0.7-0.6-1.3-1.3-1.3h-19.9v-20.7h40.5
						c0.7,0,1.3,0.6,1.3,1.3v40.7H1774z"/>
					<path id="Rectangle-Copy-6" opacity="0.405" fill="#8E75FF" enable-background="new    " d="M1752.8,741.1v20.7h-19
						c-0.4,0-0.6-0.3-0.6-0.6c0-0.2,0.1-0.3,0.2-0.5L1752.8,741.1z"/>
					<path id="Rectangle-Copy-7" opacity="0.405" fill="#8E75FF" enable-background="new    " d="M1774,802.2v-19.1h20.6l-19.5,19.6
						c-0.3,0.3-0.7,0.3-0.9,0C1774.1,802.5,1774,802.4,1774,802.2z"/>
					<path id="Rectangle-Copy-8" opacity="0.405" fill="#8E75FF" enable-background="new    " d="M1752.8,761.8h20.6
						c0.4,0,0.6,0.3,0.6,0.6v20.7h-19.9c-0.7,0-1.3-0.6-1.3-1.3V761.8z"/>
				</g>
			</g>
			<path id="strapi" fill="#2F2E8B" d="M1873.8,778.4h-8.1v15.4c0,1.3,0.3,2.2,1,2.8c0.6,0.6,1.6,0.9,2.8,1c1.1,0.1,2.5,0.1,4.1,0
				c0.1,0,0.1,0,0.2,0c0.1,0,0.2,0.1,0.2,0.2c0,0,0,0,0,0v8.2c0,0.1-0.1,0.2-0.2,0.2c-0.1,0-0.1,0-0.2,0c-6.4,0.7-10.9,0.1-13.5-1.9
				c-2.7-2-4-5.5-4-10.6v-15.4h-6.2c-0.1,0-0.2-0.1-0.2-0.2v-8.8c0-0.1,0.1-0.2,0.2-0.2h6.2v-6.1c0-0.2,0.1-0.3,0.3-0.4l9-4
				c0.1,0,0.2,0,0.3,0.1c0,0,0,0.1,0,0.1v10.3h8.1c0.1,0,0.2,0.1,0.2,0.2v8.8C1874.1,778.3,1874,778.4,1873.8,778.4z M1891.4,775.6
				c0.9-2.4,2.4-4.2,4.4-5.3c1.9-1.1,3.9-1.7,6.2-1.8c0.1,0,0.2,0,0.4,0c0.1,0,0.2,0.1,0.2,0.2c0,0,0,0,0,0v10.1
				c0,0.2-0.2,0.4-0.4,0.4c0,0,0,0,0,0l0,0c-2.8-0.2-5.2,0.4-7.4,1.8c-2.3,1.5-3.4,4.1-3.4,7.6V806c0,0.1-0.1,0.2-0.2,0.2h-9.1
				c-0.1,0-0.2-0.1-0.2-0.2v-36.6c0-0.1,0.1-0.2,0.2-0.2h9.1c0.1,0,0.2,0.1,0.2,0.2V775.6z M1936.4,769.2h9.1c0.1,0,0.2,0.1,0.2,0.2
				V806c0,0.1-0.1,0.2-0.2,0.2h-9.1c-0.1,0-0.2-0.1-0.2-0.2v-4.2c-2.9,3.6-6.9,5.4-12,5.4c-4.9,0-9.2-1.9-12.7-5.7
				c-3.5-3.8-5.3-8.4-5.3-13.9s1.8-10.1,5.3-13.9c3.5-3.8,7.7-5.7,12.7-5.7c5.2,0,9.2,1.8,12,5.4v-4.2
				C1936.2,769.3,1936.3,769.2,1936.4,769.2z M1918.6,795.3c1.9,1.9,4.4,2.9,7.3,2.9c3,0,5.4-1,7.4-2.9c1.9-2,2.9-4.5,2.9-7.5
				s-1-5.6-2.9-7.5c-1.9-2-4.4-2.9-7.4-2.9c-3,0-5.4,1-7.3,2.9c-1.9,2-2.9,4.5-2.9,7.5S1916.7,793.3,1918.6,795.3z M1974.4,768.2
				c5,0,9.2,1.9,12.8,5.7c3.5,3.8,5.3,8.4,5.3,13.9s-1.8,10.1-5.3,13.9c-3.5,3.8-7.8,5.7-12.8,5.7c-5.2,0-9.2-1.8-12-5.4v19
				c0,0.1-0.1,0.2-0.2,0.2h-9.1c-0.1,0-0.2-0.1-0.2-0.2v-51.4c0-0.1,0.1-0.2,0.2-0.2h9.1c0.1,0,0.2,0.1,0.2,0.2v4.2
				C1965.3,770,1969.3,768.2,1974.4,768.2z M1965.3,795.3c1.9,1.9,4.4,2.9,7.3,2.9c3,0,5.4-1,7.4-2.9c1.9-2,2.9-4.5,2.9-7.5
				s-1-5.6-2.9-7.5c-1.9-2-4.4-2.9-7.4-2.9c-3,0-5.4,1-7.3,2.9c-1.9,2-2.9,4.5-2.9,7.5S1963.4,793.3,1965.3,795.3z M2002.9,764.8
				c-1.6,0-2.9-0.6-4.1-1.7c-1.2-1.2-1.7-2.5-1.7-4.1c0-1.6,0.6-3,1.7-4.2s2.5-1.8,4.1-1.8c1.6,0,3,0.6,4.2,1.8
				c1.2,1.2,1.7,2.6,1.7,4.2c0,1.6-0.6,3-1.7,4.1C2005.9,764.2,2004.5,764.8,2002.9,764.8z M1998.1,806v-36.6c0-0.1,0.1-0.2,0.2-0.2
				h9.1c0.1,0,0.2,0.1,0.2,0.2V806c0,0.1-0.1,0.2-0.2,0.2h-9.1C1998.2,806.3,1998.1,806.2,1998.1,806z M1827.3,779.7
				c0,1,0.7,1.8,2,2.4s2.9,1.2,4.8,1.6s3.7,1.1,5.6,1.8s3.5,1.9,4.8,3.6s2,3.8,2,6.3c0,3.8-1.4,6.7-4.3,8.8
				c-2.8,2.1-6.4,3.1-10.6,3.1c-7.4,0-12.5-2.8-15.3-8.4c0,0-0.1-0.1-0.1-0.2c-0.1-0.1,0-0.2,0.1-0.3c0,0,0,0,0,0l8-3.6
				c0.2-0.1,0.5,0,0.6,0.2c0,0,0,0,0,0c1.2,2.4,3.5,3.6,6.7,3.6c3.4,0,5.1-1.1,5.1-3.2c0-1-0.7-1.8-2-2.4c-1.3-0.6-2.9-1.2-4.8-1.7
				s-3.7-1.1-5.6-1.9s-3.5-1.9-4.8-3.5c-1.3-1.6-2-3.6-2-6c0-3.7,1.3-6.5,4-8.6c2.7-2.1,6-3.2,10-3.2c3,0,5.7,0.7,8.2,2
				c2.2,1.2,4,2.9,5.4,5c0.1,0.1,0.2,0.3,0.3,0.5c0.1,0.1,0,0.2-0.1,0.3c0,0,0,0,0,0l-8,3.6c-0.1,0.1-0.3,0-0.4-0.1
				c-1.2-1.8-3-2.8-5.4-2.8c-1.2,0-2.3,0.3-3.1,0.8C1827.7,778,1827.3,778.8,1827.3,779.7z"/>
		</g>
	</g>
</g>
</svg>
