<?xml version="1.0" encoding="utf-8"?>
<!-- Generator: Adobe Illustrator 18.0.0, SVG Export Plug-In . SVG Version: 6.00 Build 0)  -->
<!DOCTYPE svg PUBLIC "-//W3C//DTD SVG 1.1//EN" "http://www.w3.org/Graphics/SVG/1.1/DTD/svg11.dtd">
<svg version="1.1" id="Layer_1" xmlns="http://www.w3.org/2000/svg" xmlns:xlink="http://www.w3.org/1999/xlink" x="0px" y="0px"
	 width="356.7px" height="245.8px" viewBox="414 980 356.7 245.8" enable-background="new 414 980 356.7 245.8"
	 xml:space="preserve">
<rect x="414" y="980" fill="#F6F8FC" width="356.7" height="245.8"/>
<g>
	<path d="M490.9,1076h-14.1v43.5h-5.8V1076h-13.8v-5.2h33.7V1076z"/>
	<path d="M517.3,1084.7l-16,40.2c-2.8,7.2-6.8,10.8-11.9,10.8c-1.5,0-2.6-0.1-3.6-0.4v-4.9c1.3,0.4,2.3,0.6,3.3,0.6
		c2.8,0,4.9-1.8,6.3-5l2.8-6.5l-13.4-34.6h6.2l9.4,26.6c0.1,0.4,0.4,1.3,0.6,2.6h0.1c0.1-0.5,0.4-1.4,0.6-2.5l9.8-26.8h5.9V1084.7z
		 M526.4,1114.3h-0.1v21h-5.5v-50.6h5.5v6h0.1c2.8-4.6,6.8-6.9,11.9-6.9c4.4,0,7.9,1.5,10.4,4.6c2.5,3,3.8,7.3,3.8,12.4
		c0,5.8-1.5,10.4-4.3,13.9s-6.7,5.2-11.6,5.2C532.3,1120.3,528.9,1118.2,526.4,1114.3L526.4,1114.3z M526.2,1100.4v4.9
		c0,2.9,0.9,5.3,2.8,7.3c1.9,2,4.1,3,7,3c3.4,0,6-1.3,7.9-3.9c1.9-2.5,2.8-6.2,2.8-10.8c0-3.9-0.9-6.9-2.6-9
		c-1.8-2.3-4.1-3.3-7.3-3.3c-3.3,0-5.8,1.1-7.8,3.4C527.2,1094.2,526.2,1097,526.2,1100.4L526.2,1100.4z M586.5,1103.4H562
		c0.1,3.9,1.1,6.8,3,8.9c2,2.1,4.6,3.1,8.2,3.1c3.9,0,7.5-1.3,10.8-3.9v5.2c-3,2.3-7,3.4-12.1,3.4c-4.9,0-8.7-1.5-11.6-4.6
		s-4.1-7.7-4.1-13.2c0-5.4,1.5-9.8,4.6-13.2c3-3.4,6.8-5.2,11.3-5.2c4.5,0,8,1.5,10.6,4.4s3.8,7,3.8,12.2V1103.4z M580.8,1098.8
		c0-3.3-0.8-5.8-2.3-7.5c-1.5-1.8-3.6-2.6-6.3-2.6c-2.6,0-4.9,0.9-6.7,2.8c-1.8,1.9-3,4.4-3.4,7.3h18.6V1098.8z M589.2,1117.7v-3.9
		c3.5,2.3,7,3.4,10.6,3.4c3.8,0,6.7-0.8,8.7-2.4c2-1.6,2.9-3.8,2.9-6.5c0-2.5-0.6-4.4-2-6c-1.3-1.5-4.1-3.5-8.5-6
		c-4.9-2.9-8-5.3-9.3-7.2c-1.3-2-2-4.1-2-6.7c0-3.4,1.4-6.3,4-8.7c2.6-2.4,6.3-3.6,10.7-3.6c2.9,0,5.8,0.5,8.7,1.5v3.5
		c-2.8-1.3-5.9-2-9.2-2c-3.4,0-5.9,0.9-7.9,2.5c-2,1.8-2.9,3.8-2.9,6.3s0.6,4.4,2,5.9c1.3,1.5,4.1,3.5,8.5,6c4.5,2.5,7.5,4.9,9,6.8
		c1.5,2,2.3,4.3,2.3,6.9c0,3.8-1.3,6.8-3.9,9.2c-2.5,2.4-6.3,3.5-10.9,3.5c-1.8,0-3.6-0.3-5.8-0.8
		C592,1118.7,590.3,1118.4,589.2,1117.7L589.2,1117.7z M643.7,1117.9c-2.5,1.5-5.7,2.4-9.2,2.4c-4.6,0-8.5-1.6-11.4-4.9
		c-2.9-3.3-4.4-7.4-4.4-12.7c0-5.5,1.6-10.1,4.9-13.4c3.3-3.5,7.4-5.3,12.6-5.3c2.6,0,5.2,0.5,7.7,1.6v3.5c-2.5-1.5-5.2-2.3-8.2-2.3
		c-4.1,0-7.3,1.5-9.9,4.4c-2.5,2.9-3.8,6.8-3.8,11.3s1.3,8.2,3.5,10.8c2.3,2.8,5.4,4.1,9.2,4.1c3.5,0,6.5-0.9,9-2.8V1117.9
		L643.7,1117.9z M664.3,1088c-1-0.8-2.3-1.1-3.6-1.1c-2.8,0-5,1.5-6.8,4.3c-1.9,2.8-2.8,6.8-2.8,12.1v16.3h-3v-34.8h3v7.7h0.1
		c0.8-2.6,2-4.6,3.8-6.2c1.8-1.5,3.6-2.3,6-2.3c1.3,0,2.5,0.1,3.4,0.6L664.3,1088L664.3,1088z M669.4,1076c-0.6,0-1.3-0.3-1.8-0.8
		c-0.5-0.5-0.8-1.1-0.8-1.9c0-0.8,0.3-1.4,0.8-1.8c0.5-0.4,1.1-0.6,1.8-0.6c0.6,0,1.3,0.3,1.9,0.6c0.5,0.4,0.8,1,0.8,1.8
		c0,0.6-0.3,1.4-0.8,1.9C670.6,1075.8,670,1076,669.4,1076z M667.7,1119.4v-34.7h3v34.7H667.7z M681.6,1113.2h-0.1v22.1h-3v-50.6h3
		v7.2h0.1c1.3-2.5,3-4.5,5.3-5.9s4.9-2,7.7-2c4.4,0,7.9,1.5,10.3,4.5c2.5,3,3.6,7.2,3.6,12.4c0,5.8-1.5,10.6-4.3,14.1
		c-2.8,3.6-6.5,5.4-11.2,5.4C687.8,1120.3,684.1,1118,681.6,1113.2z M681.4,1100.4v4.4c0,3.5,1.1,6.5,3.3,8.9c2.3,2.5,5,3.8,8.7,3.8
		c3.5,0,6.4-1.5,8.7-4.5s3.4-7,3.4-11.9c0-4.4-1-7.8-3-10.3c-2-2.5-4.6-3.9-8.2-3.9c-4,0-7.2,1.4-9.4,4.1
		C682.4,1093.6,681.4,1096.6,681.4,1100.4z M727.4,1118.9c-1.6,0.8-3.1,1.1-4.5,1.1c-5.2,0-7.7-3-7.7-9.2v-23.1h-6.3v-2.8h6.3v-9
		l1.5-0.5l1.5-0.5v10.1h9.2v2.8h-9.2v22.7c0,2.4,0.4,4.1,1.1,5.2c0.8,1.1,2,1.6,3.9,1.6c1.3,0,2.6-0.4,4.1-1.3V1118.9L727.4,1118.9z
		"/>
</g>
</svg>
