<?xml version="1.0" encoding="utf-8"?>
<!-- Generator: Adobe Illustrator 18.0.0, SVG Export Plug-In . SVG Version: 6.00 Build 0)  -->
<!DOCTYPE svg PUBLIC "-//W3C//DTD SVG 1.1//EN" "http://www.w3.org/Graphics/SVG/1.1/DTD/svg11.dtd">
<svg version="1.1" id="Layer_1" xmlns="http://www.w3.org/2000/svg" xmlns:xlink="http://www.w3.org/1999/xlink" x="0px" y="0px"
	 width="356.7px" height="245.8px" viewBox="0 0 356.7 245.8" enable-background="new 0 0 356.7 245.8" xml:space="preserve">
<g>
	<rect x="0" y="0.3" fill="#F6F8FC" width="356.7" height="245.8"/>
	<g>
		<path fill="#945C87" d="M26,99.7c0.4-0.4,0.9-0.8,1.1-1.2c1.9-3.9,5.1-5.6,9.4-5.6c27.3,0,54.7,0,82,0c6.7,0,10.3,3.6,10.3,10.4
			c0,10.2,0,20.5,0,30.7c0,5.7-3.8,9.6-9.5,9.6c-9,0.1-17.9,0-26.9,0c-0.9,0-1.8,0-3.2,0c1.3,3.3,2.4,6.2,3.7,9.7
			c-4.6-2.5-8.8-4.7-12.8-7.1c-3-1.8-6-2.7-9.5-2.7c-11.2,0.2-22.3,0-33.5,0.1c-5,0-8.7-1.8-10.4-6.7c-0.1-0.3-0.5-0.4-0.7-0.6
			C26,124.1,26,111.9,26,99.7z M52.8,120.1c0.5,1.4,0.8,2.3,1.1,3.2c1.9,5.3,4.2,10.4,8.3,14.4c1,0.9,3,1.6,4.2,1.2
			c1-0.3,1.5-2.3,2-3.6c0.3-0.9,0-2,0.1-3c0.4-9.6,1.4-19.1,5-28.1c1.1-2.8,0.6-4.6-1.6-5.6c-2.2-1-4.1-0.2-5.2,2.5
			c-1.2,2.9-2.2,5.9-2.9,8.9c-0.9,3.9-1.5,7.8-2.2,11.7c-1.5-3.6-2.4-7.3-3.4-10.9c-0.6-2.1-0.3-4.9-3.4-5.2
			c-2.9-0.3-3.7,2.2-4.7,4.2c-2.7,5-5.2,10-8.1,15.6c-0.5-2.3-1-4.1-1.4-5.9c-1-5.3-1.8-10.7-2.8-16c-0.6-3-2.6-4.1-5.2-3
			c-2.4,1.1-2.3,3.2-2,5.2c1.3,7,2.5,14,4,20.9c0.7,3.2,1.6,6.4,2.7,9.5c1.4,4,3.8,4.3,6.4,1.1c1-1.2,1.9-2.6,2.6-4
			C48.4,128.9,50.4,124.7,52.8,120.1z M123.9,115.4c-0.1-0.8-0.2-2.4-0.6-3.8c-1.2-4.5-3.7-7.8-8.5-8.7c-4.8-0.9-8.5,1-11.2,4.8
			c-3.6,5-5,10.7-4,16.8c0.9,5.5,4,9,8.8,10c4.7,1,9.1-1,12-5.7C122.8,125,123.9,120.7,123.9,115.4z M72.7,121
			c0.6,2.4,0.8,4.8,1.7,7.1c2.9,7.4,12.1,9.2,17.5,3.4c5.5-6.1,7.2-13.4,4.7-21.3c-2.6-8.1-12-10-17.9-3.9
			C74.6,110.3,73.1,115.4,72.7,121z"/>
		<path d="M330.7,132.8c-5.2,0-10.4,0-15.8,0c0-9.4,0-18.7,0-28.7c5.3,0.3,10.5,0.5,15.8,0.8c0,1.7,0,3.4,0,5.1
			c-2.7,0.2-5.4,0.4-8.2,0.6c0,1.7,0,3.4,0,5.3c2.3,0,4.4,0,6.6,0c0,2,0,3.7,0,5.8c-2.3,0-4.4,0-6.6,0c0,1.9,0,3.6,0,5.6
			c2.8,0,5.5,0,8.2,0C330.7,129,330.7,130.9,330.7,132.8z"/>
		<path d="M191.6,114.7c-0.6,5.9-1.2,11.9-1.8,18c-2.4,0-4.7,0-7.2,0c1.2-9.4,2.4-18.8,3.6-28.4c2.9,0,5.7-0.1,8.5,0.1
			c0.5,0,1.3,0.9,1.4,1.5c0.9,3.9,1.7,7.8,2.5,11.6c0.1,0.5,0.2,0.9,0.8,1.4c0.9-4,2-8,2.7-12.1c0.4-2,1.1-2.8,3.1-2.5
			c1,0.1,2,0,3,0c4.4,0,4.4,0,5,4.3c1,7.5,2,15.1,3,22.6c0.1,0.5,0,1,0,1.6c-2.4,0-4.7,0-7.3,0c-0.7-6.1-1.3-12.1-1.9-18
			c-0.2,0-0.4,0-0.6-0.1c-1.5,6-2.9,12-4.4,17.9c-0.2,0.1-0.4,0.3-0.5,0.3c-4.6,0.4-4.6,0.4-5.7-4c-1.2-4.7-2.4-9.4-3.6-14.1
			C192.1,114.7,191.8,114.7,191.6,114.7z"/>
		<path d="M237.1,132.8c-5,0.4-5.1,0.4-6.2-4c-1.2-4.7-2.4-9.4-4.2-14.1c-0.6,6-1.2,11.9-1.9,18c-2.3,0-4.6,0-7.1,0
			c0.5-4.1,1-8.2,1.6-12.3c0.6-4.7,1.3-9.4,1.8-14.1c0.2-1.6,0.7-2.2,2.4-2.1c2.4,0.1,4.9,0,7.6,0c1,4.9,2.1,9.8,3.1,14.6
			c0.2,0,0.3,0,0.5,0c1.1-4.8,2.2-9.6,3.3-14.5c3.4,0,6.6,0,9.9,0c0.9,6.5,1.8,13,2.6,19.4c0.4,2.9,0.8,5.8,1.1,8.9
			c-2.5,0-4.9,0-7.5,0c-0.6-6-1.3-12-1.9-18c-0.2,0-0.4-0.1-0.6-0.1C240.1,120.6,238.6,126.7,237.1,132.8z"/>
		<path d="M156.7,117.8c0.3-1.6,0.4-3.9,1-6.1c1.4-5,5.4-8,10.6-8.2c6-0.3,10.1,2.1,12.1,7.2c2,5.2,2,10.4,0,15.6
			c-2.1,5.3-6.9,8-12.6,7.2c-6.1-0.8-9.6-4.3-10.7-10.7C156.9,121.4,156.9,119.9,156.7,117.8z M164.7,118.6c0.3,2.1,0.2,4.1,0.9,5.7
			c0.6,1.2,2.2,2.7,3.3,2.7c1.2,0.1,3.2-1.2,3.6-2.4c1.5-4,1.7-8.3-0.1-12.3c-0.5-1.1-2.4-2.3-3.5-2.2c-1.2,0.1-2.8,1.5-3.4,2.7
			C164.9,114.7,165,116.8,164.7,118.6z"/>
		<path d="M279.6,120.8c0,3.9,0,7.8,0,11.9c-2.6,0-4.9,0-7.4,0c0-9.4,0-18.7,0-28.8c4.8,0.4,9.7,0.4,14.4,1.2
			c3.1,0.5,5.4,2.9,5.9,6.3c0.6,3.8-1.1,6.5-4.5,8.6c2,4.2,3.9,8.4,6.1,12.9c-2.5,0-4.7,0.1-6.9-0.1c-0.6-0.1-1.4-0.8-1.7-1.4
			c-1.5-2.8-2.8-5.8-4.2-8.6c-0.3-0.7-0.7-1.4-1.1-2.1C280,120.7,279.8,120.8,279.6,120.8z M279.7,117.2c1.9-1,3.6-1.5,4.7-2.6
			c0.5-0.5,0.3-2.6-0.3-3.2c-1.1-1-2.7-1.4-4.4-2.1C279.7,112.2,279.7,114.3,279.7,117.2z"/>
		<path d="M268.3,115.6c0,2.1,0,3.8,0,5.9c-2.2,0-4.3,0-6.6,0c0,1.9,0,3.5,0,5.4c2.6,0,5.1,0,7.8,0c0,2.1,0,3.8,0,5.8
			c-5.1,0-10.1,0-15.3,0c0-9.3,0-18.7,0-28.3c5,0,10.1,0,15.2,0c0,1.9,0,3.7,0,5.8c-2.6,0-5,0-7.7,0c0,1.9,0,3.4,0,5.3
			C263.9,115.6,266,115.6,268.3,115.6z"/>
		<path d="M155,126.6c0,0.8,0,1.5,0,2.2c0,4.8-0.1,4.9-4.9,4.8c-9.2-0.2-15.3-7.5-14.4-17.1c0.9-8.8,8.7-14.6,17.5-12.8
			c0.7,0.1,1.6,1.1,1.7,1.8c0.3,1.5,0.1,3.2,0.1,4.8c-8.3-0.3-11.3,2-11.2,8.3C143.9,124.8,147.2,127.1,155,126.6z"/>
		<path d="M312.4,104.2c0,2.1,0,4.1,0,6.1c-8.6,0-11.7,2.7-11,9.4c0.5,5.4,4.4,7.8,11.1,6.6c0,1.9,0.1,3.7-0.1,5.5
			c0,0.5-0.8,1.2-1.3,1.4c-4.6,1-8.9,0.2-12.6-2.9c-5.3-4.4-6.9-13-3.7-19.2C297.9,105.1,304.9,102.3,312.4,104.2z"/>
		<path fill="#FFFFFF" d="M52.8,120.1c-2.3,4.6-4.4,8.8-6.6,12.9c-0.7,1.4-1.6,2.8-2.6,4c-2.7,3.2-5,2.9-6.4-1.1
			c-1.1-3.1-2-6.3-2.7-9.5c-1.4-7-2.7-13.9-4-20.9c-0.4-2-0.4-4.1,2-5.2c2.5-1.1,4.6,0,5.2,3c1,5.3,1.9,10.7,2.8,16
			c0.3,1.8,0.8,3.6,1.4,5.9c2.9-5.5,5.4-10.6,8.1-15.6c1-2,1.8-4.5,4.7-4.2c3.1,0.3,2.9,3.1,3.4,5.2c1,3.7,1.9,7.3,3.4,10.9
			c0.7-3.9,1.3-7.8,2.2-11.7c0.7-3,1.7-6,2.9-8.9c1.1-2.7,3.1-3.4,5.2-2.5c2.2,1,2.7,2.8,1.6,5.6c-3.6,9-4.6,18.5-5,28.1
			c0,1,0.2,2.1-0.1,3c-0.4,1.3-1,3.3-2,3.6c-1.2,0.4-3.2-0.2-4.2-1.2c-4.1-3.9-6.4-9-8.3-14.4C53.5,122.4,53.2,121.5,52.8,120.1z"/>
		<path fill="#FFFFFF" d="M123.9,115.4c0.1,5.3-1.1,9.6-3.5,13.5c-2.9,4.6-7.3,6.6-12,5.7c-4.7-1-7.9-4.5-8.8-10
			c-1-6.1,0.3-11.8,4-16.8c2.7-3.8,6.4-5.7,11.2-4.8c4.8,0.9,7.4,4.1,8.5,8.7C123.7,113,123.8,114.5,123.9,115.4z M116.6,116.2
			c-0.3-0.9-0.6-2.5-1.2-4c-1.1-2.5-3-2.8-5-1c-3.4,3.2-4.7,9.4-2.7,13.6c1.2,2.5,2.9,2.9,5,1.1
			C115.6,123.6,116.2,120.3,116.6,116.2z"/>
		<path fill="#FFFFFF" d="M72.7,121c0.5-5.6,2-10.6,5.9-14.7c5.9-6.1,15.3-4.2,17.9,3.9c2.6,7.8,0.9,15.2-4.7,21.3
			c-5.3,5.9-14.5,4-17.5-3.4C73.5,125.8,73.2,123.3,72.7,121z M90.2,116.2c-0.3-1-0.5-2.7-1.2-4.2c-1-2.2-2.9-2.5-4.7-1
			c-3.6,2.9-5.1,10.1-2.9,14.2c1.2,2.2,2.8,2.5,4.8,1C89.1,123.8,89.9,120.5,90.2,116.2z"/>
		<path fill="#945C87" d="M116.6,116.2c-0.4,4.1-1,7.4-3.8,9.8c-2.1,1.8-3.8,1.4-5-1.1c-2-4.2-0.7-10.4,2.7-13.6c2-1.8,3.9-1.5,5,1
			C116,113.7,116.3,115.3,116.6,116.2z"/>
		<path fill="#945C87" d="M90.2,116.2c-0.3,4.3-1.1,7.5-4,9.9c-1.9,1.6-3.6,1.2-4.8-1c-2.2-4.1-0.7-11.3,2.9-14.2
			c1.8-1.5,3.8-1.1,4.7,1C89.7,113.5,89.9,115.2,90.2,116.2z"/>
	</g>
</g>
</svg>
