<?xml version="1.0" encoding="utf-8"?>
<!-- Generator: Adobe Illustrator 18.0.0, SVG Export Plug-In . SVG Version: 6.00 Build 0)  -->
<!DOCTYPE svg PUBLIC "-//W3C//DTD SVG 1.1//EN" "http://www.w3.org/Graphics/SVG/1.1/DTD/svg11.dtd">
<svg version="1.1" id="Layer_1" xmlns="http://www.w3.org/2000/svg" xmlns:xlink="http://www.w3.org/1999/xlink" x="0px" y="0px"
	 width="356.7px" height="245.8px" viewBox="0 0 356.7 245.8" enable-background="new 0 0 356.7 245.8" xml:space="preserve">
<g>
	<rect fill="#F6F8FC" width="356.7" height="245.8"/>
	<g>
		<path d="M73.9,122.9c-0.1,14.3-11.8,25.5-25.6,25.3c-13.9-0.1-25.3-11.5-25.1-25.8c0.2-13.9,11.7-25.1,25.6-24.9
			C62.4,97.7,73.8,108.7,73.9,122.9z M63.7,106c-4-4-11.6-7.1-19.7-5.4c-2.9,0.6-5.6,1.8-8.1,3.4c-2.7,1.8-5.8,5.1-6.1,6.3
			c0.4,0,0.9,0.1,1.3,0.1c1.2,0,2.5-0.1,3.7-0.1c0.8,0,1.5-0.1,2.3-0.2c0.6,0,1,0.3,1,0.8c0.1,0.5-0.2,0.9-0.8,1.1
			c-0.3,0.1-0.6,0.1-0.9,0.1c-0.5,0.1-1.1,0.1-1.7,0.2c2.7,8.2,5.5,16.2,8.2,24.5c0.1-0.3,0.2-0.4,0.2-0.5c1.5-4.6,3.1-9.2,4.6-13.8
			c0.1-0.4,0.1-0.7,0-1c-1.1-2.9-2.1-5.7-3.1-8.6c-0.1-0.2-0.2-0.4-0.2-0.6c-0.2,0-0.3,0-0.4-0.1c-0.7-0.1-1.4-0.1-2.1-0.2
			c-0.5-0.1-0.8-0.5-0.7-1.1c0.1-0.5,0.5-0.9,1.1-0.8c0.8,0,1.5,0.1,2.3,0.2c2.5,0.2,4.9,0.2,7.4,0c0.8-0.1,1.5-0.1,2.3-0.2
			c0.6,0,1,0.3,1,0.8c0.1,0.6-0.2,0.9-0.8,1.1c-0.3,0.1-0.6,0.1-0.9,0.1c-0.6,0.1-1.1,0.1-1.8,0.2c2.7,8.1,5.4,16.1,8.2,24.3
			c0.1-0.4,0.2-0.5,0.2-0.7c0.3-1.1,0.7-2.2,1-3.4c0.7-2.3,1.5-4.5,2.1-6.8c0.6-2.1,0.8-4.2,0.3-6.3c-0.3-1.5-1-2.8-1.7-4.1
			c-0.5-0.8-1-1.7-1.4-2.5c-0.4-0.7-0.6-1.5-0.7-2.3c-0.2-2.1,1.2-4.2,3.5-4.4C63.4,106.1,63.5,106,63.7,106z M42.1,144.7
			c4.7,1.3,9.3,1.2,13.9-0.3c-2.4-6.5-4.7-12.8-7-19.2c0,0-0.1,0-0.1,0C46.6,131.7,44.4,138.1,42.1,144.7z M27.8,113.7
			c-5,10.9-0.1,24.4,10.8,29.5C34.9,133.4,31.4,123.6,27.8,113.7z M68.7,112.4c0,0.3,0,0.5,0,0.7c0.1,1.8,0,3.6-0.5,5.4
			c-0.4,1.4-0.8,2.8-1.3,4.2c-2.2,6.4-4.4,12.8-6.6,19.2c-0.1,0.2-0.1,0.3-0.1,0.5C71.5,135.8,73.9,121.6,68.7,112.4z"/>
		<path d="M97.3,111.4c1.7,0,3.4,0,5.1,0c1.7,6.3,3.3,12.7,5,19c0,0,0.1,0,0.1,0c1.6-6.3,3.3-12.7,5-19c1.5,0,3.1,0,4.6,0
			c-2.4,8.4-4.8,16.8-7.2,25.3c-1.8,0-3.6,0-5.4,0c-1.3-4.4-2.5-8.8-3.8-13.2c0,0-0.1,0-0.1,0c-1.3,4.4-2.7,8.8-4,13.2
			c-1.8,0-3.5,0-5.4,0c-2.3-8.4-4.6-16.8-6.9-25.3c0.2,0,0.3,0,0.4,0c1.5,0,3,0,4.5,0c1.6,6.6,3.2,13.1,4.8,19.7c0,0,0.1,0,0.1,0
			c0.1-0.2,0.1-0.3,0.2-0.5c1.4-4.8,2.7-9.7,4.1-14.5c0.1-0.4,0.1-0.7,0-1.1c-0.3-1-0.6-2-0.9-3C97.4,111.9,97.3,111.7,97.3,111.4z"
			/>
		<path d="M321.9,136.8c-1.5,0-3,0-4.5,0c0-0.3,0-0.5,0-0.8c0-3.3,0-6.7,0-10c0-0.7,0-1.3-0.1-2c-0.2-1.3-1-2-2.4-1.9
			c-0.7,0-1.3,0.2-2,0.4c-0.7,0.3-1.4,0.7-2.1,1c-0.4,0.2-0.5,0.4-0.5,0.9c0,1.7,0,3.4,0,5.1c0,2.1,0,4.3,0,6.4c0,0.2,0,0.5,0,0.7
			c-0.5,0.2-3.7,0.2-4.5,0c0-5.9,0-11.9,0-17.9c1.4,0,2.8,0,4.3,0c0,0.5,0,1.1,0,1.7c0.3-0.2,0.6-0.3,0.8-0.5
			c1.4-0.8,2.8-1.5,4.4-1.7c1.1-0.2,2.3,0,3.3,0.4c0.9,0.3,1.7,1,2.2,1.8c0.1,0.1,0.2,0.3,0.3,0.4c0.2-0.1,0.4-0.3,0.6-0.4
			c1.2-0.8,2.5-1.5,3.9-1.9c1.5-0.5,3-0.5,4.4,0.1c1.9,0.8,2.9,2.3,3.3,4.3c0.1,0.5,0.1,1.1,0.1,1.6c0,3.8,0,7.7,0,11.5
			c0,0.2,0,0.3,0,0.5c-1.5,0.1-2.9,0-4.5,0c0-0.3,0-0.6,0-0.8c0-3.3,0-6.5,0-9.8c0-0.5,0-1.1-0.1-1.6c0-0.1,0-0.2,0-0.3
			c-0.3-1.6-1.3-2.3-2.9-2.1c-1.4,0.2-2.7,0.9-3.8,1.6c-0.2,0.1-0.3,0.3-0.3,0.5c0,0.2,0,0.3,0,0.5c0,3.7,0,7.5,0,11.2
			C321.9,136.2,321.9,136.4,321.9,136.8z"/>
		<path d="M178.7,136.8c-1.6,0-3.2,0-4.8,0c0-8.4,0-16.8,0-25.3c0.2,0,0.4-0.1,0.5-0.1c2.8,0,5.6,0,8.4,0c1.6,0,3.2,0.4,4.7,1.1
			c2.1,1.1,3.3,2.8,3.8,5c0.3,1.4,0.3,2.9-0.1,4.3c-0.7,2.8-2.5,4.6-5.2,5.5c-1.1,0.4-2.3,0.6-3.5,0.6c-1,0-2.1,0-3.1,0
			c-0.2,0-0.4,0-0.7,0C178.7,130.9,178.7,133.8,178.7,136.8z M178.7,115.2c0,3,0,6,0,8.9c0.7,0.1,3.4,0.1,4.3,0
			c1.7-0.2,2.8-1.2,3.2-2.9c0.2-0.8,0.2-1.6,0.2-2.5c-0.2-2-1.4-3.4-3.4-3.6C181.6,115.1,180.2,115.2,178.7,115.2z"/>
		<path d="M163.9,118.6c0-2.4,0-4.8,0-7.2c1.5,0,3,0,4.4,0c0.1,0.5,0.2,24.4,0,25.3c-1.4,0-2.8,0-4.2,0c0-0.5,0-0.9,0-1.5
			c-0.2,0.1-0.4,0.2-0.5,0.3c-1.5,1-3.1,1.6-4.9,1.7c-3.1,0.1-5.7-1.3-6.9-4.3c-1.2-3.2-1.1-6.5,0.3-9.7c1.3-2.8,3.6-4.3,6.7-4.8
			c1.6-0.2,3.1-0.1,4.6,0.2c0.1,0,0.2,0,0.3,0C163.7,118.7,163.7,118.7,163.9,118.6z M163.9,122.5c-1.2-0.5-2.4-0.7-3.6-0.5
			c-2,0.2-3.4,1.1-4.1,3c-0.8,2-0.8,4.1-0.1,6.1c0.7,2,2.4,2.9,4.4,2.5c1.1-0.2,2.1-0.9,3-1.6c0.3-0.3,0.5-0.6,0.4-1
			c0-2.6,0-5.2,0-7.8C163.9,122.9,163.9,122.7,163.9,122.5z"/>
		<path d="M125.6,118.3c1.2,0,2.3,0.1,3.5,0.5c2.3,0.8,3.9,2.3,4.8,4.5c1.1,2.8,1.1,5.7,0.1,8.5c-0.9,2.6-2.8,4.3-5.5,5
			c-1.9,0.5-3.8,0.5-5.7,0c-2.9-0.7-4.9-2.5-5.8-5.4c-0.8-2.5-0.8-5.1,0-7.6c1-3.2,3.3-4.9,6.6-5.5c0.3-0.1,0.7-0.1,1-0.1
			C125,118.3,125.3,118.3,125.6,118.3z M130.1,127.8c-0.1-1.2-0.2-2.3-0.6-3.4c-0.3-0.8-0.9-1.5-1.6-1.9c-2.5-1.4-5.6-0.1-6.4,2.7
			c-0.4,1.3-0.4,2.7-0.2,4.1c0.1,0.7,0.3,1.5,0.6,2.2c0.3,0.7,0.8,1.2,1.5,1.6c2.5,1.5,5.6,0.2,6.4-2.6
			C129.9,129.6,129.9,128.7,130.1,127.8z"/>
		<path d="M284,127.1c0.1-0.7,0.2-1.9,0.6-2.9c1-3.3,3.3-5.2,6.7-5.7c1.6-0.3,3.2-0.2,4.7,0.2c3.1,0.8,5.1,2.7,5.9,5.8
			c0.6,2.3,0.6,4.6-0.1,6.9c-1,3.4-3.4,5.3-6.8,5.8c-1.6,0.2-3.3,0.2-4.9-0.3c-2.5-0.7-4.3-2.3-5.3-4.8
			C284.2,130.6,284.1,129.1,284,127.1z M288.6,127.8c0.1,1.1,0.2,2.1,0.5,3.1c0.5,1.5,1.6,2.5,3.2,2.7c1.1,0.1,2.1,0,3.1-0.5
			c0.9-0.5,1.4-1.3,1.7-2.3c0.6-2,0.6-4,0-5.9c-0.5-1.7-1.6-2.6-3.3-2.8c-2.3-0.2-4.1,0.6-4.8,3.2
			C288.8,126,288.7,126.9,288.6,127.8z"/>
		<path d="M222.8,132.5c0,1.3,0,2.5,0,3.7c-0.9,0.3-1.9,0.6-2.9,0.7c-2.1,0.3-4.1,0.5-6.2,0.1c-3.5-0.6-5.6-2.6-6.4-6
			c-0.5-2.4-0.6-4.8,0.3-7.1c1.3-3.4,3.8-5.2,7.4-5.5c1.1-0.1,2.3,0,3.4,0.3c2.8,0.8,4.6,3,5,6c0.2,1.3,0.1,2.6,0,3.8
			c0,0.1,0,0.1-0.1,0.3c-3.8,0-7.5,0-11.3,0c-0.3,1.8,0.7,3.7,2.4,4.4c1.1,0.4,2.3,0.5,3.5,0.5c1.5-0.1,2.9-0.4,4.3-0.9
			C222.4,132.6,222.5,132.6,222.8,132.5z M218.7,125.7c0.1-0.9-0.1-1.9-0.5-2.6c-0.3-0.6-0.8-1-1.4-1.2c-2.4-0.9-5.1,1.2-4.9,3.8
			C214.2,125.7,216.4,125.7,218.7,125.7z"/>
		<path d="M239.2,119c0,1.2,0,2.4,0,3.7c-0.3-0.1-0.5-0.1-0.7-0.2c-1.6-0.4-3.1-0.7-4.7-0.6c-0.5,0-1,0.2-1.5,0.4
			c-0.6,0.2-1,0.7-1.1,1.4c0,0.7,0.4,1.1,0.9,1.4c0.6,0.3,1.2,0.5,1.9,0.7c0.9,0.3,1.8,0.6,2.6,0.9c0.3,0.1,0.7,0.3,1,0.5
			c1.9,1.1,2.8,2.7,2.5,5.1c-0.2,1.9-1.3,3.3-3.1,4c-1.8,0.8-3.7,0.9-5.7,0.9c-1.4-0.1-2.8-0.4-4.2-0.9c-0.1-0.1-0.3-0.1-0.5-0.2
			c0-1.2,0-2.4,0-3.6c0.2,0,0.4,0.1,0.5,0.1c1.3,0.3,2.6,0.6,3.9,0.9c0.9,0.2,1.8,0.1,2.7-0.1c0.3-0.1,0.7-0.2,0.9-0.4
			c0.9-0.6,1-1.9,0.2-2.5c-0.4-0.3-0.8-0.5-1.2-0.7c-0.8-0.3-1.6-0.5-2.4-0.8c-0.8-0.3-1.5-0.6-2.2-1c-3.3-1.7-3.3-6.7,0-8.5
			c1.2-0.7,2.6-1.1,4-1.2c2-0.1,3.9,0,5.8,0.5C238.9,118.9,239.1,119,239.2,119z"/>
		<path d="M255.5,119.1c0,1.2,0,2.4,0,3.6c-0.2,0-0.4-0.1-0.6-0.1c-1.6-0.4-3.2-0.7-4.8-0.6c-0.5,0-1,0.2-1.5,0.3
			c-0.6,0.2-1.1,0.7-1.1,1.4c0,0.7,0.4,1.2,0.9,1.4c0.6,0.3,1.2,0.5,1.8,0.7c0.8,0.3,1.7,0.5,2.5,0.8c0.3,0.1,0.7,0.3,1,0.4
			c2.9,1.5,3.6,5.3,1.5,7.8c-0.6,0.7-1.4,1.3-2.3,1.6c-3.3,1.1-6.6,1-9.8-0.3c0,0-0.1-0.1-0.1-0.1c0-1.2,0-2.4,0-3.6
			c0.3,0.1,0.5,0.1,0.7,0.2c1.2,0.3,2.5,0.6,3.7,0.8c0.9,0.2,1.8,0.1,2.7-0.1c0.3-0.1,0.7-0.2,1-0.4c1-0.6,1.1-1.9,0.1-2.6
			c-0.5-0.3-1-0.6-1.6-0.8c-0.9-0.4-1.9-0.6-2.8-1c-0.9-0.3-1.7-0.7-2.3-1.3c-0.7-0.6-1.2-1.4-1.4-2.3c-0.6-2.7,0.4-4.7,2.6-5.8
			c1.1-0.6,2.4-0.9,3.6-1c1.9-0.1,3.8,0,5.7,0.5c0.1,0,0.2,0.1,0.3,0.1C255.3,119,255.4,119,255.5,119.1z"/>
		<path d="M281,119.2c0,1.3,0,2.5,0,3.8c-0.3-0.1-0.5-0.2-0.8-0.2c-1.5-0.5-3-0.8-4.5-0.7c-1.5,0.1-2.8,0.6-3.7,1.8
			c-0.5,0.7-0.8,1.6-0.9,2.5c-0.2,1.4-0.1,2.8,0.3,4.1c0.6,1.8,1.8,2.8,3.7,3c1.6,0.2,3.1,0,4.7-0.5c0.5-0.1,0.9-0.3,1.4-0.5
			c0.1,0.5,0.2,2.6,0.1,3.7c-0.8,0.2-1.6,0.5-2.5,0.7c-2.1,0.4-4.1,0.5-6.2,0c-3-0.7-5-2.5-5.8-5.5c-0.6-2.3-0.7-4.6,0-6.9
			c0.9-3.1,3-5,6-5.8C275.6,118,278.3,118.3,281,119.2z"/>
		<path d="M142.6,121.6c0.7-1.2,1.6-2.2,3-2.7c1-0.4,2.2-0.5,3.5-0.3c0.1,0.5,0.2,2.9,0.1,3.8c-0.5,0-1.1,0.1-1.6,0.1
			c-2.1,0.2-3.6,1.3-4.6,3.1c-0.1,0.3-0.2,0.6-0.2,0.9c0,3.1,0,6.1,0,9.2c0,0.3,0,0.5,0,0.8c-0.5,0.2-3.8,0.2-4.5,0
			c0-5.9,0-11.9,0-17.9c1.4,0,2.7,0,4.1,0c0,0.9,0,1.8,0,2.7C142.5,121.6,142.5,121.6,142.6,121.6z"/>
		<path d="M198.7,136.8c-1.5,0-3,0-4.4,0c0-6,0-11.9,0-17.9c0.5-0.1,3.3-0.2,4.1,0c0,0.9,0,1.8,0,2.7c0,0,0.1,0,0.1,0.1
			c0.8-1.3,1.8-2.4,3.4-2.8c1-0.3,2-0.3,3.1-0.2c0,1.3,0,2.6,0,3.9c-0.6,0.1-1.2,0.1-1.8,0.2c-2.1,0.2-3.5,1.4-4.4,3.2
			c-0.1,0.2-0.1,0.5-0.1,0.8c0,3.1,0,6.2,0,9.3C198.7,136.2,198.7,136.4,198.7,136.8z"/>
		<path d="M259.3,136.8c0-1.6,0-3.1,0-4.6c1.5,0,2.9,0,4.4,0c0,1.5,0,3,0,4.6C262.3,136.8,260.9,136.8,259.3,136.8z"/>
	</g>
</g>
</svg>
