<svg xmlns="http://www.w3.org/2000/svg" version="1.1" x="0" y="0" viewBox="0 0 60 60" xml:space="preserve" height="1em" width="1em" class="plasmic-default__svg plasmic_funus_all__MB227 PlasmicUtilIconText_svg__pBcGg__xVdZo" role="img" style="fill: #de4f4f;"><g fill="#de4f4f"><path d="M14.457 25.904c-1.93 0-3.5 1.57-3.5 3.5s1.57 3.5 3.5 3.5 3.5-1.57 3.5-3.5-1.57-3.5-3.5-3.5zm0 5c-.827 0-1.5-.673-1.5-1.5s.673-1.5 1.5-1.5 1.5.673 1.5 1.5-.673 1.5-1.5 1.5z"></path><path d="M59.965 32.904a5.967 5.967 0 00-1.536-3.995 7.001 7.001 0 00-.58-3.415 1 1 0 10-1.825.817c.158.354.266.722.338 1.096a5.97 5.97 0 00-2.396-.502c-.059 0-.11.024-.167.034-.112-.008-.219-.034-.333-.034-.246 0-.482.034-.717.072-1.874-4.454-5.11-8.074-9.437-10.554.419-1.257.645-2.579.645-3.922 0-6.893-5.607-12.5-12.5-12.5s-12.5 5.607-12.5 12.5c0 .94.108 1.863.309 2.756-.892.292-1.684.573-2.31.82-4.385-1.751-7.24-2.354-9.793-2.07a1.344 1.344 0 00-1.187 1.116 1.36 1.36 0 00.76 1.465c1.358.654 1.936 2.238 2.548 3.916.153.421.311.851.482 1.272-2.608 2.7-3.09 4.888-3.557 8.129h-1.26c-3.123 0-4.914 2.222-4.914 6.096v3.607c0 3.943 1.837 6.297 4.914 6.297h.617c.732 1.852 1.82 3.543 3.186 5.064l-1.381 3.452A4.066 4.066 0 0011.149 60h6.74c.852 0 1.607-.511 1.925-1.303l.367-.917c3.191.936 6.738 1.44 10.518 1.44 3.094 0 5.984-.393 8.616-1.128l.004.015A2.644 2.644 0 0041.866 60h6.017c1.434 0 2.731-.671 3.56-1.842s1.03-2.617.552-3.97l-1.171-3.319c2.649-3.27 4.143-7.347 4.143-11.966l-.003-.09c2.833-.476 5.001-2.941 5.001-5.909zm-6.133.963l-.169.013a2.291 2.291 0 00-.197.024 2.503 2.503 0 01-2.5-2.5c0-.156.019-.307.046-.455.008-.042.019-.083.028-.124.026-.111.06-.218.1-.323.014-.036.027-.073.043-.109.119-.267.283-.509.483-.718.035-.036.073-.07.111-.104a2.54 2.54 0 01.37-.284c.058-.036.12-.067.181-.098.069-.035.136-.073.209-.103l.009-.004c.285-.113.594-.18.918-.18 1.378 0 2.5 1.122 2.5 2.5a2.495 2.495 0 01-2.132 2.465zM31.457 2c5.79 0 10.5 4.71 10.5 10.5 0 1.256-.227 2.469-.645 3.608l-.155.375a10.683 10.683 0 01-2.096 3.239c-.124-.058-.254-.095-.379-.15a16.045 16.045 0 00-.888-.351c-.258-.094-.514-.19-.775-.271-.283-.086-.569-.153-.855-.223a15.744 15.744 0 00-1.573-.302c-.25-.035-.5-.079-.751-.102-.312-.029-.624-.035-.938-.045-.256-.008-.511-.016-.767-.012a15.825 15.825 0 00-1.747.131c-.27.035-.539.067-.807.116-.383.069-.762.161-1.141.258-.165.043-.333.073-.497.121-.55.161-1.092.357-1.625.58-.122.051-.24.113-.361.167-.428.191-.85.4-1.263.632-.059.033-.121.056-.179.09a10.389 10.389 0 01-.934-.943c-.04-.045-.075-.093-.114-.138a10.523 10.523 0 01-.731-.964l-.051-.077a10.582 10.582 0 01-1.186-2.46l-.109-.335a10.48 10.48 0 01-.432-2.945C20.957 6.71 25.667 2 31.457 2zM17.889 58h-6.74c-.698 0-1.322-.332-1.713-.909s-.467-1.281-.208-1.928l1.06-2.651c2.171 1.931 4.868 3.502 7.965 4.635l-.364.853zm31.92-.997a2.33 2.33 0 01-1.927.997h-6.017a.653.653 0 01-.63-.469l-.016-.052c3.171-1.145 5.901-2.822 8.073-4.936l.816 2.311a2.33 2.33 0 01-.299 2.149zm-1.648-6.191l-.024.026c-.404.41-.836.798-1.285 1.173-.109.091-.223.177-.335.266-.333.265-.678.519-1.033.765-.154.107-.307.216-.465.319-.451.294-.917.576-1.401.839-.164.089-.336.169-.503.254a22.005 22.005 0 01-1.74.8c-.452.184-.915.357-1.388.516-.105.035-.205.077-.311.111l-.042.013c-2.684.859-5.687 1.324-8.935 1.324-4.119 0-7.97-.666-11.344-1.86-.199-.07-.399-.138-.594-.211-5.708-2.162-9.943-5.889-11.553-10.57l-.232-.675H4.949c-2.409 0-2.914-2.336-2.914-4.297V36c0-4.096 2.193-4.096 2.914-4.096h3l.12-.862c.524-3.747.787-5.628 3.582-8.322l.517-.498-.306-.649c-.253-.537-.469-1.128-.698-1.755-.48-1.317-1.005-2.756-1.989-3.848 1.905.145 4.205.81 7.406 2.11l.382.155.38-.159a37.004 37.004 0 012.532-.915c.199.494.431.972.692 1.436l.061.109c.236.41.496.806.779 1.188.05.069.098.139.15.206.265.343.551.67.853.987.074.078.141.16.216.236.063.063.126.125.19.186-.542.416-1.07.857-1.566 1.352a.999.999 0 101.414 1.414 13.71 13.71 0 012.097-1.716l.16-.103c.305-.197.616-.379.932-.55.128-.069.258-.132.387-.197.252-.126.506-.244.763-.354.102-.043.202-.089.305-.13.363-.144.731-.273 1.102-.385.062-.019.125-.034.187-.052.363-.103.728-.194 1.097-.267l.105-.022a13.848 13.848 0 017.735.746l.072.029a13.69 13.69 0 014.515 3.001.997.997 0 001.414 0 .999.999 0 000-1.414 15.743 15.743 0 00-2.68-2.14c.081-.093.15-.194.228-.289.136-.166.272-.332.4-.506a13.24 13.24 0 00.638-.954c.118-.194.232-.389.339-.588.023-.043.051-.084.073-.127 3.829 2.25 6.701 5.487 8.376 9.447a4.496 4.496 0 00-.666.569 4.446 4.446 0 00-.895 1.328c-.013.029-.027.056-.039.085-.1.242-.178.494-.235.754-.01.047-.018.095-.026.143-.049.268-.083.54-.083.82 0 .298.032.587.088.869.019.095.053.183.078.275.048.182.097.364.167.537.042.104.098.2.147.3.074.15.149.299.239.439.064.099.137.19.208.283.097.127.194.252.304.368.082.087.17.167.259.248a4.333 4.333 0 001.079.726c.11.053.22.103.334.146a4.3 4.3 0 00.464.144c.118.031.234.063.356.084.049.009.095.027.145.034.089 1.006.134 2.027.134 3.044-.002 4.712-1.748 8.8-4.806 11.912zm6.742-14.031c-.021-.371-.062-.737-.094-1.105a4.489 4.489 0 003.081-3.522c.046.243.076.493.076.75a4 4 0 01-3.063 3.877z"></path><path d="M26.331 18.692a.998.998 0 001.403-.178 1 1 0 00-.178-1.403 6.344 6.344 0 01-2.482-5.043c0-3.52 2.863-6.383 6.383-6.383s6.383 2.863 6.383 6.383c0 1.792-.73 3.455-2.056 4.681a1 1 0 001.358 1.468 8.405 8.405 0 002.697-6.149c0-4.622-3.761-8.383-8.383-8.383s-8.383 3.761-8.383 8.383a8.334 8.334 0 003.258 6.624zm5.54 34.312c-4.542.393-8.312-.206-12.227-1.939a1 1 0 10-.809 1.829c3.386 1.499 6.781 2.222 10.513 2.222.878 0 1.776-.04 2.696-.12a1 1 0 00.91-1.082c-.048-.55-.535-.969-1.083-.91z"></path></g></svg>