<svg xmlns="http://www.w3.org/2000/svg" fill="none" viewBox="0 0 32 32" height="1em" width="1em" class="plasmic-default__svg plasmic_funus_all__MB227 PlasmicUtilSocialIcons_svg___7C9L__OjLF2" role="img"><path d="M32 0H0v32h32V0z" fill="#117EB8"></path><path fill-rule="evenodd" clip-rule="evenodd" d="M5.347 11.973h4.352V26H5.347V11.973zM7.524 5a2.526 2.526 0 012.522 2.527 2.527 2.527 0 01-2.522 2.528A2.526 2.526 0 015 7.527 2.526 2.526 0 017.524 5zm4.905 6.973h4.174v1.916h.058c.582-1.102 2.001-2.265 4.118-2.265 4.407 0 5.221 2.905 5.221 6.682V26h-4.35v-6.822c0-1.626-.029-3.719-2.26-3.719-2.265 0-2.613 1.772-2.613 3.602V26H12.43V11.973z" fill="#fff"></path></svg>