<svg width="415" height="199" viewBox="0 0 415 199" fill="none" xmlns="http://www.w3.org/2000/svg">
<path d="M168.964 -0.567609C170.09 -0.566703 170.09 -0.566703 171.239 -0.565778C172.012 -0.540198 172.785 -0.514619 173.582 -0.488264C174.304 -0.483228 175.027 -0.478193 175.771 -0.473005C178.452 -0.446976 181.132 -0.377168 183.812 -0.312482C189.814 -0.209357 195.816 -0.106232 202 1.77026e-05C202 16.83 202 33.66 202 51C208.244 50.9738 214.489 50.9477 220.923 50.9207C241.518 50.8379 262.114 50.7824 282.709 50.741C295.201 50.7152 307.692 50.68 320.183 50.6228C331.068 50.573 341.954 50.5407 352.84 50.5296C358.605 50.523 364.37 50.5077 370.136 50.4714C375.56 50.4375 380.985 50.427 386.409 50.4345C388.402 50.4331 390.395 50.4231 392.387 50.404C395.105 50.3792 397.822 50.3851 400.54 50.3987C401.331 50.3842 402.122 50.3696 402.937 50.3546C406.834 50.4077 408.809 50.8609 411.989 53.1771C414.275 56.3857 414.628 57.8734 414.635 61.7687C414.649 62.9211 414.663 64.0735 414.678 65.2608C414.662 67.1436 414.662 67.1436 414.647 69.0645C414.654 70.4068 414.663 71.7492 414.674 73.0916C414.696 76.7301 414.687 80.368 414.672 84.0066C414.659 87.8173 414.671 91.6279 414.679 95.4386C414.688 101.838 414.676 108.236 414.652 114.635C414.625 122.03 414.633 129.423 414.661 136.818C414.684 143.17 414.687 149.523 414.674 155.875C414.666 159.668 414.665 163.46 414.681 167.252C414.696 170.818 414.686 174.383 414.657 177.949C414.647 179.879 414.662 181.809 414.678 183.739C414.562 193.176 414.562 193.176 411.668 196.277C408.226 198.5 405.991 198.631 401.906 198.629C401.237 198.631 400.568 198.634 399.879 198.636C398.47 198.635 397.061 198.622 395.653 198.597C393.506 198.563 391.362 198.576 389.215 198.596C387.841 198.589 386.467 198.579 385.094 198.566C383.233 198.55 383.233 198.55 381.334 198.533C377.209 197.873 375.806 197.104 373 194C372.267 190.762 372.368 187.581 372.432 184.274C372.432 183.289 372.431 182.303 372.43 181.287C372.434 178.03 372.473 174.773 372.512 171.516C372.521 169.257 372.528 166.998 372.533 164.739C372.552 158.795 372.601 152.85 372.657 146.906C372.708 140.839 372.731 134.773 372.756 128.707C372.809 116.804 372.895 104.902 373 93C364.95 93.0612 356.901 93.1382 348.852 93.2357C345.115 93.2805 341.378 93.3197 337.64 93.3465C334.035 93.3724 330.43 93.4128 326.825 93.4632C325.448 93.4799 324.071 93.4914 322.694 93.4976C320.768 93.5072 318.843 93.5369 316.918 93.5676C315.821 93.5787 314.724 93.5898 313.594 93.6013C312.738 93.7329 311.882 93.8644 311 94C308.343 97.9858 308.731 101.448 308.76 106.074C308.758 107.002 308.756 107.931 308.754 108.888C308.751 110.906 308.752 112.925 308.756 114.943C308.762 118.137 308.753 121.331 308.739 124.525C308.702 133.608 308.683 142.69 308.695 151.772C308.7 157.326 308.682 162.879 308.649 168.433C308.641 170.55 308.642 172.667 308.653 174.784C308.667 177.746 308.651 180.706 308.628 183.667C308.639 184.542 308.651 185.417 308.663 186.319C308.597 190.685 308.406 192.47 305.669 196.043C302.235 198.561 300.141 198.645 295.906 198.664C295.237 198.669 294.568 198.674 293.879 198.679C292.47 198.682 291.061 198.673 289.653 198.652C287.505 198.625 285.362 198.652 283.215 198.684C281.841 198.68 280.467 198.674 279.094 198.664C277.853 198.658 276.612 198.653 275.334 198.647C270.937 197.794 269.702 196.563 267 193C266.291 189.747 266.367 186.571 266.432 183.253C266.432 182.277 266.431 181.301 266.43 180.295C266.434 177.075 266.473 173.856 266.512 170.637C266.521 168.402 266.528 166.167 266.533 163.932C266.552 158.055 266.601 152.178 266.657 146.3C266.708 140.301 266.731 134.302 266.756 128.303C266.809 116.535 266.895 104.768 267 93C258.933 93.1074 250.867 93.22 242.8 93.3394C239.055 93.3946 235.31 93.448 231.565 93.4973C227.953 93.5449 224.342 93.5973 220.73 93.653C219.349 93.6734 217.969 93.6921 216.588 93.7091C214.66 93.7331 212.733 93.7637 210.805 93.7947C209.156 93.818 209.156 93.818 207.474 93.8418C205.057 93.7229 205.057 93.7229 204 95C203.891 98.0225 203.846 101.023 203.842 104.046C203.837 104.996 203.832 105.945 203.827 106.924C203.816 108.993 203.808 111.063 203.801 113.133C203.789 116.406 203.77 119.68 203.748 122.953C203.686 132.263 203.632 141.573 203.599 150.883C203.578 156.571 203.542 162.258 203.498 167.946C203.484 170.117 203.475 172.287 203.472 174.458C203.467 177.494 203.444 180.53 203.417 183.566C203.421 184.916 203.421 184.916 203.426 186.294C203.345 192.35 203.345 192.35 201.661 195.527C198.116 198.67 193.918 198.148 189.46 198.147C188.685 198.151 187.91 198.155 187.112 198.158C184.507 198.169 181.902 198.173 179.297 198.177C177.433 198.183 175.569 198.19 173.705 198.197C168.634 198.214 163.564 198.225 158.494 198.233C155.328 198.238 152.162 198.244 148.995 198.251C139.094 198.27 129.192 198.284 119.29 198.292C107.851 198.302 96.413 198.328 84.9744 198.369C76.1379 198.399 67.3013 198.414 58.4647 198.417C53.1844 198.419 47.9044 198.428 42.6242 198.454C37.6583 198.477 32.6928 198.481 27.7269 198.471C25.9036 198.47 24.0803 198.477 22.257 198.49C19.769 198.508 17.2822 198.501 14.7942 198.488C14.0716 198.499 13.3489 198.51 12.6043 198.521C7.80478 198.46 5.37039 197.402 2 194C0.281939 190.564 0.818721 186.609 0.794678 182.826C0.779828 181.395 0.779828 181.395 0.764679 179.936C0.732906 176.757 0.708194 173.578 0.683594 170.398C0.662987 168.169 0.64199 165.939 0.620621 163.709C0.576545 159.006 0.535676 154.303 0.497314 149.601C0.439442 142.51 0.373369 135.419 0.306641 128.328C0.212193 118.235 0.13726 108.142 0.0728607 98.0486C0.0340628 92.4029 -0.0280372 86.7585 -0.126678 81.1136C-0.177905 78.0838 -0.214798 75.054 -0.248642 72.024C-0.276331 70.049 -0.32473 68.0743 -0.373917 66.0997C-0.384506 64.9487 -0.395096 63.7977 -0.406006 62.6118C-0.424169 61.6371 -0.442331 60.6624 -0.461044 59.6581C0.1399 56.1934 1.60588 54.522 4 52C6.76561 50.6172 8.9908 50.8772 12.0869 50.8798C13.3855 50.8784 14.684 50.877 16.0219 50.8756C17.4692 50.8791 18.9165 50.8828 20.3638 50.8865C21.8813 50.8868 23.3988 50.8866 24.9163 50.8861C29.0442 50.8858 33.172 50.8917 37.2999 50.8986C41.6107 50.9049 45.9215 50.9055 50.2324 50.9067C58.3993 50.9098 66.5661 50.918 74.733 50.928C84.0291 50.9392 93.3252 50.9447 102.621 50.9497C121.748 50.9602 140.874 50.9778 160 51C159.989 50.4348 159.978 49.8696 159.966 49.2873C159.856 43.3988 159.78 37.5106 159.725 31.6214C159.7 29.4243 159.666 27.2273 159.623 25.0305C159.562 21.8704 159.534 18.7114 159.512 15.5508C159.486 14.5704 159.46 13.59 159.434 12.5799C159.432 7.93583 159.477 5.71549 162.283 1.87607C164.87 0.0898494 165.906 -0.620159 168.964 -0.567609ZM171 92C175 93 175 93 175 93L171 92ZM374 92C378 93 378 93 378 93L374 92ZM44.3571 94.9034C41.733 98.9574 41.8549 102.265 41.8672 106.98C41.8662 107.786 41.8653 108.591 41.8643 109.42C41.8636 111.134 41.8655 112.848 41.8696 114.562C41.8749 117.132 41.8697 119.702 41.8633 122.271C41.8591 127.182 41.9169 132.09 42 137C42.0079 137.748 42.0159 138.496 42.024 139.266C42.0542 141.342 42.1186 143.414 42.1953 145.488C42.229 146.655 42.2627 147.822 42.2974 149.025C42.7733 152.083 42.7733 152.083 44.8938 154.153C49.3789 156.82 53.2719 156.567 58.4023 156.533C59.4484 156.542 60.4945 156.551 61.5723 156.56C65.0276 156.582 68.4821 156.575 71.9375 156.566C74.3398 156.572 76.742 156.578 79.1443 156.585C84.178 156.596 89.2114 156.591 94.2451 156.576C100.698 156.559 107.151 156.583 113.604 156.618C118.564 156.64 123.524 156.638 128.485 156.63C130.864 156.629 133.244 156.636 135.623 156.651C138.948 156.668 142.272 156.654 145.598 156.631C146.582 156.643 147.566 156.655 148.58 156.667C153.089 156.604 155.34 156.461 159.115 153.823C161.264 150.605 161.61 149.034 161.568 145.2C161.567 144.059 161.567 142.918 161.566 141.743C161.541 140.522 161.515 139.301 161.488 138.043C161.481 136.785 161.474 135.527 161.467 134.231C161.444 130.898 161.399 127.566 161.343 124.234C161.292 120.828 161.269 117.423 161.244 114.018C161.189 107.345 161.105 100.672 161 94C162.32 93.67 163.64 93.34 165 93C149.684 92.9066 134.368 92.836 119.051 92.7928C111.94 92.7721 104.828 92.744 97.7168 92.6983C90.8568 92.6541 83.9971 92.6309 77.137 92.6205C74.5166 92.6131 71.8963 92.5986 69.276 92.5771C65.6125 92.5482 61.9498 92.5441 58.2861 92.5459C57.1971 92.5315 56.1081 92.5172 54.9861 92.5023C49.2931 92.4229 49.2931 92.4229 44.3571 94.9034Z" fill="#3772FF"/>
<path d="M203 51C229.773 50.8833 256.545 50.7951 283.318 50.741C295.749 50.7152 308.179 50.68 320.61 50.6228C331.443 50.573 342.276 50.5407 353.109 50.5296C358.846 50.523 364.584 50.5077 370.321 50.4714C375.719 50.4375 381.117 50.427 386.516 50.4345C388.499 50.4331 390.482 50.4231 392.465 50.404C395.17 50.3792 397.873 50.3851 400.578 50.3987C401.365 50.3842 402.152 50.3696 402.963 50.3546C406.852 50.4078 408.815 50.8649 411.987 53.1771C414.275 56.3858 414.628 57.8718 414.635 61.7687C414.649 62.9211 414.663 64.0735 414.678 65.2608C414.662 67.1436 414.662 67.1436 414.647 69.0645C414.654 70.4068 414.663 71.7492 414.674 73.0916C414.696 76.7301 414.687 80.368 414.672 84.0066C414.659 87.8173 414.671 91.6279 414.679 95.4386C414.688 101.838 414.676 108.236 414.652 114.635C414.625 122.03 414.633 129.423 414.661 136.818C414.684 143.17 414.687 149.523 414.674 155.875C414.666 159.668 414.665 163.46 414.681 167.252C414.696 170.818 414.686 174.383 414.657 177.949C414.647 179.879 414.662 181.809 414.678 183.739C414.562 193.176 414.562 193.176 411.668 196.277C408.226 198.5 405.991 198.631 401.906 198.629C401.237 198.631 400.568 198.634 399.879 198.636C398.47 198.635 397.061 198.622 395.653 198.597C393.506 198.563 391.362 198.576 389.215 198.596C387.841 198.589 386.467 198.579 385.094 198.566C383.233 198.55 383.233 198.55 381.334 198.533C377.209 197.873 375.806 197.104 373 194C372.267 190.762 372.368 187.581 372.432 184.274C372.432 183.289 372.431 182.303 372.43 181.287C372.434 178.03 372.473 174.773 372.512 171.516C372.521 169.257 372.528 166.998 372.533 164.739C372.552 158.795 372.601 152.85 372.657 146.906C372.708 140.839 372.731 134.773 372.756 128.707C372.809 116.804 372.895 104.902 373 93C364.95 93.0612 356.901 93.1382 348.852 93.2357C345.115 93.2805 341.378 93.3197 337.64 93.3465C334.035 93.3724 330.43 93.4128 326.825 93.4632C325.448 93.4799 324.071 93.4914 322.694 93.4976C320.768 93.5072 318.843 93.5369 316.918 93.5676C315.821 93.5787 314.724 93.5898 313.594 93.6013C312.738 93.7329 311.882 93.8644 311 94C308.343 97.9858 308.731 101.448 308.76 106.074C308.758 107.002 308.756 107.931 308.754 108.888C308.751 110.906 308.752 112.925 308.756 114.943C308.762 118.137 308.753 121.331 308.739 124.525C308.702 133.608 308.683 142.69 308.695 151.772C308.7 157.326 308.682 162.879 308.649 168.433C308.641 170.55 308.642 172.667 308.653 174.784C308.667 177.746 308.651 180.706 308.628 183.667C308.639 184.542 308.651 185.417 308.663 186.319C308.597 190.685 308.406 192.47 305.669 196.043C302.235 198.561 300.141 198.645 295.906 198.664C295.237 198.669 294.568 198.674 293.879 198.679C292.47 198.682 291.061 198.673 289.653 198.652C287.505 198.625 285.362 198.652 283.215 198.684C281.841 198.68 280.467 198.674 279.094 198.664C277.853 198.658 276.612 198.653 275.334 198.647C270.937 197.794 269.702 196.563 267 193C266.291 189.747 266.367 186.571 266.432 183.253C266.432 182.277 266.431 181.301 266.43 180.295C266.434 177.075 266.473 173.856 266.512 170.637C266.521 168.402 266.528 166.167 266.533 163.932C266.552 158.055 266.601 152.178 266.657 146.3C266.708 140.301 266.731 134.302 266.756 128.303C266.809 116.535 266.895 104.768 267 93C258.933 93.1074 250.867 93.22 242.8 93.3394C239.055 93.3946 235.31 93.448 231.565 93.4973C227.953 93.5449 224.342 93.5973 220.73 93.653C219.349 93.6734 217.969 93.6921 216.588 93.7091C214.66 93.7331 212.733 93.7637 210.805 93.7947C209.156 93.818 209.156 93.818 207.474 93.8418C205.057 93.7229 205.057 93.7229 204 95C203.891 98.0225 203.846 101.023 203.842 104.046C203.837 104.996 203.832 105.945 203.827 106.924C203.816 108.993 203.808 111.063 203.801 113.133C203.789 116.406 203.77 119.68 203.748 122.953C203.686 132.263 203.632 141.573 203.599 150.883C203.578 156.571 203.542 162.258 203.498 167.946C203.484 170.117 203.475 172.287 203.472 174.458C203.467 177.494 203.444 180.53 203.417 183.566C203.421 184.916 203.421 184.916 203.426 186.294C203.345 192.35 203.345 192.35 201.661 195.527C198.116 198.67 193.918 198.148 189.46 198.147C188.685 198.151 187.91 198.155 187.112 198.158C184.507 198.169 181.902 198.173 179.297 198.177C177.433 198.183 175.569 198.19 173.705 198.197C168.634 198.214 163.564 198.225 158.494 198.233C155.328 198.238 152.162 198.244 148.995 198.251C139.094 198.27 129.192 198.284 119.29 198.292C107.851 198.302 96.413 198.328 84.9744 198.369C76.1379 198.399 67.3013 198.414 58.4647 198.417C53.1844 198.419 47.9044 198.428 42.6242 198.454C37.6583 198.477 32.6928 198.481 27.7269 198.471C25.9036 198.47 24.0803 198.477 22.257 198.49C19.769 198.508 17.2822 198.501 14.7942 198.488C14.0716 198.499 13.3489 198.51 12.6043 198.521C7.80478 198.46 5.37039 197.402 2 194C0.452418 190.905 0.870398 187.641 0.886471 184.246C0.886325 183.446 0.886179 182.645 0.886029 181.821C0.886727 179.17 0.894515 176.519 0.902341 173.867C0.904205 172.032 0.905629 170.196 0.906628 168.36C0.910451 163.524 0.920278 158.687 0.931332 153.851C0.941553 148.917 0.946127 143.984 0.951169 139.051C0.961901 129.367 0.978974 119.684 0.999997 110C1.33 110 1.66 110 2 110C3.12682 118.991 3.12847 127.903 3.09765 136.945C3.09578 138.568 3.09436 140.19 3.09337 141.812C3.08958 146.051 3.07978 150.289 3.06866 154.527C3.05837 158.864 3.05385 163.202 3.04882 167.539C3.03815 176.026 3.02112 184.513 3 193C3.66 193 4.32 193 5 193C5 193.66 5 194.32 5 195C29.3912 195.177 53.7824 195.343 78.1738 195.495C89.4991 195.566 100.824 195.64 112.15 195.724C122.021 195.796 131.892 195.862 141.763 195.919C146.99 195.95 152.216 195.984 157.443 196.026C162.364 196.066 167.284 196.097 172.205 196.12C174.01 196.13 175.814 196.144 177.619 196.161C180.086 196.184 182.554 196.195 185.021 196.203C185.732 196.212 186.443 196.222 187.176 196.232C191.856 196.229 195.637 195.584 200 194C201.718 190.563 201.163 186.608 201.174 182.824C201.184 181.397 201.184 181.397 201.194 179.942C201.208 177.871 201.22 175.801 201.23 173.731C201.246 170.458 201.269 167.185 201.295 163.911C201.366 154.603 201.426 145.295 201.477 135.987C201.509 130.298 201.55 124.609 201.597 118.921C201.613 116.749 201.625 114.577 201.634 112.405C201.646 109.372 201.67 106.338 201.697 103.305C201.698 102.403 201.698 101.5 201.699 100.57C201.713 99.3315 201.713 99.3315 201.728 98.0678C201.732 97.3505 201.737 96.6331 201.741 95.8941C202 94 202 94 204 91C206.619 90.6191 206.619 90.6191 209.979 90.6118C211.233 90.6024 212.488 90.5929 213.781 90.5832C215.156 90.5885 216.531 90.5947 217.906 90.6016C219.311 90.5996 220.716 90.5966 222.121 90.5929C225.066 90.5885 228.012 90.5949 230.958 90.6089C234.738 90.626 238.517 90.6162 242.297 90.5982C245.198 90.5874 248.099 90.5908 251.001 90.5986C252.395 90.6006 253.788 90.5981 255.182 90.5911C257.129 90.5835 259.075 90.5972 261.021 90.6118C262.685 90.6154 262.685 90.6154 264.381 90.6191C265.245 90.7448 266.11 90.8705 267 91C269.647 94.9712 269.25 98.3767 269.195 102.982C269.192 103.901 269.189 104.82 269.186 105.767C269.179 107.764 269.167 109.761 269.15 111.758C269.125 114.919 269.112 118.079 269.102 121.239C269.075 129.091 269.027 136.942 268.979 144.793C268.94 151.424 268.909 158.054 268.888 164.685C268.875 167.799 268.85 170.913 268.825 174.026C268.817 175.937 268.811 177.848 268.805 179.759C268.789 181.058 268.789 181.058 268.773 182.382C268.773 186.628 268.772 190.238 271 194C271.99 194.33 272.98 194.66 274 195C274 195.66 274 196.32 274 197C288.85 196.505 288.85 196.505 304 196C305.915 191.303 305.915 191.303 306.278 186.678C306.29 185.847 306.301 185.015 306.312 184.159C306.316 182.811 306.316 182.811 306.319 181.436C306.329 180.48 306.339 179.523 306.349 178.538C306.38 175.383 306.397 172.229 306.414 169.074C306.433 166.884 306.452 164.694 306.473 162.504C306.524 156.745 306.564 150.987 306.601 145.228C306.641 139.349 306.692 133.47 306.742 127.592C306.839 116.061 306.923 104.531 307 93C307.66 93 308.32 93 309 93C309.33 92.34 309.66 91.68 310 91C334.09 91 358.18 91 383 91C382.67 91.99 382.34 92.98 382 94C379.36 94.33 376.72 94.66 374 95C374.33 127.34 374.66 159.68 375 193C375.99 193.33 376.98 193.66 378 194C378 194.66 378 195.32 378 196C382.199 196.099 386.398 196.172 390.598 196.22C392.026 196.24 393.453 196.267 394.881 196.302C396.936 196.35 398.991 196.373 401.047 196.391C402.283 196.412 403.519 196.433 404.792 196.454C408.69 195.902 409.593 195.046 412 192C412.598 189.381 412.598 189.381 412.508 186.465C412.519 185.34 412.53 184.214 412.542 183.054C412.534 181.823 412.526 180.593 412.518 179.324C412.525 178.025 412.532 176.725 412.539 175.387C412.557 171.824 412.55 168.263 412.537 164.701C412.527 160.971 412.537 157.242 412.543 153.513C412.55 147.249 412.541 140.986 412.521 134.722C412.5 127.484 412.507 120.246 412.529 113.008C412.547 106.791 412.549 100.575 412.539 94.3582C412.533 90.6463 412.532 86.9346 412.545 83.2227C412.559 79.0832 412.54 74.9444 412.518 70.805C412.53 68.9618 412.53 68.9618 412.542 67.0815C412.525 65.3886 412.525 65.3886 412.508 63.6615C412.506 62.6832 412.505 61.7048 412.503 60.6968C411.82 57.0338 410.8 55.4684 408 53C405.093 52.513 402.774 52.3523 399.87 52.4122C399.044 52.4093 398.218 52.4065 397.367 52.4035C394.594 52.4 391.823 52.4322 389.051 52.4641C387.065 52.4688 385.079 52.4713 383.093 52.4717C378.815 52.4773 374.537 52.4988 370.259 52.5325C363.499 52.5857 356.739 52.6041 349.979 52.6179C339.291 52.6437 328.603 52.6934 317.914 52.753C298.764 52.8592 279.614 52.93 260.464 52.9848C253.74 53.0051 247.015 53.0374 240.29 53.0793C236.113 53.1038 231.936 53.1202 227.759 53.1348C225.817 53.1433 223.875 53.1554 221.934 53.1711C219.29 53.1922 216.646 53.2011 214.003 53.2069C213.228 53.2161 212.454 53.2254 211.656 53.2349C207.882 53.2301 206.222 53.1482 203 51ZM374 92C378 93 378 93 378 93L374 92Z" fill="#3772FF"/>
<path d="M53.2138 90.8798C54.8713 90.8777 54.8713 90.8777 56.5623 90.8756C57.78 90.8792 58.9978 90.8828 60.2524 90.8865C61.5305 90.8863 62.8085 90.8862 64.1252 90.886C67.6353 90.8858 71.1454 90.8916 74.6555 90.8986C78.3217 90.9049 81.9879 90.9055 85.6541 90.9066C92.5992 90.9098 99.5442 90.918 106.489 90.928C114.395 90.9392 122.3 90.9447 130.206 90.9497C146.471 90.9602 162.735 90.9777 179 91C178.34 91.99 177.68 92.98 177 94C174.39 94.3841 171.994 94.6029 169.375 94.6875C168.315 94.7388 168.315 94.7388 167.234 94.791C165.49 94.8735 163.745 94.9384 162 95C162.004 95.7052 162.009 96.4105 162.013 97.137C162.054 103.787 162.084 110.438 162.104 117.088C162.114 120.507 162.128 123.926 162.151 127.345C162.177 131.277 162.186 135.209 162.195 139.141C162.206 140.367 162.216 141.593 162.227 142.856C162.227 143.997 162.227 145.138 162.227 146.313C162.231 147.317 162.236 148.321 162.241 149.355C161.981 152.207 161.749 153.726 160 156C154.789 158.597 149.365 158.27 143.68 158.227C142.143 158.228 142.143 158.228 140.574 158.228C137.198 158.227 133.822 158.211 130.445 158.195C128.1 158.192 125.754 158.189 123.409 158.187C117.244 158.179 111.079 158.159 104.914 158.137C98.6198 158.117 92.3255 158.108 86.0312 158.098C73.6875 158.076 61.3437 158.042 49 158C49 157.34 49 156.68 49 156C49.5478 155.999 50.0955 155.997 50.6599 155.996C63.9887 155.959 77.3173 155.899 90.646 155.816C97.0916 155.777 103.537 155.744 109.983 155.729C116.201 155.714 122.419 155.68 128.637 155.632C131.012 155.617 133.386 155.609 135.761 155.608C139.082 155.606 142.403 155.579 145.724 155.546C147.203 155.553 147.203 155.553 148.712 155.561C153.954 155.504 153.954 155.504 158.608 153.321C160.327 150.454 160.516 148.652 160.546 145.313C160.566 144.157 160.586 143 160.606 141.808C160.607 140.598 160.608 139.388 160.609 138.141C160.625 137.024 160.641 135.908 160.657 134.757C160.698 131.485 160.719 128.213 160.734 124.94C160.769 119.004 160.83 113.068 160.884 107.132C160.906 104.628 160.928 102.125 160.95 99.621C160.967 97.7474 160.983 95.8737 161 94C146.188 93.93 131.376 93.8771 116.564 93.8446C109.687 93.8291 102.81 93.808 95.9324 93.7737C89.2994 93.7406 82.6665 93.7232 76.0334 93.7154C73.4987 93.7098 70.9641 93.699 68.4295 93.6828C64.888 93.6612 61.347 93.658 57.8054 93.6594C56.7502 93.6487 55.695 93.6379 54.6078 93.6268C53.6445 93.6309 52.6812 93.635 51.6886 93.6393C50.8507 93.6365 50.0128 93.6337 49.1495 93.6309C46.4951 94.0867 45.6507 94.9163 44 97C42.4251 100.15 42.8581 103.523 42.8672 106.98C42.8662 107.786 42.8653 108.591 42.8643 109.42C42.8636 111.134 42.8655 112.848 42.8696 114.562C42.8749 117.132 42.8697 119.702 42.8633 122.271C42.8596 127.182 42.9079 132.09 43 137C43.0133 137.753 43.0265 138.506 43.0402 139.282C43.0884 141.374 43.1666 143.461 43.2578 145.551C43.3031 146.729 43.3484 147.908 43.395 149.122C43.7369 152.122 43.7369 152.122 46.0464 153.903C47.0134 154.446 47.0134 154.446 48 155C47.505 155.99 47.505 155.99 47 157C44 156 44 156 42.3387 153.785C40.8739 150.738 40.6097 148.807 40.5801 145.447C40.5562 143.815 40.5562 143.815 40.5319 142.151C40.5317 140.986 40.5315 139.821 40.5312 138.621C40.5236 137.417 40.516 136.213 40.5082 134.972C40.4974 132.429 40.4945 129.887 40.499 127.344C40.5 123.448 40.4583 119.554 40.4141 115.658C40.4089 113.188 40.4062 110.717 40.4062 108.246C40.3899 107.079 40.3735 105.913 40.3566 104.711C40.4258 96.6435 40.4258 96.6435 43.4121 93.2971C47.1158 91.4407 49.0481 90.8758 53.2138 90.8798ZM171 92C175 93 175 93 175 93L171 92Z" fill="#3772FF"/>
<path d="M12.049 50.8798C13.3391 50.8784 14.6292 50.877 15.9584 50.8756C17.3963 50.8791 18.8341 50.8828 20.272 50.8865C21.7796 50.8868 23.2873 50.8866 24.795 50.8861C28.896 50.8858 32.9969 50.8917 37.0979 50.8986C41.3808 50.9049 45.6636 50.9055 49.9464 50.9067C58.0601 50.9098 66.1738 50.918 74.2876 50.928C83.5232 50.9392 92.7589 50.9447 101.995 50.9497C120.996 50.9602 139.998 50.9778 159 51C159 51.33 159 51.66 159 52C158.219 52.0043 157.439 52.0085 156.635 52.0128C137.656 52.1161 118.678 52.2247 99.7004 52.3394C90.5229 52.3947 81.3453 52.4482 72.1677 52.4973C64.1702 52.5402 56.1727 52.5865 48.1753 52.6369C43.9392 52.6635 39.7031 52.6883 35.467 52.7091C31.4821 52.7287 27.4972 52.7528 23.5123 52.7805C22.0478 52.7899 20.5832 52.7976 19.1187 52.8034C17.1229 52.8117 15.1271 52.8266 13.1313 52.8418C11.4541 52.8515 11.4541 52.8515 9.74298 52.8614C6.90788 52.8819 6.90788 52.8819 4 54C3.01036 56.9689 2.84726 59.0115 2.79468 62.114C2.77473 63.1549 2.75479 64.1957 2.73424 65.2681C2.71753 66.3901 2.70081 67.512 2.68359 68.668C2.66281 69.8179 2.64203 70.9679 2.62062 72.1527C2.55517 75.8309 2.49626 79.5092 2.4375 83.1875C2.39431 85.6791 2.3507 88.1706 2.30664 90.6621C2.19949 96.7747 2.09772 102.887 2 109C1.67 109 1.34 109 1 109C0.220511 97.419 -0.172188 85.8287 -0.287109 74.2229C-0.303986 72.787 -0.32787 71.351 -0.358887 69.9153C-0.401005 67.8716 -0.416581 65.8293 -0.425781 63.7852C-0.440364 62.598 -0.454946 61.4109 -0.469971 60.1878C0.0943314 56.3602 1.31798 54.7332 4 52C6.75657 50.6217 8.96269 50.8772 12.049 50.8798Z" fill="#3772FF"/>
<path d="M163 1.00002C164.32 1.33002 165.64 1.66002 167 2.00002C166.34 2.00002 165.68 2.00002 165 2.00002C165 2.66002 165 3.32002 165 4.00002C164.34 4.66002 163.68 5.32002 163 6.00002C162.671 7.89613 162.671 7.89613 162.681 10.0825C162.661 10.9233 162.641 11.764 162.621 12.6302C162.609 13.5386 162.598 14.4469 162.586 15.3828C162.567 16.3122 162.547 17.2416 162.527 18.1992C162.467 21.1744 162.421 24.1496 162.375 27.125C162.337 29.1394 162.298 31.1537 162.258 33.168C162.162 38.1119 162.078 43.0558 162 48C161.01 48.495 161.01 48.495 160 49C159.926 42.807 159.871 36.6143 159.835 30.4209C159.82 28.3141 159.8 26.2073 159.774 24.1006C159.737 21.0722 159.72 18.0442 159.707 15.0156C159.692 14.0738 159.676 13.132 159.66 12.1617C159.66 11.2811 159.66 10.4005 159.659 9.49318C159.653 8.72041 159.646 7.94764 159.639 7.15145C160.091 4.4546 161.238 3.0488 163 1.00002Z" fill="#3772FF"/>
<path d="M301 194C301.99 194.66 302.98 195.32 304 196C301.182 197.409 298.827 197.112 295.68 197.098C294.423 197.094 293.166 197.091 291.871 197.088C290.552 197.08 289.234 197.071 287.875 197.063C286.535 197.058 285.195 197.053 283.855 197.049C280.57 197.037 277.285 197.021 274 197C274 196.67 274 196.34 274 196C274.782 195.975 275.565 195.95 276.371 195.924C279.893 195.809 283.415 195.686 286.938 195.563C288.169 195.523 289.401 195.484 290.67 195.443C292.425 195.381 292.425 195.381 294.215 195.316C295.299 195.28 296.383 195.243 297.5 195.205C299.939 195.276 299.939 195.276 301 194Z" fill="#3772FF"/>
</svg>
